<svg width="497" height="463" viewBox="0 0 497 463" fill="none" xmlns="http://www.w3.org/2000/svg">
<path d="M20.2245 462.998C15.2794 463.008 10.5098 460.455 6.85096 455.84C3.19212 451.224 0.907883 444.879 0.446108 438.048C-2.11855 399.058 4.07858 324.844 81.2652 292.825C164.72 258.208 141.648 116 208.306 116C274.964 116 275.314 186.861 295.185 194.067C315.056 201.273 381.68 179.873 396.564 243.042C424.072 359.812 460.997 303.521 489.651 393.439C492.394 402.201 494.601 411.267 496.248 420.542C500.162 442.111 488.299 463 472.268 463L20.2245 462.998Z" fill="#D7E8F4"/>
<g clip-path="url(#clip0_37_4)">
<path d="M165.6 322.812L396.5 322.812C401.429 322.812 405.425 318.435 405.425 313.036L405.425 15.2871C405.425 9.8884 401.429 5.51187 396.5 5.51187L165.6 5.51187C160.671 5.51187 156.675 9.8884 156.675 15.2871L156.675 313.036C156.675 318.435 160.671 322.812 165.6 322.812Z" fill="white"/>
<path d="M156.126 313.038V15.2871C156.129 12.5361 157.128 9.89875 158.904 7.95357C160.68 6.0084 163.088 4.91428 165.6 4.91125H396.5C399.012 4.91428 401.42 6.0084 403.196 7.95357C404.972 9.89875 405.971 12.5361 405.974 15.2871V313.038C405.971 315.789 404.972 318.426 403.196 320.371C401.42 322.317 399.012 323.411 396.5 323.414H165.6C163.088 323.411 160.68 322.317 158.904 320.371C157.128 318.426 156.129 315.789 156.126 313.038V313.038ZM165.6 6.11423C163.379 6.11693 161.25 7.08427 159.68 8.80403C158.11 10.5238 157.226 12.8555 157.224 15.2877V313.038C157.226 315.47 158.11 317.802 159.68 319.522C161.25 321.241 163.379 322.209 165.6 322.212H396.5C398.721 322.209 400.85 321.241 402.42 319.522C403.99 317.802 404.874 315.47 404.876 313.038V15.2871C404.874 12.8549 403.99 10.5232 402.42 8.80342C400.85 7.08367 398.72 6.11633 396.5 6.11362L165.6 6.11423Z" fill="#292A2E"/>
<path d="M212.847 462.758C212.769 462.758 212.691 462.739 212.619 462.704C212.548 462.668 212.484 462.616 212.432 462.55C212.381 462.485 212.343 462.409 212.32 462.326C212.298 462.243 212.293 462.156 212.304 462.071L230.661 323.327C230.67 323.248 230.693 323.171 230.73 323.102C230.766 323.033 230.815 322.973 230.873 322.924C230.931 322.876 230.997 322.841 231.068 322.821C231.138 322.801 231.212 322.797 231.284 322.808C231.356 322.819 231.425 322.846 231.488 322.888C231.55 322.929 231.605 322.983 231.648 323.047C231.691 323.112 231.722 323.185 231.739 323.263C231.756 323.34 231.759 323.421 231.747 323.499L213.388 462.243C213.369 462.386 213.304 462.516 213.205 462.61C213.106 462.705 212.979 462.757 212.847 462.758Z" fill="#292A2E"/>
<path d="M349.255 462.758C349.123 462.758 348.996 462.706 348.896 462.611C348.796 462.517 348.731 462.386 348.712 462.243L330.355 323.498C330.337 323.342 330.375 323.184 330.463 323.058C330.55 322.933 330.678 322.85 330.821 322.827C330.963 322.805 331.108 322.844 331.224 322.937C331.34 323.031 331.418 323.17 331.441 323.326L349.801 462.071C349.812 462.157 349.806 462.244 349.784 462.326C349.762 462.409 349.724 462.486 349.672 462.551C349.621 462.616 349.557 462.668 349.486 462.704C349.414 462.74 349.336 462.759 349.257 462.758L349.255 462.758Z" fill="#292A2E"/>
<g opacity="0.1">
<path opacity="0.1" d="M181.79 158.451L380.312 158.451C383.802 158.451 386.631 155.352 386.631 151.53V35.3624C386.631 31.5402 383.802 28.4416 380.312 28.4416L181.79 28.4416C178.3 28.4416 175.471 31.5402 175.471 35.3624V151.53C175.471 155.352 178.3 158.451 181.79 158.451Z" fill="#367CFF"/>
</g>
<g opacity="0.1">
<path opacity="0.1" d="M175.247 292.784V180.879C175.249 178.959 175.946 177.118 177.186 175.76C178.426 174.403 180.107 173.639 181.86 173.637H379.691C381.444 173.639 383.125 174.403 384.364 175.761C385.604 177.118 386.301 178.959 386.303 180.879V292.784C386.301 294.704 385.604 296.545 384.364 297.903C383.124 299.261 381.443 300.025 379.69 300.027H181.86C180.106 300.025 178.425 299.261 177.186 297.903C175.946 296.545 175.248 294.704 175.247 292.784V292.784Z" fill="#367CFF"/>
</g>
<path d="M361.009 283.51H364.935C365.526 283.51 366.005 282.985 366.005 282.338V200.192C366.005 199.545 365.526 199.02 364.935 199.02H361.009C360.418 199.02 359.939 199.545 359.939 200.192V282.338C359.939 282.985 360.418 283.51 361.009 283.51Z" fill="white"/>
<path opacity="0.3" d="M367.075 283.51H371.001C371.592 283.51 372.071 282.985 372.071 282.338V226.728C372.071 226.081 371.592 225.556 371.001 225.556H367.075C366.484 225.556 366.005 226.081 366.005 226.728V282.338C366.005 282.985 366.484 283.51 367.075 283.51Z" fill="#FFD702"/>
<path d="M312.463 283.51H316.389C316.98 283.51 317.459 282.985 317.459 282.338V273.991C317.459 273.344 316.98 272.819 316.389 272.819H312.463C311.872 272.819 311.393 273.344 311.393 273.991V282.338C311.393 282.985 311.872 283.51 312.463 283.51Z" fill="white"/>
<path opacity="0.3" d="M318.529 283.51H322.456C323.046 283.51 323.525 282.985 323.525 282.338V221.957C323.525 221.31 323.046 220.785 322.456 220.785H318.529C317.938 220.785 317.459 221.31 317.459 221.957V282.338C317.459 282.985 317.938 283.51 318.529 283.51Z" fill="#FB9300"/>
<path d="M336.736 283.51H340.662C341.253 283.51 341.732 282.985 341.732 282.338V234.109C341.732 233.462 341.253 232.937 340.662 232.937H336.736C336.145 232.937 335.666 233.462 335.666 234.109V282.338C335.666 282.985 336.145 283.51 336.736 283.51Z" fill="white"/>
<path opacity="0.3" d="M342.802 283.51H346.729C347.319 283.51 347.798 282.985 347.798 282.338V251.583C347.798 250.936 347.319 250.411 346.729 250.411H342.802C342.211 250.411 341.732 250.936 341.732 251.583V282.338C341.732 282.985 342.211 283.51 342.802 283.51Z" fill="#367CFF"/>
<path d="M239.643 283.51H243.57C244.161 283.51 244.64 282.985 244.64 282.338V216.532C244.64 215.885 244.161 215.36 243.57 215.36H239.643C239.053 215.36 238.574 215.885 238.574 216.532V282.338C238.574 282.985 239.053 283.51 239.643 283.51Z" fill="white"/>
<path opacity="0.3" d="M245.71 283.51H249.637C250.228 283.51 250.707 282.986 250.707 282.339V241.623C250.707 240.976 250.228 240.451 249.637 240.451H245.71C245.119 240.451 244.64 240.976 244.64 241.623V282.339C244.64 282.986 245.119 283.51 245.71 283.51Z" fill="#367CFF"/>
<path d="M288.19 283.51H292.116C292.707 283.51 293.186 282.985 293.186 282.338V227.163C293.186 226.515 292.707 225.991 292.116 225.991H288.19C287.599 225.991 287.12 226.515 287.12 227.163V282.338C287.12 282.985 287.599 283.51 288.19 283.51Z" fill="white"/>
<path opacity="0.3" d="M294.256 283.51H298.182C298.773 283.51 299.252 282.985 299.252 282.338V233.675C299.252 233.028 298.773 232.503 298.182 232.503H294.256C293.665 232.503 293.186 233.028 293.186 233.675V282.338C293.186 282.985 293.665 283.51 294.256 283.51Z" fill="#367CFF"/>
<path d="M263.917 283.51H267.843C268.434 283.51 268.913 282.985 268.913 282.338V200.192C268.913 199.545 268.434 199.02 267.843 199.02H263.917C263.326 199.02 262.847 199.545 262.847 200.192V282.338C262.847 282.985 263.326 283.51 263.917 283.51Z" fill="white"/>
<path opacity="0.3" d="M269.983 283.51H273.91C274.501 283.51 274.979 282.985 274.979 282.338V204.262C274.979 203.615 274.501 203.09 273.91 203.09H269.983C269.392 203.09 268.913 203.615 268.913 204.262V282.338C268.913 282.985 269.392 283.51 269.983 283.51Z" fill="#F54748"/>
<path d="M215.371 283.51H219.298C219.889 283.51 220.368 282.985 220.368 282.338V200.192C220.368 199.545 219.889 199.02 219.298 199.02H215.371C214.781 199.02 214.302 199.545 214.302 200.192V282.338C214.302 282.985 214.781 283.51 215.371 283.51Z" fill="white"/>
<path opacity="0.3" d="M221.437 283.51H225.364C225.955 283.51 226.434 282.985 226.434 282.338V226.728C226.434 226.081 225.955 225.556 225.364 225.556H221.437C220.847 225.556 220.368 226.081 220.368 226.728V282.338C220.368 282.985 220.847 283.51 221.437 283.51Z" fill="#0CBC8B"/>
<path d="M191.098 283.51H195.025C195.616 283.51 196.095 282.985 196.095 282.338V234.109C196.095 233.462 195.616 232.937 195.025 232.937H191.098C190.508 232.937 190.029 233.462 190.029 234.109V282.338C190.029 282.985 190.508 283.51 191.098 283.51Z" fill="white"/>
<path opacity="0.3" d="M197.164 283.51H201.091C201.682 283.51 202.161 282.985 202.161 282.338V251.583C202.161 250.936 201.682 250.411 201.091 250.411H197.164C196.574 250.411 196.095 250.936 196.095 251.583V282.338C196.095 282.985 196.574 283.51 197.164 283.51Z" fill="#367CFF"/>
<path opacity="0.2" d="M372.126 70.1645V142.083C372.126 142.389 372.015 142.682 371.818 142.899C371.62 143.115 371.352 143.237 371.073 143.237H191.027C190.748 143.237 190.48 143.115 190.282 142.899C190.085 142.682 189.974 142.389 189.974 142.083V103.903C189.974 103.7 190.023 103.501 190.115 103.326C190.207 103.151 190.34 103.005 190.501 102.904L222.378 82.746C222.541 82.6433 222.725 82.59 222.913 82.5916C223.1 82.5932 223.284 82.6496 223.445 82.7551L237.795 92.148C237.975 92.2656 238.182 92.322 238.391 92.3101C238.6 92.2981 238.801 92.2182 238.968 92.0806L254.036 79.6926C254.189 79.5661 254.372 79.488 254.563 79.4668C254.754 79.4456 254.947 79.4821 255.121 79.5724L273.716 89.2587C273.914 89.3623 274.137 89.3951 274.354 89.3527C274.571 89.3102 274.77 89.1945 274.923 89.0218L295.568 65.8059C295.746 65.6049 295.985 65.4819 296.24 65.4598C296.495 65.4377 296.749 65.5179 296.954 65.6856L310.359 76.6795C310.553 76.8389 310.792 76.9201 311.034 76.9091C311.277 76.8982 311.508 76.7958 311.69 76.6194L320.461 68.0825C320.638 67.9101 320.862 67.8081 321.099 67.793C321.335 67.7778 321.569 67.8504 321.763 67.999L334.212 77.5157C334.391 77.6523 334.604 77.7248 334.822 77.723C335.04 77.7213 335.252 77.6455 335.43 77.5061L356.954 60.5401C357.119 60.4094 357.316 60.3342 357.52 60.3236C357.723 60.3129 357.926 60.3672 358.102 60.48L371.605 69.1665C371.764 69.2683 371.896 69.4141 371.987 69.5893C372.079 69.7644 372.127 69.9627 372.126 70.1645V70.1645Z" fill="#7B5CFA"/>
<path opacity="0.61" d="M190.58 102.912C190.672 102.912 190.763 102.885 190.843 102.834L222.818 82.6138L238.042 92.5784C238.132 92.6371 238.236 92.6652 238.34 92.6592C238.445 92.6532 238.545 92.6134 238.629 92.5448L254.516 79.4822L274.08 89.6729C274.18 89.7243 274.291 89.7404 274.4 89.7189C274.508 89.6973 274.607 89.6392 274.684 89.5527L296.176 65.3814L310.639 77.2428C310.736 77.3225 310.856 77.3631 310.977 77.3576C311.098 77.3521 311.214 77.301 311.305 77.2127L321.029 67.7453L334.431 77.9943C334.521 78.0626 334.627 78.0988 334.736 78.0979C334.845 78.097 334.952 78.0592 335.04 77.9895L357.449 60.3291L371.255 69.2086C371.314 69.247 371.38 69.2722 371.449 69.2827C371.517 69.2932 371.587 69.2888 371.654 69.2698C371.721 69.2508 371.784 69.2175 371.839 69.1719C371.894 69.1262 371.94 69.0692 371.976 69.0039C372.011 68.9386 372.034 68.8664 372.043 68.7913C372.053 68.7163 372.049 68.64 372.031 68.5666C372.014 68.4933 371.984 68.4245 371.942 68.364C371.9 68.3035 371.848 68.2526 371.789 68.2142L357.687 59.1435C357.599 59.087 357.498 59.0597 357.396 59.0649C357.294 59.0701 357.195 59.1077 357.112 59.173L334.728 76.8142L321.291 66.5417C321.194 66.4673 321.077 66.4309 320.959 66.4384C320.841 66.446 320.728 66.497 320.64 66.5832L310.924 76.0398L296.433 64.1568C296.331 64.0729 296.204 64.0326 296.076 64.0437C295.949 64.0548 295.829 64.1164 295.74 64.2169L274.189 88.4555L254.678 78.2919C254.591 78.2467 254.495 78.2284 254.399 78.239C254.303 78.2496 254.212 78.2887 254.135 78.352L238.275 91.3917L223.09 81.4517C223.01 81.3991 222.918 81.371 222.824 81.3703C222.73 81.3695 222.638 81.3962 222.557 81.4475L190.312 101.837C190.212 101.9 190.134 101.998 190.089 102.116C190.045 102.233 190.037 102.363 190.067 102.486C190.097 102.609 190.164 102.717 190.256 102.794C190.348 102.872 190.46 102.913 190.576 102.913L190.58 102.912Z" fill="#7B5CFA"/>
<path d="M73.5119 436.024C73.5119 436.024 75.9903 450.092 88.0186 450.878C100.047 451.664 97.4384 462.157 97.4384 462.157H51.4731V437.005L73.5119 436.024Z" fill="#646464"/>
<path d="M48.356 179.36C48.356 179.36 51.7932 175.13 51.7631 184.724C51.6494 220.512 49.4444 445.003 49.4444 445.003L79.6489 444.725L97.9457 177.906L48.356 179.36Z" fill="#262626"/>
<path d="M125.088 436.024C125.088 436.024 127.566 450.092 139.595 450.878C151.623 451.664 149.015 462.157 149.015 462.157H103.049V437.005L125.088 436.024Z" fill="#646464"/>
<path d="M130.93 182.139C130.93 182.139 134.703 304.453 134.312 310.431L130.763 444.075L101.058 444.676L96.2681 305.596C96.2681 305.596 93.1283 267.231 84.6647 231.606C80.3345 213.322 77.7286 194.6 76.8877 175.734V175.734L130.93 182.139Z" fill="#262626"/>
<path d="M91.7422 268.86L94.2189 227.372C94.2189 227.372 96.7631 244.62 96.7631 259.486C96.7631 266.752 95.3968 295.522 95.3968 295.522L91.7422 268.86Z" fill="#0A0A0A"/>
<path d="M48.0268 179.356L47.9287 179.362C47.9287 179.362 47.9996 177.276 48.0268 179.356Z" fill="#333333"/>
<path d="M48.1509 179.356L48.0527 179.362C48.0527 179.362 48.1236 177.276 48.1509 179.356Z" fill="#333333"/>
<path d="M213.663 80.0785C213.481 79.6839 213.192 79.3609 212.835 79.1541C212.478 78.9473 212.071 78.867 211.671 78.9243C211.675 78.8979 211.672 78.8709 211.664 78.8457C211.656 78.8205 211.643 78.7979 211.625 78.7798C211.607 78.7617 211.585 78.7486 211.562 78.7417C211.538 78.7348 211.513 78.7343 211.49 78.7403L212.84 77.6804C213.244 77.3775 213.535 76.9243 213.658 76.4049C213.781 75.8854 213.728 75.3348 213.508 74.8548C213.278 74.3883 212.898 74.032 212.442 73.8553C211.985 73.6785 211.485 73.6939 211.038 73.8984C211.042 73.8779 211.028 73.8575 211.026 73.8382L211.581 73.4024C211.96 73.1152 212.238 72.6932 212.366 72.2078C212.494 71.7224 212.465 71.2034 212.284 70.7385C212.165 70.4496 211.989 70.1932 211.769 69.9878C211.549 69.7825 211.289 69.6332 211.01 69.5508C210.73 69.4685 210.438 69.4551 210.153 69.5116C209.868 69.5681 209.598 69.6931 209.363 69.8776L208.082 70.8834C208.079 70.875 208.082 70.8654 208.078 70.8576C208.073 70.8498 208.058 70.8467 208.051 70.8383C208.345 70.4761 208.518 70.0151 208.542 69.5311C208.565 69.047 208.437 68.5686 208.18 68.1745C207.576 67.1092 206.18 67.3268 205.352 67.9767L197.814 73.6795L199.161 71.1948C199.433 70.7169 199.528 70.1439 199.429 69.5916C199.329 69.0394 199.042 68.5492 198.625 68.2202C198.404 68.0584 198.156 67.9476 197.895 67.8945C197.634 67.8414 197.366 67.8471 197.107 67.9112C196.848 67.9753 196.604 68.0966 196.389 68.2675C196.174 68.4385 195.994 68.6556 195.858 68.9055L188.503 82.47C187.64 84.0613 187.377 85.9584 187.771 87.7582C188.165 89.5581 189.184 91.1188 190.612 92.1088C192.268 93.2573 194.199 93.8379 196.158 93.7763C198.117 93.7147 200.015 93.0137 201.607 91.7632L212.991 82.8272C213.369 82.519 213.641 82.0798 213.763 81.5809C213.885 81.082 213.85 80.5526 213.663 80.0785V80.0785Z" fill="#E98862"/>
<g opacity="0.25">
<path opacity="0.25" d="M200.624 76.5177C200.652 76.5593 200.693 76.5874 200.74 76.5959C200.786 76.6045 200.834 76.5928 200.872 76.5634L208.034 71.1305C208.054 71.1158 208.07 71.0969 208.083 71.0751C208.096 71.0533 208.105 71.029 208.109 71.0035C208.113 70.978 208.113 70.9518 208.108 70.9265C208.103 70.9011 208.093 70.8771 208.08 70.8558C208.066 70.8345 208.049 70.8163 208.029 70.8022C208.009 70.7882 207.987 70.7786 207.964 70.7739C207.941 70.7693 207.917 70.7697 207.894 70.7752C207.87 70.7807 207.849 70.7911 207.829 70.8059L200.667 76.2388C200.628 76.2687 200.601 76.3143 200.592 76.3658C200.584 76.4173 200.594 76.4704 200.621 76.5135L200.624 76.5177Z" fill="#0C0C0C"/>
</g>
<g opacity="0.25">
<path opacity="0.25" d="M202.725 80.0431C202.752 80.0849 202.794 80.1131 202.84 80.1218C202.886 80.1305 202.934 80.1188 202.973 80.0893L210.966 74.0258C211.005 73.9958 211.032 73.9501 211.04 73.8986C211.049 73.8471 211.038 73.7941 211.011 73.7511C210.983 73.7095 210.941 73.6812 210.895 73.6719C210.848 73.6626 210.8 73.6731 210.76 73.7012L202.767 79.7647C202.728 79.7946 202.701 79.8403 202.693 79.8918C202.684 79.9433 202.695 79.9964 202.722 80.0394L202.725 80.0431Z" fill="#0C0C0C"/>
</g>
<g opacity="0.25">
<path opacity="0.25" d="M204.98 83.8762C205.007 83.9179 205.049 83.9459 205.095 83.9545C205.142 83.963 205.189 83.9513 205.228 83.9219L211.604 79.0854C211.643 79.0556 211.67 79.0099 211.679 78.9583C211.687 78.9068 211.677 78.8537 211.649 78.8106C211.622 78.7676 211.58 78.7382 211.533 78.7288C211.486 78.7194 211.438 78.7309 211.398 78.7607L205.022 83.5973C204.983 83.6271 204.956 83.6728 204.948 83.7243C204.939 83.7758 204.95 83.8289 204.977 83.872L204.98 83.8762Z" fill="#0C0C0C"/>
</g>
<path d="M184.163 79.3788L162.558 119.677L136.196 81.8076L114.304 103.424L151.691 156.455L151.936 156.833C153.433 159.078 155.426 160.868 157.729 162.036C160.032 163.203 162.569 163.709 165.1 163.507C167.631 163.304 170.073 162.398 172.196 160.876C174.32 159.354 176.054 157.265 177.236 154.805L207.958 93.8721L184.163 79.3788Z" fill="#FFED90"/>
<path d="M160.44 124.524C160.397 124.523 160.354 124.512 160.315 124.49C160.283 124.473 160.255 124.448 160.231 124.418C160.208 124.388 160.19 124.353 160.179 124.315C160.168 124.278 160.164 124.238 160.166 124.199C160.169 124.159 160.179 124.121 160.196 124.086L162.314 119.541C162.33 119.506 162.353 119.474 162.38 119.449C162.408 119.423 162.439 119.404 162.474 119.392C162.508 119.379 162.544 119.375 162.58 119.378C162.616 119.381 162.651 119.392 162.683 119.41C162.715 119.428 162.744 119.453 162.767 119.483C162.791 119.513 162.809 119.547 162.82 119.585C162.831 119.623 162.835 119.662 162.832 119.702C162.829 119.741 162.819 119.779 162.803 119.814L160.685 124.359C160.662 124.409 160.627 124.45 160.584 124.479C160.541 124.508 160.491 124.523 160.44 124.524V124.524Z" fill="#0C0C0C"/>
<path d="M134.676 119.448L134.016 132.176L134.564 132.21L135.224 119.482L134.676 119.448Z" fill="#0C0C0C"/>
<path d="M65.0614 27.3318C65.0614 27.3318 64.0492 41.4993 61.0824 46.6064C52.5413 61.3096 49.9356 77.9383 58.2407 86.7487C66.5457 95.5591 120.103 96.3587 124.369 76.3909C127.963 59.58 120.652 57.6748 119.015 43.7466C118.275 37.4455 116.194 24.2255 116.194 24.2255" fill="#0A0A0A"/>
<path d="M110.735 73.1986C110.643 73.1854 109.617 91.8305 89.8405 90.2049C76.1496 89.0813 71.2681 73.1722 70.9541 73.1722C72.4301 72.8289 74.9161 72.3305 75.5715 71.9457C77.7271 70.6772 80.3948 69.357 81.0898 64.7718C81.4905 62.1266 80.8109 48.6083 81.02 45.9349L102.036 51.072C101.742 56.7195 99.6869 69.8115 106.89 72.1285C108.089 72.5115 109.38 72.8643 110.735 73.1986Z" fill="#E98862"/>
<path opacity="0.52" d="M102.33 66.7779C102.001 65.616 101.789 64.4181 101.698 63.2057C101.467 60.4389 101.513 57.6526 101.835 54.8967C97.5637 54.2654 93.5396 52.3344 90.2202 49.3232C89.83 50.9019 87.6837 57.7998 88.2782 59.2992C89.4013 62.1344 94.6796 66.7779 102.33 66.7779Z" fill="#0C0C0C"/>
<path d="M99.5448 60.9098C91.2507 61.6829 80.5689 57.9171 78.4764 45.805L76.5876 34.8761C74.4946 22.764 78.6065 11.7413 89.0194 9.58304C99.4317 7.42479 108.911 15.6304 111.004 27.7424L111.84 32.5808C112.643 37.2285 114.344 59.5307 99.5448 60.9098Z" fill="#E98862"/>
<path d="M108.872 33.1086C109.593 33.1086 110.178 32.4685 110.178 31.679C110.178 30.8894 109.593 30.2494 108.872 30.2494C108.151 30.2494 107.567 30.8894 107.567 31.679C107.567 32.4685 108.151 33.1086 108.872 33.1086Z" fill="#0C0C0C"/>
<path d="M95.5001 35.0649C96.221 35.0649 96.8054 34.4248 96.8054 33.6352C96.8054 32.8457 96.221 32.2056 95.5001 32.2056C94.7792 32.2056 94.1948 32.8457 94.1948 33.6352C94.1948 34.4248 94.7792 35.0649 95.5001 35.0649Z" fill="#0C0C0C"/>
<path d="M102.839 44.1157H102.859C103.281 44.0248 103.698 43.9084 104.108 43.767C104.72 43.5512 105.522 43.1947 105.418 42.5887C105.298 41.8985 102.286 34.8106 101.942 34.0044C101.912 33.934 101.858 33.8795 101.791 33.853C101.725 33.8264 101.651 33.83 101.587 33.8628C101.523 33.8956 101.473 33.9551 101.449 34.0281C101.424 34.1011 101.428 34.1817 101.458 34.2521C102.743 37.2706 104.812 42.2334 104.892 42.6981C104.823 42.9133 103.806 43.3227 102.76 43.5398C102.691 43.5529 102.63 43.595 102.589 43.6569C102.548 43.7189 102.531 43.7959 102.541 43.8715C102.552 43.947 102.589 44.0152 102.644 44.0614C102.7 44.1076 102.77 44.1282 102.839 44.1187V44.1157Z" fill="#0C0C0C"/>
<path d="M101.297 49.3454C102.995 49.1037 104.618 48.4285 106.034 47.3741C106.094 47.3318 106.135 47.2653 106.15 47.1893C106.165 47.1133 106.151 47.034 106.113 46.9689C106.074 46.9038 106.013 46.8581 105.944 46.842C105.875 46.8259 105.802 46.8406 105.743 46.8829C102.677 49.0707 99.6311 49.4242 96.9343 47.905C96.8798 47.8727 96.8237 47.8436 96.7663 47.8178C96.6998 47.7921 96.6267 47.7963 96.563 47.8293C96.4993 47.8624 96.45 47.9218 96.4261 47.9944C96.4021 48.0671 96.4053 48.1471 96.435 48.2172C96.4647 48.2873 96.5185 48.3416 96.5846 48.3685C96.6061 48.3781 96.6395 48.3985 96.69 48.4286C98.108 49.2296 99.7119 49.5488 101.297 49.3454V49.3454Z" fill="#0C0C0C"/>
<path d="M68.2575 38.6852L77.589 36.8107C84.6579 33.6779 86.7959 20.2745 86.7959 20.2745C86.7959 20.2745 95.3853 29.4408 116.194 24.2285C116.194 24.2285 112.022 -7.55434 81.2799 1.68407C71.3671 4.66414 64.2527 15.6045 65.1419 30.2259C65.76 40.4743 68.2575 38.6852 68.2575 38.6852Z" fill="#0A0A0A"/>
<path d="M79.7604 49.361C76.5965 50.0169 73.3903 46.8408 72.7893 43.375C72.1882 39.9092 74.4256 37.4666 77.59 36.8107L79.621 38.7946L82.4809 48.7971L79.7604 49.361Z" fill="#E98862"/>
<path d="M103.849 28.2089C104.772 27.5564 105.839 27.1877 106.936 27.1412C107.477 27.1151 108.018 27.1778 108.541 27.327C109.06 27.4729 109.559 27.6897 110.028 27.9721C110.095 28.0077 110.145 28.0705 110.169 28.1468C110.193 28.2232 110.189 28.3068 110.157 28.3795C110.125 28.4522 110.068 28.5081 109.998 28.5351C109.929 28.562 109.852 28.5578 109.786 28.5234L109.766 28.5131C109.333 28.2799 108.874 28.1073 108.401 27.9991C107.934 27.8896 107.454 27.8582 106.978 27.9059C106.034 27.9924 105.128 28.3511 104.351 28.9454L104.326 28.9652C104.281 29.0008 104.231 29.0263 104.177 29.0404C104.123 29.0545 104.068 29.057 104.013 29.0475C103.959 29.0381 103.906 29.017 103.859 28.9854C103.812 28.9539 103.771 28.9125 103.739 28.8636C103.707 28.8148 103.683 28.7594 103.67 28.7006C103.657 28.6419 103.655 28.5809 103.664 28.5213C103.672 28.4616 103.692 28.4043 103.721 28.3528C103.749 28.3013 103.787 28.2565 103.832 28.221L103.849 28.2089Z" fill="#0C0C0C"/>
<path d="M95.5245 30.3552C94.6043 30.1089 93.641 30.1332 92.7322 30.4255C92.2726 30.5696 91.8355 30.7889 91.4356 31.076C91.0303 31.3646 90.6598 31.708 90.3329 32.098L90.3181 32.1142C90.2669 32.1705 90.1977 32.2027 90.1253 32.2041C90.0528 32.2055 89.9826 32.1761 89.9296 32.1219C89.8766 32.0678 89.8449 31.9932 89.8412 31.9139C89.8375 31.8346 89.862 31.7568 89.9097 31.697C90.2538 31.248 90.6483 30.8482 91.0838 30.5073C91.5222 30.1603 92.006 29.8877 92.5186 29.6987C93.5578 29.3075 94.6739 29.2294 95.7501 29.4726C95.8593 29.4983 95.9547 29.5704 96.0153 29.6731C96.0759 29.7758 96.0968 29.9007 96.0734 30.0203C96.0499 30.1399 95.9841 30.2444 95.8903 30.3108C95.7965 30.3772 95.6825 30.4001 95.5733 30.3744L95.5563 30.3702L95.5245 30.3552Z" fill="#0C0C0C"/>
<path d="M101.658 52.0952C101.965 52.0567 102.269 51.9897 102.567 51.895C102.601 51.8849 102.633 51.8674 102.661 51.8435C102.689 51.8197 102.712 51.79 102.73 51.7562C102.747 51.7223 102.758 51.6851 102.762 51.6465C102.766 51.6079 102.764 51.5689 102.754 51.5316C102.744 51.4943 102.728 51.4594 102.705 51.4292C102.683 51.3989 102.656 51.3738 102.625 51.3552C102.593 51.3367 102.559 51.3251 102.524 51.3212C102.489 51.3172 102.453 51.321 102.419 51.3323C100.629 51.8962 99.6114 51.1489 99.5692 51.1165C99.5109 51.0718 99.4389 51.0544 99.3689 51.0679C99.2989 51.0814 99.2367 51.1248 99.1959 51.1886C99.1551 51.2524 99.1392 51.3313 99.1515 51.408C99.1639 51.4846 99.2035 51.5528 99.2618 51.5974C99.9841 52.0612 100.831 52.237 101.658 52.0952V52.0952Z" fill="#0C0C0C"/>
<path d="M77.6123 36.6815L77.5195 36.3983C89.3458 31.7481 86.4536 19.0373 86.4234 18.9092L86.6886 18.8335C86.7199 18.9634 89.6779 31.9369 77.6123 36.6815Z" fill="#0C0C0C"/>
<path opacity="0.1" d="M94.4465 45.008C95.8119 44.8471 96.8315 43.8273 96.7237 42.7304C96.6159 41.6334 95.4217 40.8745 94.0563 41.0354C92.6909 41.1963 91.6713 42.216 91.7791 43.313C91.8869 44.41 93.0811 45.1689 94.4465 45.008Z" fill="#0C0C0C"/>
<path opacity="0.1" d="M108.899 40.8116C109.009 41.907 110.203 42.6644 111.569 42.5057C111.805 42.4777 112.038 42.4231 112.264 42.3428C112.34 41.0394 112.357 39.7848 112.335 38.6227C111.957 38.5145 111.565 38.4843 111.177 38.5337C109.812 38.6924 108.793 39.712 108.899 40.8116Z" fill="#0C0C0C"/>
<circle cx="78" cy="50" r="2.5" stroke="#FFD702"/>
<path d="M135.306 114.246C134.683 122.261 131.653 172.266 131.054 182.139H51.8068C51.3402 173.235 45.9532 134.299 44.1851 116.887C42.4972 100.271 39.1857 91.9525 41.6129 87.0403C45.5794 79.012 56.4182 74.3733 63.8087 73.2773C68.3219 72.6082 75.1092 72.1285 75.1092 72.1285C75.1092 72.1285 75.6839 84.8616 89.388 85.5704C108.043 86.5323 106.797 72.1285 106.89 72.1285C109.912 72.1285 127.176 74.2236 131.4 76.9656C142.91 84.4305 136.628 97.261 135.306 114.246Z" fill="#FFED90"/>
<path d="M186.746 119.845L179.107 160.509C178.952 161.335 178.543 162.077 177.948 162.613C177.354 163.148 176.61 163.444 175.84 163.451L123.24 163.942C122.738 163.947 122.242 163.828 121.787 163.596C121.333 163.363 120.931 163.022 120.612 162.597C120.294 162.173 120.066 161.676 119.945 161.142C119.825 160.609 119.815 160.053 119.916 159.514L127.554 118.85C127.71 118.025 128.119 117.282 128.713 116.747C129.308 116.211 130.052 115.915 130.821 115.908L183.421 115.417C183.923 115.413 184.42 115.531 184.874 115.764C185.329 115.996 185.73 116.337 186.049 116.762C186.368 117.186 186.596 117.684 186.716 118.217C186.837 118.751 186.847 119.307 186.746 119.845Z" fill="#292A2E"/>
<path d="M137.698 148.729C137.726 149.265 137.576 149.793 137.277 150.217C136.977 150.642 136.548 150.933 136.068 151.038L134.448 151.429C134.477 151.439 134.503 151.458 134.524 151.482C134.545 151.506 134.561 151.535 134.569 151.567C134.573 151.605 134.565 151.643 134.547 151.675C134.936 151.795 135.282 152.045 135.536 152.39C135.79 152.734 135.939 153.157 135.963 153.599C135.966 154.115 135.809 154.616 135.519 155.021C135.229 155.427 134.823 155.714 134.366 155.836L120.693 159.16C119.994 159.332 119.279 159.419 118.563 159.419C116.967 159.418 115.395 158.993 113.983 158.179C112.57 157.365 111.36 156.188 110.455 154.748C109.496 153.224 109.118 151.35 109.401 149.526C109.684 147.701 110.606 146.07 111.97 144.978L123.602 135.666C123.858 135.461 124.155 135.327 124.469 135.275L123.399 140.968L123.684 140.896L123.745 140.884L132.664 138.894C133.658 138.654 135.019 139.051 135.195 140.289C135.289 140.763 135.234 141.258 135.039 141.694C134.843 142.129 134.519 142.48 134.119 142.688C134.124 142.694 134.135 142.7 134.135 142.712C134.135 142.724 134.13 142.73 134.13 142.742L135.672 142.369C135.955 142.301 136.247 142.301 136.529 142.372C136.811 142.442 137.075 142.58 137.302 142.775C137.53 142.971 137.715 143.219 137.844 143.502C137.973 143.786 138.043 144.097 138.049 144.413C138.049 144.919 137.889 145.408 137.597 145.799C137.305 146.191 136.899 146.459 136.446 146.559L135.782 146.722C135.777 146.746 135.782 146.77 135.771 146.788C136.255 146.792 136.72 146.993 137.076 147.351C137.432 147.71 137.654 148.201 137.698 148.729Z" fill="#E98862"/>
<g opacity="0.25">
<path opacity="0.25" d="M125.25 144.715C125.261 144.765 125.289 144.809 125.329 144.837C125.368 144.864 125.416 144.874 125.462 144.864L133.997 142.947C134.021 142.943 134.044 142.934 134.064 142.919C134.085 142.905 134.103 142.887 134.117 142.865C134.131 142.843 134.14 142.818 134.145 142.792C134.15 142.766 134.15 142.739 134.145 142.712C134.14 142.686 134.13 142.662 134.117 142.64C134.103 142.618 134.085 142.599 134.064 142.585C134.044 142.571 134.021 142.561 133.997 142.557C133.972 142.553 133.948 142.554 133.924 142.56L125.39 144.477C125.343 144.488 125.302 144.519 125.275 144.562C125.249 144.606 125.24 144.659 125.249 144.711L125.25 144.715Z" fill="#0C0C0C"/>
</g>
<g opacity="0.25">
<path opacity="0.25" d="M125.918 148.861C125.929 148.911 125.957 148.955 125.996 148.983C126.036 149.01 126.084 149.02 126.13 149.01L135.655 146.871C135.702 146.86 135.743 146.83 135.769 146.786C135.795 146.742 135.805 146.689 135.795 146.638C135.784 146.587 135.756 146.543 135.717 146.515C135.677 146.486 135.629 146.475 135.582 146.484L126.058 148.623C126.011 148.634 125.97 148.664 125.943 148.708C125.917 148.752 125.908 148.805 125.917 148.856L125.918 148.861Z" fill="#0C0C0C"/>
</g>
<g opacity="0.25">
<path opacity="0.25" d="M126.618 153.356C126.629 153.406 126.657 153.45 126.696 153.477C126.736 153.505 126.784 153.515 126.83 153.505L134.427 151.799C134.451 151.794 134.474 151.785 134.495 151.771C134.516 151.756 134.533 151.738 134.547 151.716C134.561 151.694 134.571 151.669 134.576 151.643C134.581 151.617 134.581 151.59 134.576 151.564C134.571 151.538 134.561 151.513 134.547 151.491C134.533 151.469 134.516 151.45 134.495 151.436C134.474 151.422 134.451 151.412 134.427 151.408C134.403 151.404 134.379 151.405 134.355 151.411L126.757 153.118C126.734 153.123 126.712 153.134 126.693 153.148C126.673 153.163 126.656 153.181 126.643 153.203C126.63 153.224 126.621 153.249 126.617 153.274C126.612 153.299 126.612 153.326 126.617 153.351L126.618 153.356Z" fill="#0C0C0C"/>
</g>
<path d="M119.846 165.086L45.6629 179.768C43.3481 180.044 41.0063 179.728 38.8213 178.847C36.6364 177.965 34.6677 176.541 33.0698 174.685C31.472 172.83 30.2883 170.595 29.6119 168.155C28.9354 165.714 28.7844 163.135 29.1709 160.62L39.5558 93.013C40.2189 88.6961 42.4206 84.8445 45.6766 82.3055C48.9327 79.7665 52.9762 78.7481 56.9178 79.4744C60.8594 80.2006 64.3761 82.612 66.6944 86.1781C69.0126 89.7442 69.9424 94.1729 69.2793 98.4898L62.1984 145.031L116.584 137.552L119.846 165.086Z" fill="#FFED90"/>
<path d="M45.6625 180.068C45.594 180.068 45.5281 180.04 45.4776 179.989C45.4271 179.938 45.3958 179.869 45.3897 179.794C45.3837 179.719 45.4034 179.645 45.4449 179.585C45.4864 179.526 45.5468 179.485 45.6142 179.472L119.54 164.84L116.349 137.885L62.232 145.329C62.1896 145.335 62.1464 145.33 62.106 145.315C62.0656 145.299 62.0292 145.273 61.9998 145.239C61.9701 145.205 61.948 145.164 61.9354 145.12C61.9227 145.075 61.9197 145.027 61.9268 144.981L66.4279 115.236C66.4337 115.197 66.4465 115.16 66.4656 115.127C66.4846 115.093 66.5095 115.064 66.5388 115.041C66.5681 115.018 66.6013 115.002 66.6364 114.993C66.6715 114.984 66.7079 114.982 66.7435 114.989C66.7791 114.995 66.8132 115.009 66.8439 115.03C66.8746 115.051 66.9012 115.078 66.9222 115.11C66.9432 115.143 66.9582 115.179 66.9663 115.218C66.9745 115.256 66.9756 115.296 66.9696 115.335L62.5284 144.682L116.55 137.251C116.622 137.241 116.695 137.263 116.752 137.312C116.809 137.36 116.847 137.432 116.856 137.51L120.118 165.045C120.127 165.121 120.109 165.199 120.067 165.261C120.026 165.323 119.964 165.366 119.895 165.379L45.7119 180.064C45.6956 180.067 45.6791 180.068 45.6625 180.068V180.068Z" fill="#0C0C0C"/>
<path d="M62.1547 144.735L57.3828 145.571L57.4697 146.165L62.2415 145.329L62.1547 144.735Z" fill="#0C0C0C"/>
<path d="M451.509 463.001H34.1064C34.0045 463.001 33.9068 462.956 33.8347 462.878C33.7627 462.799 33.7222 462.692 33.7222 462.58C33.7222 462.468 33.7627 462.361 33.8347 462.282C33.9068 462.203 34.0045 462.159 34.1064 462.159H451.509C451.56 462.159 451.61 462.17 451.656 462.191C451.703 462.212 451.745 462.243 451.781 462.282C451.817 462.321 451.845 462.368 451.864 462.419C451.884 462.47 451.893 462.525 451.893 462.58C451.893 462.635 451.884 462.69 451.864 462.741C451.845 462.792 451.817 462.838 451.781 462.878C451.745 462.917 451.703 462.948 451.656 462.969C451.61 462.99 451.56 463.001 451.509 463.001V463.001Z" fill="#292A2E"/>
<path d="M431.679 398.192C431.62 398.192 431.561 398.179 431.506 398.154C431.452 398.129 431.402 398.093 431.36 398.047C430.724 397.351 429.688 384.576 426.897 346.541C425.754 330.978 424.675 316.278 423.888 307.344C423.833 306.705 423.607 306.631 423.532 306.607C422.454 306.251 419.177 309.081 417.347 311.56C417.272 311.662 417.163 311.727 417.044 311.741C416.925 311.755 416.806 311.716 416.713 311.634C416.619 311.551 416.56 311.432 416.547 311.301C416.535 311.171 416.57 311.04 416.645 310.938C417.853 309.299 421.799 305.003 423.792 305.661C424.091 305.773 424.35 305.988 424.529 306.274C424.708 306.56 424.799 306.902 424.787 307.249C425.574 316.19 426.653 330.894 427.796 346.461C429.493 369.575 431.414 395.758 432.046 397.409C432.094 397.482 432.122 397.569 432.128 397.66C432.134 397.75 432.117 397.841 432.079 397.921C432.041 398.002 431.984 398.07 431.913 398.117C431.843 398.165 431.762 398.19 431.679 398.19V398.192Z" fill="#494949"/>
<path d="M422.729 323.736C430.216 317.163 432.698 306.932 428.272 300.884C423.845 294.836 414.187 295.262 406.7 301.836C399.212 308.409 396.731 318.641 401.157 324.688C405.583 330.736 415.241 330.31 422.729 323.736Z" fill="#0CBC52"/>
<path opacity="0.2" d="M422.729 323.736C430.216 317.163 432.698 306.932 428.272 300.884C423.845 294.836 414.187 295.262 406.7 301.836C399.212 308.409 396.731 318.641 401.157 324.688C405.583 330.736 415.241 330.31 422.729 323.736Z" fill="white"/>
<path d="M403.256 326.227C403.213 326.227 403.171 326.214 403.135 326.189C403.099 326.164 403.07 326.128 403.052 326.085C403.033 326.043 403.027 325.996 403.032 325.949C403.038 325.902 403.055 325.859 403.083 325.822L424.422 297.64C424.46 297.589 424.515 297.557 424.574 297.551C424.634 297.545 424.693 297.565 424.74 297.607C424.786 297.649 424.815 297.709 424.82 297.774C424.826 297.84 424.807 297.905 424.769 297.955L403.429 326.138C403.408 326.166 403.382 326.188 403.352 326.204C403.322 326.219 403.289 326.227 403.256 326.227V326.227Z" fill="white"/>
<path d="M436.333 392.15C436.283 392.15 436.232 392.141 436.185 392.122C436.129 392.101 436.077 392.068 436.033 392.025C435.989 391.982 435.953 391.929 435.927 391.871C435.901 391.813 435.886 391.749 435.883 391.684C435.879 391.62 435.888 391.555 435.907 391.493L443.921 366.247C444.157 365.505 444.559 364.839 445.09 364.312C445.622 363.784 446.266 363.411 446.963 363.226C447.661 363.042 448.389 363.052 449.082 363.257C449.774 363.461 450.409 363.852 450.928 364.394L455.166 368.828C455.252 368.919 455.302 369.043 455.305 369.174C455.308 369.305 455.263 369.432 455.18 369.527C455.098 369.622 454.984 369.677 454.864 369.68C454.745 369.683 454.629 369.634 454.542 369.543L450.305 365.109C449.895 364.681 449.394 364.372 448.847 364.211C448.3 364.05 447.725 364.042 447.175 364.187C446.624 364.333 446.116 364.627 445.696 365.044C445.277 365.46 444.959 365.986 444.773 366.571L436.759 391.821C436.728 391.917 436.67 392.001 436.594 392.06C436.518 392.119 436.426 392.15 436.333 392.15V392.15Z" fill="#494949"/>
<path d="M467.006 382.807C472.555 377.997 472.226 367.417 466.27 359.176C460.314 350.935 450.988 348.154 445.439 352.965C439.89 357.775 440.22 368.355 446.175 376.596C452.131 384.837 461.457 387.618 467.006 382.807Z" fill="#0CBC52"/>
<path d="M428.037 396.582C427.935 396.582 427.837 396.544 427.757 396.476C427.678 396.407 427.621 396.311 427.598 396.203L414.149 334.605C414.058 334.184 413.862 333.8 413.584 333.494C413.306 333.188 412.956 332.972 412.573 332.869C412.19 332.767 411.788 332.782 411.413 332.914C411.037 333.045 410.702 333.287 410.444 333.614L406.297 338.862C406.219 338.961 406.108 339.022 405.988 339.032C405.869 339.041 405.751 338.998 405.661 338.912C405.57 338.827 405.515 338.705 405.506 338.574C405.497 338.444 405.537 338.314 405.615 338.215L409.761 332.968C410.128 332.504 410.604 332.159 411.138 331.973C411.672 331.786 412.242 331.764 412.787 331.91C413.331 332.055 413.828 332.362 414.224 332.797C414.619 333.232 414.897 333.778 415.027 334.375L428.475 395.973C428.489 396.036 428.492 396.101 428.482 396.166C428.473 396.23 428.452 396.291 428.421 396.347C428.39 396.402 428.35 396.45 428.302 396.488C428.254 396.526 428.199 396.554 428.142 396.569C428.107 396.577 428.072 396.582 428.037 396.582V396.582Z" fill="#494949"/>
<path d="M423.076 352.549C424.711 342.192 420.384 332.726 413.41 331.406C406.437 330.085 399.458 337.41 397.823 347.766C396.188 358.122 400.515 367.588 407.489 368.909C414.462 370.229 421.441 362.905 423.076 352.549Z" fill="#0CBC52"/>
<path d="M431.679 398.192C431.66 398.192 431.642 398.191 431.624 398.188C431.505 398.172 431.397 398.105 431.323 398.002C431.25 397.899 431.216 397.768 431.231 397.638L439.821 321.256C439.915 320.424 440.226 319.64 440.717 318.996C441.208 318.353 441.858 317.879 442.589 317.631C443.32 317.383 444.101 317.372 444.838 317.598C445.575 317.824 446.237 318.279 446.744 318.908L456.561 331.086C456.602 331.135 456.634 331.192 456.654 331.253C456.674 331.315 456.683 331.381 456.68 331.447C456.677 331.512 456.662 331.577 456.636 331.636C456.61 331.695 456.573 331.748 456.528 331.792C456.483 331.835 456.431 331.868 456.374 331.889C456.317 331.91 456.257 331.919 456.197 331.914C456.137 331.909 456.079 331.891 456.025 331.862C455.972 331.832 455.924 331.791 455.885 331.74L446.067 319.562C445.675 319.078 445.164 318.728 444.595 318.553C444.025 318.379 443.422 318.388 442.858 318.58C442.293 318.771 441.791 319.137 441.411 319.633C441.032 320.129 440.791 320.735 440.717 321.377L432.128 397.758C432.114 397.878 432.061 397.988 431.978 398.068C431.896 398.148 431.789 398.192 431.679 398.192V398.192Z" fill="#494949"/>
<path d="M466.63 337.854C470.056 331.072 466.025 321.45 457.628 316.363C449.231 311.276 439.647 312.65 436.222 319.432C432.796 326.215 436.827 335.837 445.224 340.924C453.621 346.011 463.205 344.637 466.63 337.854Z" fill="#0CBC52"/>
<path opacity="0.2" d="M467.006 382.807C472.555 377.997 472.226 367.417 466.27 359.176C460.314 350.935 450.988 348.154 445.439 352.965C439.89 357.775 440.22 368.355 446.175 376.596C452.131 384.837 461.457 387.618 467.006 382.807Z" fill="white"/>
<path opacity="0.5" d="M423.076 352.549C424.711 342.192 420.384 332.726 413.41 331.406C406.437 330.085 399.458 337.41 397.823 347.766C396.188 358.122 400.515 367.588 407.489 368.909C414.462 370.229 421.441 362.905 423.076 352.549Z" fill="white"/>
<path opacity="0.5" d="M466.63 337.854C470.056 331.072 466.025 321.45 457.628 316.363C449.231 311.276 439.647 312.65 436.222 319.432C432.796 326.215 436.827 335.837 445.224 340.924C453.621 346.011 463.205 344.637 466.63 337.854Z" fill="white"/>
<path d="M442.665 463.001H420.692L417.051 386.004H446.306L442.665 463.001Z" fill="#292A2E"/>
<path opacity="0.3" d="M442.665 463.001H420.692L417.051 386.004H446.306L442.665 463.001Z" fill="white"/>
<path d="M467.007 383.05C466.972 383.051 466.938 383.042 466.908 383.026C466.877 383.009 466.85 382.985 466.828 382.955L445.261 353.113C445.223 353.061 445.206 352.996 445.213 352.931C445.22 352.865 445.251 352.806 445.298 352.765C445.345 352.725 445.404 352.706 445.464 352.714C445.523 352.721 445.577 352.754 445.615 352.806L467.182 382.648C467.209 382.685 467.226 382.728 467.23 382.775C467.235 382.821 467.228 382.868 467.209 382.909C467.191 382.951 467.162 382.987 467.126 383.011C467.09 383.036 467.048 383.049 467.006 383.049L467.007 383.05Z" fill="white"/>
<path d="M465.195 340.245C465.147 340.245 465.101 340.229 465.062 340.197L437.461 318.126C437.436 318.107 437.415 318.083 437.398 318.055C437.382 318.027 437.371 317.996 437.366 317.963C437.36 317.93 437.361 317.897 437.368 317.865C437.375 317.832 437.388 317.802 437.406 317.775C437.424 317.748 437.446 317.726 437.472 317.709C437.498 317.692 437.527 317.681 437.557 317.676C437.587 317.672 437.618 317.674 437.647 317.683C437.676 317.691 437.704 317.706 437.728 317.727L465.327 339.798C465.365 339.829 465.394 339.872 465.409 339.922C465.423 339.971 465.423 340.025 465.408 340.075C465.393 340.124 465.365 340.167 465.326 340.198C465.288 340.228 465.241 340.245 465.193 340.245H465.195Z" fill="white"/>
<path d="M406.367 368.587C406.347 368.587 406.328 368.584 406.309 368.579C406.251 368.562 406.202 368.521 406.172 368.464C406.142 368.408 406.134 368.341 406.149 368.278L414.935 332.226C414.952 332.164 414.99 332.111 415.041 332.079C415.092 332.048 415.153 332.039 415.21 332.056C415.267 332.072 415.316 332.113 415.346 332.168C415.376 332.224 415.385 332.29 415.371 332.353L406.585 368.403C406.572 368.455 406.544 368.502 406.505 368.535C406.465 368.569 406.417 368.587 406.367 368.587V368.587Z" fill="white"/>
</g>
<defs>
<clipPath id="clip0_37_4">
<rect width="442" height="463" fill="white" transform="translate(35)"/>
</clipPath>
</defs>
</svg>
