<svg width="633" height="599" viewBox="0 0 633 599" fill="none" xmlns="http://www.w3.org/2000/svg">
<g clip-path="url(#clip0_5_648)">
<path d="M540.483 8.93646H431.675V147.999H540.483V8.93646Z" fill="#F4F4F4"/>
<path d="M540.483 148H544.013V8.93707H540.483V148Z" fill="#F4F4F4"/>
<path opacity="0.05" d="M540.483 148H544.013V8.93707H540.483V148Z" fill="#292A2E"/>
<path opacity="0.05" d="M520.662 34.2687H451.496V122.668H520.662V34.2687Z" fill="#292A2E"/>
<path opacity="0.03" d="M520.662 34.2687H517.058V122.668H520.662V34.2687Z" fill="#292A2E"/>
<path d="M629.47 182.198H540.483V270.377H629.47V182.198Z" fill="#F4F4F4"/>
<path opacity="0.05" d="M613.26 198.261H556.693V254.314H613.26V198.261Z" fill="#292A2E"/>
<path d="M629.47 270.377H633V182.198H629.47V270.377Z" fill="#F4F4F4"/>
<path opacity="0.05" d="M629.47 270.377H633V182.198H629.47V270.377Z" fill="#292A2E"/>
<path opacity="0.03" d="M613.26 198.261H609.656V254.314H613.26V198.261Z" fill="#292A2E"/>
<path d="M308.241 0H11.8091V291.067H308.241V0Z" fill="#F4F4F4"/>
<path d="M311.639 0H308.241V291.067H311.639V0Z" fill="#F4F4F4"/>
<path opacity="0.05" d="M311.639 0H308.241V291.067H311.639V0Z" fill="#292A2E"/>
<path opacity="0.05" d="M236.429 200.569V124.416H172.899V168.659H74.4905V246.997H32.6655V291.067H74.4905H82.5483H293.982V200.569H236.429Z" fill="#292A2E"/>
<path opacity="0.34" d="M227.318 132.685H181.054V140.953H227.318V132.685Z" fill="#FFFFFA"/>
<path opacity="0.34" d="M227.318 149.819H181.054V158.087H227.318V149.819Z" fill="#FFFFFA"/>
<path opacity="0.34" d="M227.318 166.953H181.054V175.221H227.318V166.953Z" fill="#FFFFFA"/>
<path opacity="0.34" d="M285.778 208.595H277.251V216.863H285.778V208.595Z" fill="#FFFFFA"/>
<path opacity="0.34" d="M285.778 225.729H277.251V233.997H285.778V225.729Z" fill="#FFFFFA"/>
<path opacity="0.34" d="M285.778 242.863H277.251V251.132H285.778V242.863Z" fill="#FFFFFA"/>
<path opacity="0.34" d="M270.003 208.595H261.476V216.863H270.003V208.595Z" fill="#FFFFFA"/>
<path opacity="0.34" d="M270.003 225.729H261.476V233.997H270.003V225.729Z" fill="#FFFFFA"/>
<path opacity="0.34" d="M270.003 242.863H261.476V251.132H270.003V242.863Z" fill="#FFFFFA"/>
<path opacity="0.34" d="M254.655 208.595H246.128V216.863H254.655V208.595Z" fill="#FFFFFA"/>
<path opacity="0.34" d="M254.655 225.729H246.128V233.997H254.655V225.729Z" fill="#FFFFFA"/>
<path opacity="0.34" d="M254.655 242.863H246.128V251.132H254.655V242.863Z" fill="#FFFFFA"/>
<path d="M308.241 143.901H248.594V0H243.662V143.901H82.5483V0H77.6151V143.901H11.8091V148.745H77.6151V291.067H82.5483V148.745H243.662V291.067H248.594V148.745H308.241V143.901Z" fill="white"/>
<path d="M320.051 290.716H0V300.396H320.051V290.716Z" fill="#F4F4F4"/>
<path opacity="0.1" d="M320.051 290.716H0V300.396H320.051V290.716Z" fill="#292A2E"/>
<path opacity="0.1" d="M324.671 290.716H320.051V300.396H324.671V290.716Z" fill="#292A2E"/>
<path opacity="0.1" d="M324.671 290.716H320.051V300.396H324.671V290.716Z" fill="#292A2E"/>
<path opacity="0.05" d="M476.528 586.691H460.061V597.489H476.528V586.691Z" fill="#292A2E"/>
<path opacity="0.05" d="M579.898 586.691H563.432V597.489H579.898V586.691Z" fill="#292A2E"/>
<path d="M594.992 422.176H444.967V586.691H594.992V422.176Z" fill="#F4F4F4"/>
<path opacity="0.03" d="M594.992 422.176H444.967V586.691H594.992V422.176Z" fill="#292A2E"/>
<path d="M555.148 422.176H405.123V586.691H555.148V422.176Z" fill="#F4F4F4"/>
<path opacity="0.05" d="M436.684 586.691H420.218V597.489H436.684V586.691Z" fill="#292A2E"/>
<path opacity="0.05" d="M540.054 586.691H523.588V597.489H540.054V586.691Z" fill="#292A2E"/>
<path opacity="0.7" d="M547.077 432.348H413.194V474.073H547.077V432.348Z" fill="white"/>
<path opacity="0.7" d="M547.077 484.286H413.194V526.012H547.077V484.286Z" fill="white"/>
<path opacity="0.7" d="M547.077 536.224H413.194V577.95H547.077V536.224Z" fill="white"/>
<path opacity="0.05" d="M480.135 459.049C483.42 459.049 486.082 456.435 486.082 453.21C486.082 449.986 483.42 447.372 480.135 447.372C476.851 447.372 474.189 449.986 474.189 453.21C474.189 456.435 476.851 459.049 480.135 459.049Z" fill="#292A2E"/>
<path opacity="0.05" d="M480.135 510.988C483.42 510.988 486.082 508.374 486.082 505.149C486.082 501.924 483.42 499.31 480.135 499.31C476.851 499.31 474.189 501.924 474.189 505.149C474.189 508.374 476.851 510.988 480.135 510.988Z" fill="#292A2E"/>
<path opacity="0.05" d="M480.135 562.926C483.42 562.926 486.082 560.312 486.082 557.088C486.082 553.863 483.42 551.249 480.135 551.249C476.851 551.249 474.189 553.863 474.189 557.088C474.189 560.312 476.851 562.926 480.135 562.926Z" fill="#292A2E"/>
<path d="M70.5104 517.57C70.4273 517.57 70.345 517.554 70.2682 517.523C70.1915 517.491 70.1218 517.446 70.0633 517.388C69.1722 516.513 67.7197 500.462 63.8078 452.672C62.2072 433.118 60.6952 414.647 59.5917 403.423C59.5133 402.621 59.1964 402.528 59.0927 402.497C57.582 402.05 52.989 405.606 50.4247 408.721C50.3192 408.849 50.1662 408.93 49.9993 408.948C49.8325 408.965 49.6654 408.917 49.535 408.813C49.4045 408.71 49.3212 408.559 49.3036 408.395C49.2859 408.232 49.3352 408.068 49.4407 407.94C51.1368 405.88 56.6638 400.483 59.4564 401.308C60.0192 401.474 60.7211 401.955 60.8476 403.304C61.9524 414.538 63.4644 433.013 65.0656 452.573C67.4427 481.614 70.1353 514.515 71.0207 516.587C71.0885 516.679 71.1289 516.789 71.1375 516.903C71.1462 517.016 71.1226 517.13 71.0696 517.232C71.0165 517.334 70.9359 517.419 70.8367 517.478C70.7375 517.538 70.6235 517.57 70.5072 517.57H70.5104Z" fill="#494949"/>
<path d="M57.967 424.021C68.4605 415.762 71.9385 402.907 65.7353 395.308C59.532 387.709 45.9966 388.245 35.503 396.504C25.0094 404.763 21.5314 417.619 27.7347 425.217C33.9379 432.816 47.4734 432.28 57.967 424.021Z" fill="#0CBC52"/>
<path opacity="0.2" d="M57.967 424.021C68.4605 415.762 71.9385 402.907 65.7353 395.308C59.532 387.709 45.9966 388.245 35.503 396.504C25.0094 404.763 21.5314 417.619 27.7347 425.217C33.9379 432.816 47.4734 432.28 57.967 424.021Z" fill="white"/>
<path d="M30.6753 427.149C30.6153 427.149 30.5565 427.132 30.5058 427.1C30.4552 427.069 30.4147 427.024 30.3892 426.97C30.3636 426.917 30.3541 426.858 30.3616 426.799C30.3692 426.741 30.3936 426.685 30.4318 426.64L60.3377 391.229C60.3642 391.198 60.3968 391.172 60.4336 391.153C60.4703 391.134 60.5105 391.122 60.5519 391.118C60.5932 391.114 60.635 391.118 60.6747 391.131C60.7144 391.143 60.7512 391.162 60.7832 391.188C60.8152 391.214 60.8416 391.246 60.861 391.282C60.8804 391.318 60.8923 391.358 60.8962 391.399C60.9 391.439 60.8957 391.48 60.8834 391.519C60.8711 391.558 60.8512 391.594 60.8246 391.626L30.9188 427.036C30.8891 427.071 30.8519 427.1 30.8098 427.119C30.7677 427.139 30.7218 427.149 30.6753 427.149Z" fill="white"/>
<path d="M77.0315 509.979C76.9608 509.979 76.8906 509.967 76.8241 509.943C76.6656 509.889 76.5356 509.775 76.4626 509.627C76.3895 509.479 76.3794 509.308 76.4345 509.153L87.6681 477.432C87.9989 476.5 88.5625 475.664 89.3073 475.002C90.0522 474.339 90.9545 473.87 91.9315 473.639C92.9086 473.407 93.9292 473.42 94.8999 473.676C95.8706 473.932 96.7604 474.423 97.4877 475.105L103.427 480.675C103.548 480.789 103.619 480.945 103.623 481.11C103.626 481.275 103.563 481.434 103.448 481.553C103.332 481.672 103.172 481.742 103.005 481.745C102.837 481.749 102.674 481.687 102.553 481.574L96.6144 476.002C96.0402 475.465 95.3377 475.077 94.5714 474.875C93.805 474.673 92.9993 474.662 92.2279 474.845C91.4565 475.028 90.7442 475.398 90.1562 475.921C89.5681 476.444 89.1232 477.104 88.862 477.84L77.6291 509.561C77.586 509.683 77.5053 509.789 77.3982 509.864C77.2911 509.939 77.1629 509.979 77.0315 509.979Z" fill="#494949"/>
<path d="M120.018 498.236C127.795 492.192 127.332 478.899 118.986 468.545C110.639 458.19 97.568 454.696 89.7912 460.741C82.0145 466.785 82.4767 480.078 90.8235 490.432C99.1703 500.787 112.241 504.281 120.018 498.236Z" fill="#08916A"/>
<path d="M65.4057 515.547C65.2637 515.547 65.1258 515.499 65.0143 515.413C64.9028 515.327 64.8242 515.206 64.7911 515.07L45.9392 437.674C45.8102 437.147 45.5357 436.664 45.1457 436.28C44.7557 435.896 44.2654 435.625 43.7287 435.497C43.192 435.368 42.6297 435.388 42.1035 435.553C41.5773 435.718 41.1076 436.022 40.7461 436.432L34.9345 443.026C34.881 443.09 34.8149 443.143 34.7402 443.182C34.6654 443.221 34.5836 443.244 34.4994 443.251C34.4152 443.258 34.3304 443.249 34.25 443.223C34.1696 443.198 34.0953 443.157 34.0314 443.102C33.9675 443.048 33.9153 442.982 33.8779 442.907C33.8406 442.833 33.8188 442.752 33.8138 442.669C33.8089 442.586 33.8209 442.503 33.8492 442.425C33.8774 442.347 33.9213 442.275 33.9784 442.214L39.7893 435.62C40.303 435.037 40.9705 434.604 41.7184 434.369C42.4663 434.135 43.2657 434.107 44.0286 434.29C44.7915 434.472 45.4884 434.858 46.0425 435.404C46.5967 435.95 46.9868 436.636 47.1698 437.385L66.0204 514.782C66.0594 514.942 66.032 515.111 65.9442 515.251C65.8565 515.391 65.7155 515.492 65.5524 515.53C65.5044 515.541 65.4551 515.547 65.4057 515.547Z" fill="#494949"/>
<path d="M58.4499 460.22C60.7416 447.208 54.6767 435.315 44.9036 433.655C35.1306 431.996 25.3502 441.199 23.0586 454.211C20.7669 467.223 26.8318 479.117 36.6049 480.776C46.3779 482.436 56.1583 473.233 58.4499 460.22Z" fill="#0CBC33"/>
<path d="M70.5103 517.57C70.4843 517.57 70.4583 517.568 70.4325 517.565C70.35 517.555 70.2704 517.53 70.198 517.489C70.1257 517.449 70.0621 517.395 70.011 517.331C69.9598 517.267 69.9221 517.193 69.8999 517.115C69.8777 517.036 69.8715 516.954 69.8817 516.873L81.9197 420.903C82.051 419.857 82.4869 418.871 83.1752 418.063C83.8634 417.255 84.7747 416.66 85.7994 416.348C86.8241 416.037 87.9186 416.022 88.9515 416.307C89.9844 416.591 90.9116 417.163 91.6217 417.952L105.381 433.254C105.436 433.315 105.478 433.386 105.505 433.463C105.532 433.54 105.543 433.622 105.538 433.703C105.533 433.785 105.511 433.864 105.475 433.938C105.438 434.011 105.388 434.076 105.325 434.13C105.263 434.184 105.191 434.226 105.112 434.252C105.033 434.279 104.95 434.29 104.867 434.285C104.784 434.28 104.703 434.259 104.629 434.223C104.554 434.187 104.487 434.137 104.432 434.076L90.6731 418.774C90.1243 418.164 89.4077 417.722 88.6094 417.502C87.8111 417.282 86.9651 417.293 86.1731 417.534C85.3811 417.775 84.6769 418.236 84.145 418.86C83.6131 419.485 83.2763 420.247 83.175 421.055L71.137 517.024C71.1182 517.175 71.0441 517.313 70.9287 517.413C70.8133 517.514 70.6645 517.569 70.5103 517.57Z" fill="#494949"/>
<path d="M119.492 441.757C124.292 433.235 118.644 421.145 106.876 414.753C95.1075 408.362 81.6757 410.088 76.875 418.61C72.0743 427.132 77.7227 439.222 89.491 445.613C101.259 452.005 114.691 450.278 119.492 441.757Z" fill="#85DE99"/>
<path opacity="0.2" d="M120.018 498.236C127.795 492.192 127.332 478.899 118.986 468.545C110.639 458.19 97.568 454.696 89.7912 460.741C82.0145 466.785 82.4767 480.078 90.8235 490.432C99.1703 500.787 112.241 504.281 120.018 498.236Z" fill="white"/>
<path opacity="0.5" d="M58.4499 460.22C60.7416 447.208 54.6767 435.315 44.9036 433.655C35.1306 431.996 25.3502 441.199 23.0586 454.211C20.7669 467.223 26.8318 479.117 36.6049 480.776C46.3779 482.436 56.1583 473.233 58.4499 460.22Z" fill="white"/>
<path opacity="0.5" d="M119.492 441.757C124.292 433.235 118.644 421.145 106.876 414.753C95.1075 408.362 81.6757 410.088 76.875 418.61C72.0743 427.132 77.7227 439.222 89.491 445.613C101.259 452.005 114.691 450.278 119.492 441.757Z" fill="white"/>
<path d="M85.9062 599H55.1118L50.0085 502.256H91.0089L85.9062 599Z" fill="#292A2E"/>
<path opacity="0.3" d="M85.9062 599H55.1118L50.0085 502.256H91.0089L85.9062 599Z" fill="white"/>
<path d="M120.02 498.547C119.972 498.547 119.925 498.537 119.882 498.516C119.839 498.496 119.801 498.466 119.772 498.429L89.5442 460.934C89.5184 460.902 89.4993 460.865 89.4879 460.826C89.4765 460.787 89.4732 460.745 89.4779 460.705C89.4827 460.664 89.4956 460.625 89.5158 460.59C89.536 460.554 89.5632 460.523 89.5957 460.497C89.6283 460.472 89.6656 460.453 89.7055 460.442C89.7455 460.431 89.7873 460.428 89.8285 460.432C89.8698 460.437 89.9097 460.45 89.946 460.469C89.9822 460.489 90.0142 460.516 90.04 460.548L120.268 498.044C120.305 498.089 120.328 498.145 120.334 498.203C120.341 498.261 120.331 498.319 120.305 498.372C120.279 498.425 120.238 498.469 120.188 498.5C120.138 498.531 120.079 498.547 120.02 498.547Z" fill="white"/>
<path d="M117.482 444.761C117.415 444.761 117.349 444.739 117.296 444.699L78.6154 416.967C78.5476 416.919 78.5023 416.846 78.4894 416.764C78.4764 416.683 78.497 416.6 78.5465 416.533C78.5959 416.467 78.6703 416.422 78.7532 416.409C78.8361 416.397 78.9207 416.417 78.9885 416.465L117.669 444.198C117.722 444.237 117.761 444.292 117.781 444.354C117.801 444.416 117.8 444.483 117.779 444.545C117.758 444.607 117.718 444.66 117.664 444.698C117.61 444.737 117.545 444.757 117.479 444.757L117.482 444.761Z" fill="white"/>
<path d="M35.0338 480.371C35.0062 480.371 34.9788 480.367 34.9522 480.36C34.8718 480.339 34.8034 480.287 34.7619 480.216C34.7203 480.145 34.7089 480.061 34.7302 479.981L47.0433 434.682C47.0534 434.642 47.0716 434.604 47.0967 434.571C47.1218 434.538 47.1533 434.51 47.1895 434.49C47.2257 434.469 47.2657 434.455 47.3073 434.449C47.3488 434.444 47.3911 434.446 47.4317 434.457C47.4722 434.468 47.5102 434.486 47.5434 434.511C47.5766 434.536 47.6044 434.568 47.6251 434.604C47.6458 434.64 47.6591 434.679 47.6641 434.72C47.669 434.761 47.6657 434.802 47.6542 434.842L35.3411 480.14C35.3231 480.207 35.2831 480.265 35.2275 480.307C35.1719 480.349 35.1037 480.371 35.0338 480.371Z" fill="white"/>
<path d="M469.327 34.1743H105.906C95.4283 34.1743 86.9346 42.5143 86.9346 52.8023V446.458C86.9346 456.746 95.4283 465.086 105.906 465.086H469.327C479.804 465.086 488.298 456.746 488.298 446.458V52.8023C488.298 42.5143 479.804 34.1743 469.327 34.1743Z" fill="white"/>
<path d="M468.968 465.181H105.544C100.347 465.175 95.364 463.145 91.6889 459.536C88.0138 455.928 85.9465 451.035 85.9404 445.932V52.2757C85.9465 47.1724 88.0138 42.2798 91.6889 38.6712C95.364 35.0626 100.347 33.0327 105.544 33.0268H468.968C474.165 33.0325 479.148 35.0624 482.823 38.671C486.498 42.2797 488.566 47.1724 488.571 52.2757V445.932C488.566 451.035 486.498 455.928 482.823 459.537C479.148 463.145 474.165 465.175 468.968 465.181ZM105.544 34.2687C100.682 34.2742 96.0208 36.1732 92.5828 39.549C89.1448 42.9247 87.2109 47.5017 87.2052 52.2757V445.932C87.2107 450.706 89.1446 455.283 92.5827 458.659C96.0207 462.035 100.682 463.933 105.544 463.939H468.968C473.83 463.933 478.491 462.035 481.929 458.659C485.367 455.283 487.301 450.706 487.307 445.932V52.2757C487.301 47.5017 485.367 42.9247 481.929 39.549C478.491 36.1732 473.83 34.2742 468.968 34.2687H105.544Z" fill="#292A2E"/>
<path d="M487.938 52.2733V66.6715H86.5771V52.2733C86.5771 47.3328 88.5759 42.5947 92.1337 39.1013C95.6916 35.6079 100.517 33.6453 105.549 33.6453H468.967C473.999 33.6453 478.824 35.6079 482.382 39.1013C485.94 42.5947 487.938 47.3328 487.938 52.2733Z" fill="#292A2E"/>
<path opacity="0.1" d="M153.498 181.026C179.114 181.026 199.88 160.636 199.88 135.484C199.88 110.332 179.114 89.9415 153.498 89.9415C127.882 89.9415 107.116 110.332 107.116 135.484C107.116 160.636 127.882 181.026 153.498 181.026Z" fill="#367CFF"/>
<path opacity="0.2" d="M153.498 133.524C162.395 133.524 169.608 126.442 169.608 117.706C169.608 108.97 162.395 101.888 153.498 101.888C144.601 101.888 137.388 108.97 137.388 117.706C137.388 126.442 144.601 133.524 153.498 133.524Z" fill="#367CFF"/>
<path opacity="0.2" d="M188.367 165.515C184.014 170.389 178.651 174.294 172.637 176.969C166.624 179.644 160.098 181.027 153.496 181.026C146.894 181.026 140.368 179.641 134.355 176.965C128.342 174.289 122.98 170.383 118.628 165.509C120.857 158.127 125.457 151.65 131.742 147.044C138.026 142.439 145.658 139.951 153.5 139.951C161.342 139.952 168.973 142.441 175.257 147.048C181.54 151.655 186.139 158.133 188.367 165.515Z" fill="#367CFF"/>
<path opacity="0.2" d="M175.406 212.095H112.538C110.27 212.095 108.43 213.901 108.43 216.128C108.43 218.356 110.27 220.162 112.538 220.162H175.406C177.674 220.162 179.514 218.356 179.514 216.128C179.514 213.901 177.674 212.095 175.406 212.095Z" fill="#367CFF"/>
<path opacity="0.1" d="M324.786 93.0002H225.97C222.28 93.0002 219.289 95.9373 219.289 99.5604V113.167C219.289 116.79 222.28 119.727 225.97 119.727H324.786C328.476 119.727 331.468 116.79 331.468 113.167V99.5604C331.468 95.9373 328.476 93.0002 324.786 93.0002Z" fill="#367CFF"/>
<path opacity="0.2" d="M370.564 134.503H222.451C220.705 134.503 219.289 135.893 219.289 137.607C219.289 139.322 220.705 140.712 222.451 140.712H370.564C372.31 140.712 373.726 139.322 373.726 137.607C373.726 135.893 372.31 134.503 370.564 134.503Z" fill="#367CFF"/>
<path opacity="0.2" d="M370.564 153.131H222.451C220.705 153.131 219.289 154.521 219.289 156.235C219.289 157.95 220.705 159.34 222.451 159.34H370.564C372.31 159.34 373.726 157.95 373.726 156.235C373.726 154.521 372.31 153.131 370.564 153.131Z" fill="#367CFF"/>
<path opacity="0.2" d="M345.269 171.759H222.451C220.705 171.759 219.289 173.149 219.289 174.863C219.289 176.578 220.705 177.968 222.451 177.968H345.269C347.015 177.968 348.43 176.578 348.43 174.863C348.43 173.149 347.015 171.759 345.269 171.759Z" fill="#367CFF"/>
<path opacity="0.1" d="M268.768 231.798H114.369C111.089 231.798 108.43 234.409 108.43 237.629V252.036C108.43 255.257 111.089 257.867 114.369 257.867H268.768C272.048 257.867 274.707 255.257 274.707 252.036V237.629C274.707 234.409 272.048 231.798 268.768 231.798Z" fill="#367CFF"/>
<path opacity="0.2" d="M364.713 212.095H301.845C299.577 212.095 297.738 213.901 297.738 216.128C297.738 218.356 299.577 220.162 301.845 220.162H364.713C366.982 220.162 368.821 218.356 368.821 216.128C368.821 213.901 366.982 212.095 364.713 212.095Z" fill="#367CFF"/>
<path opacity="0.1" d="M458.075 231.798H303.676C300.396 231.798 297.738 234.409 297.738 237.629V252.036C297.738 255.257 300.396 257.867 303.676 257.867H458.075C461.355 257.867 464.014 255.257 464.014 252.036V237.629C464.014 234.409 461.355 231.798 458.075 231.798Z" fill="#367CFF"/>
<path opacity="0.2" d="M175.406 279.42H112.538C110.27 279.42 108.43 281.226 108.43 283.453C108.43 285.681 110.27 287.487 112.538 287.487H175.406C177.674 287.487 179.514 285.681 179.514 283.453C179.514 281.226 177.674 279.42 175.406 279.42Z" fill="#367CFF"/>
<path opacity="0.1" d="M268.768 299.123H114.369C111.089 299.123 108.43 301.734 108.43 304.955V319.361C108.43 322.582 111.089 325.193 114.369 325.193H268.768C272.048 325.193 274.707 322.582 274.707 319.361V304.955C274.707 301.734 272.048 299.123 268.768 299.123Z" fill="#367CFF"/>
<path opacity="0.2" d="M364.713 279.42H301.845C299.577 279.42 297.738 281.226 297.738 283.453C297.738 285.681 299.577 287.487 301.845 287.487H364.713C366.982 287.487 368.821 285.681 368.821 283.453C368.821 281.226 366.982 279.42 364.713 279.42Z" fill="#367CFF"/>
<path opacity="0.1" d="M458.075 299.123H303.676C300.396 299.123 297.738 301.734 297.738 304.955V319.361C297.738 322.582 300.396 325.193 303.676 325.193H458.075C461.355 325.193 464.014 322.582 464.014 319.361V304.955C464.014 301.734 461.355 299.123 458.075 299.123Z" fill="#367CFF"/>
<path opacity="0.2" d="M175.406 346.745H112.538C110.27 346.745 108.43 348.551 108.43 350.779C108.43 353.006 110.27 354.812 112.538 354.812H175.406C177.674 354.812 179.514 353.006 179.514 350.779C179.514 348.551 177.674 346.745 175.406 346.745Z" fill="#367CFF"/>
<path opacity="0.1" d="M268.768 366.449H114.369C111.089 366.449 108.43 369.059 108.43 372.28V386.687C108.43 389.907 111.089 392.518 114.369 392.518H268.768C272.048 392.518 274.707 389.907 274.707 386.687V372.28C274.707 369.059 272.048 366.449 268.768 366.449Z" fill="#367CFF"/>
<path opacity="0.2" d="M364.713 346.745H301.845C299.577 346.745 297.738 348.551 297.738 350.779C297.738 353.006 299.577 354.812 301.845 354.812H364.713C366.982 354.812 368.821 353.006 368.821 350.779C368.821 348.551 366.982 346.745 364.713 346.745Z" fill="#367CFF"/>
<path opacity="0.1" d="M458.075 366.449H303.676C300.396 366.449 297.738 369.059 297.738 372.28V386.687C297.738 389.907 300.396 392.518 303.676 392.518H458.075C461.355 392.518 464.014 389.907 464.014 386.687V372.28C464.014 369.059 461.355 366.449 458.075 366.449Z" fill="#367CFF"/>
<path opacity="0.2" d="M335.512 412.829H239.002C235.108 412.829 231.951 415.929 231.951 419.753V432.534C231.951 436.358 235.108 439.457 239.002 439.457H335.512C339.406 439.457 342.563 436.358 342.563 432.534V419.753C342.563 415.929 339.406 412.829 335.512 412.829Z" fill="#367CFF"/>
<path d="M304.092 111.326L314.312 123.177L313.68 121.142C313.489 120.481 313.56 119.774 313.88 119.163C314.2 118.552 314.744 118.083 315.402 117.851C315.747 117.743 316.109 117.705 316.469 117.739C316.829 117.773 317.177 117.879 317.494 118.049C317.811 118.22 318.088 118.453 318.311 118.732C318.533 119.012 318.695 119.333 318.786 119.676L323.458 136.95C324.048 139.13 323.747 141.451 322.619 143.416C321.491 145.382 319.625 146.837 317.42 147.47C314.86 148.206 312.134 148.175 309.592 147.379C307.05 146.584 304.808 145.062 303.153 143.008L295.673 133.687C295.275 133.21 295.056 132.613 295.055 131.996C295.054 131.379 295.27 130.781 295.666 130.303C296.033 129.878 296.529 129.579 297.082 129.451C297.634 129.322 298.214 129.371 298.736 129.589C298.747 129.548 298.769 129.51 298.799 129.481C298.83 129.454 298.867 129.436 298.906 129.427C298.946 129.418 298.987 129.419 299.026 129.43L297.641 127.71C297.216 127.206 296.992 126.568 297.009 125.914C297.026 125.26 297.283 124.634 297.734 124.152C298.195 123.689 298.815 123.411 299.473 123.372C300.131 123.333 300.781 123.535 301.296 123.94C301.299 123.912 301.308 123.886 301.321 123.861L300.752 123.156C300.381 122.673 300.178 122.085 300.173 121.48C300.168 120.874 300.361 120.284 300.725 119.795C301.169 119.269 301.806 118.934 302.498 118.863C303.191 118.792 303.884 118.991 304.429 119.415L304.465 119.38L300.172 114.401C299.951 114.145 299.787 113.849 299.687 113.529C299.587 113.209 299.555 112.872 299.593 112.54C299.63 112.207 299.736 111.885 299.904 111.594C300.072 111.303 300.299 111.049 300.57 110.847C301.11 110.473 301.774 110.315 302.428 110.404C303.081 110.493 303.677 110.822 304.092 111.326Z" fill="#E98862"/>
<path opacity="0.2" d="M304.325 119.695C304.336 119.722 304.351 119.746 304.37 119.768L308.601 124.559C308.623 124.584 308.649 124.604 308.678 124.618C308.708 124.633 308.74 124.642 308.772 124.644C308.805 124.646 308.838 124.642 308.869 124.632C308.901 124.622 308.929 124.606 308.954 124.585C308.979 124.564 309 124.538 309.015 124.509C309.029 124.481 309.038 124.449 309.041 124.417C309.043 124.385 309.039 124.352 309.029 124.322C309.018 124.291 309.002 124.263 308.981 124.238L304.753 119.449C304.713 119.409 304.661 119.383 304.605 119.376C304.548 119.369 304.491 119.38 304.442 119.409C304.393 119.438 304.355 119.482 304.335 119.534C304.315 119.586 304.313 119.644 304.331 119.697L304.325 119.695Z" fill="#0C0C0C"/>
<path opacity="0.2" d="M301.302 124.054C301.312 124.08 301.327 124.105 301.345 124.126L304.639 127.913C304.683 127.959 304.743 127.986 304.807 127.989C304.87 127.992 304.933 127.971 304.981 127.931C305.03 127.89 305.061 127.833 305.068 127.77C305.074 127.708 305.057 127.645 305.018 127.596L301.725 123.808C301.686 123.764 301.633 123.734 301.575 123.724C301.517 123.715 301.457 123.726 301.406 123.756C301.355 123.786 301.317 123.832 301.298 123.887C301.278 123.942 301.28 124.002 301.302 124.056L301.302 124.054Z" fill="#0C0C0C"/>
<path opacity="0.2" d="M298.732 129.753C298.743 129.781 298.759 129.807 298.779 129.83L300.38 131.583C300.402 131.607 300.429 131.627 300.458 131.641C300.488 131.655 300.52 131.663 300.552 131.664C300.585 131.666 300.618 131.662 300.649 131.651C300.68 131.64 300.708 131.624 300.732 131.602C300.757 131.581 300.777 131.555 300.791 131.526C300.805 131.497 300.813 131.466 300.815 131.434C300.817 131.401 300.812 131.369 300.802 131.339C300.791 131.309 300.774 131.281 300.752 131.257L299.154 129.502C299.115 129.461 299.063 129.434 299.006 129.425C298.948 129.417 298.89 129.429 298.841 129.458C298.792 129.488 298.754 129.533 298.735 129.586C298.715 129.639 298.715 129.698 298.735 129.751L298.732 129.753Z" fill="#0C0C0C"/>
<path d="M427.878 230.191L338.657 224.06C335.438 223.839 332.349 222.727 329.747 220.852C327.146 218.978 325.139 216.418 323.958 213.469L295.749 143.008L327.529 130.741L351.793 191.35L430.258 196.743L427.878 230.191Z" fill="#FFED90"/>
<path d="M479.681 570.766C479.681 570.766 476.826 585.296 462.969 586.109C449.111 586.922 452.117 597.758 452.117 597.758H505.071V571.779L479.681 570.766Z" fill="#494949"/>
<path d="M496.015 305.671C496.015 305.671 495.849 301.302 495.884 311.212C496.015 348.176 496.668 390.397 498.265 415.103C500.831 454.821 507.409 580.041 507.409 580.041L472.611 579.754L438.885 304.169L496.015 305.671Z" fill="#262626"/>
<path d="M417.733 570.766C417.733 570.766 414.878 585.296 401.02 586.109C387.163 586.922 390.168 597.758 390.168 597.758H443.123V571.779L417.733 570.766Z" fill="#494949"/>
<path d="M400.884 308.542C400.884 308.542 397.802 434.874 398.254 441.049L411.195 579.082L445.416 579.703L442.082 436.054C442.082 436.054 444.434 396.429 454.184 359.634C459.174 340.749 462.176 321.412 463.145 301.926L400.884 308.542Z" fill="#262626"/>
<path d="M496.393 305.667L496.507 305.674C496.507 305.674 496.425 303.519 496.393 305.667Z" fill="#333333"/>
<path d="M395.986 238.418C396.704 246.697 400.195 298.345 400.884 308.541H495.975C496.513 299.344 498.925 259.13 500.962 241.146C502.906 223.985 506.721 215.392 503.925 210.319C499.355 202.027 486.868 197.236 478.354 196.104C473.155 195.413 465.335 194.917 465.335 194.917C465.335 194.917 464.673 208.069 448.885 208.801C427.394 209.795 428.829 194.917 428.722 194.917C425.241 194.917 404.966 196.525 400.485 199.913C392.645 205.839 394.463 220.875 395.986 238.418Z" fill="#FFED91"/>
<path d="M394.673 228.045C394.592 228.045 394.515 228.015 394.456 227.961C394.397 227.906 394.362 227.832 394.357 227.753L393.593 214.607C393.588 214.525 393.617 214.444 393.673 214.383C393.728 214.321 393.807 214.284 393.89 214.279C393.974 214.275 394.056 214.304 394.118 214.359C394.18 214.413 394.218 214.49 394.224 214.572L394.991 227.717C394.996 227.799 394.967 227.88 394.912 227.941C394.856 228.003 394.778 228.04 394.694 228.045L394.673 228.045Z" fill="#0C0C0C"/>
<path d="M516.535 308C519.332 308 522.088 307.336 524.567 306.065C527.046 304.794 529.176 302.954 530.776 300.701C532.375 298.448 533.396 295.849 533.753 293.125C534.109 290.401 533.79 287.633 532.822 285.056C531.84 282.44 508.809 222.556 504.424 211.46L471.958 224.375C474.425 230.615 483.356 254.262 490.532 273.312L478.61 272.04L474.858 305.934L514.656 307.9C515.28 307.967 515.908 308 516.535 308Z" fill="#FFED90"/>
<path d="M417.395 193.783C417.502 193.77 420.418 204.548 443.182 202.871C458.941 201.711 462.786 191.179 463.145 191.179C461.446 190.824 458.687 190.456 457.932 190.061C455.45 188.752 453.643 187.158 452.733 183.738C452.021 181.063 451.658 170.766 451.658 165.6L427.407 170.95C427.746 176.778 430.111 190.288 421.82 192.679C420.441 193.074 418.955 193.438 417.395 193.783Z" fill="#E98862"/>
<path d="M428.248 182.407C437.808 183.148 450.088 179.185 452.421 166.661L454.526 155.36C456.858 142.836 452.05 131.481 440.044 129.324C428.035 127.168 417.168 135.708 414.836 148.232L413.903 153.235C413.007 158.041 411.191 181.086 428.248 182.407Z" fill="#E98862"/>
<path d="M419.384 170.909C421.1 162.443 421.887 156.794 421.795 150.835C419.378 146.675 420.013 141.894 420.563 139.83C418.899 140.868 416.942 141.361 414.974 141.237C414.974 141.237 418.971 125.486 432.554 121.247C435.052 120.292 441.431 119.086 449.9 120.227C457.104 121.197 474.861 126.486 477.398 146.116V146.127C477.482 146.777 479.187 164.863 482.584 173.541C487.153 185.206 493.568 188.831 493.405 202.29C493.196 219.602 460.782 221.907 441.234 220.612C421.686 219.317 410.77 213.004 410.627 200.528C410.478 186.549 415.95 187.847 419.384 170.909Z" fill="#0A0A0A"/>
<path d="M498.008 241.495L495.672 308.534L496.304 308.555L498.64 241.516L498.008 241.495Z" fill="#0C0C0C"/>
<path d="M38.2501 599H597.978C598.041 599.002 598.103 598.992 598.162 598.97C598.22 598.948 598.274 598.915 598.319 598.872C598.364 598.829 598.4 598.778 598.424 598.722C598.449 598.665 598.461 598.604 598.461 598.543C598.461 598.481 598.449 598.42 598.424 598.364C598.4 598.307 598.364 598.256 598.319 598.213C598.274 598.17 598.22 598.137 598.162 598.115C598.103 598.093 598.041 598.083 597.978 598.085H38.2501C38.1875 598.083 38.125 598.093 38.0665 598.115C38.008 598.137 37.9546 598.17 37.9095 598.213C37.8644 598.256 37.8285 598.307 37.804 598.364C37.7795 598.42 37.7668 598.481 37.7668 598.543C37.7668 598.604 37.7795 598.665 37.804 598.722C37.8285 598.778 37.8644 598.829 37.9095 598.872C37.9546 598.915 38.008 598.948 38.0665 598.97C38.125 598.992 38.1875 599.002 38.2501 599Z" fill="#292A2E"/>
<path d="M456.72 349.259C456.72 349.259 455.277 376.084 455.012 382.381C454.394 396.945 454.179 412.024 454.179 429.121L448.694 384.302C448.694 384.302 452.705 370.256 456.72 349.259Z" fill="#0A0A0A"/>
</g>
<defs>
<clipPath id="clip0_5_648">
<rect width="633" height="599" fill="white"/>
</clipPath>
</defs>
</svg>
