<svg width="356" height="456" viewBox="0 0 356 456" fill="none" xmlns="http://www.w3.org/2000/svg">
<path d="M142.04 417.614C142.04 417.614 134.559 429.334 142.718 439.081C150.877 448.827 142.084 454.161 142.084 454.161L108.92 419.007L125.493 401.445L142.04 417.614Z" fill="#494949"/>
<path d="M143.803 176.533C143.803 176.533 143.95 172.357 143.916 181.832C143.864 197.566 145.277 239.144 144.285 292.734C143.493 335.571 115.359 409.079 115.359 409.079L140.732 428.383C140.732 428.383 178.899 362.764 184.956 297.804C188.056 264.552 194.397 175.096 194.397 175.096L143.803 176.533Z" fill="#262626"/>
<path d="M222.096 429.996C222.096 429.996 224.625 443.891 236.898 444.665C249.171 445.439 246.509 455.804 246.509 455.804H199.609V430.965L222.096 429.996Z" fill="#494949"/>
<path d="M228.057 179.278C228.057 179.278 231.907 300.067 231.506 305.971L227.888 437.949L197.578 438.543L192.691 301.197C192.691 301.197 189.489 263.311 180.851 228.13C176.432 210.074 173.773 191.586 172.916 172.955L228.057 179.278Z" fill="#262626"/>
<path d="M188.072 264.917L190.599 223.948C190.599 223.948 193.196 240.98 193.196 255.661C193.196 262.836 191.801 291.247 191.801 291.247L188.072 264.917Z" fill="#0A0A0A"/>
<path d="M143.47 176.53L143.369 176.536C143.369 176.536 143.44 174.476 143.47 176.53Z" fill="#333333"/>
<path d="M143.595 176.53L143.494 176.536C143.494 176.536 143.567 174.476 143.595 176.53Z" fill="#333333"/>
<path d="M163.441 23.9414C163.441 23.9414 160.999 37.734 157.48 42.4047C147.346 55.8498 143.042 71.8746 150.587 81.488C158.132 91.1014 212.382 98.096 218.707 78.9861C224.031 62.8971 216.805 60.1788 216.536 46.3155C216.414 40.043 215.623 26.8221 215.623 26.8221" fill="#0A0A0A"/>
<path d="M207.452 71.6966C207.357 71.684 206.31 90.094 186.132 88.491C172.162 87.3817 167.181 71.6709 166.861 71.6709C168.367 71.3317 170.904 70.8379 171.572 70.4598C173.772 69.2067 176.494 67.9033 177.203 63.3747C177.611 60.7649 176.92 47.4133 177.131 44.7729L198.575 49.8463C198.276 55.423 196.178 68.3515 203.528 70.6407C204.753 71.0183 206.069 71.3664 207.452 71.6966Z" fill="#E98862"/>
<path opacity="0.52" d="M198.874 65.3558C198.538 64.2086 198.322 63.0258 198.229 61.8286C197.993 59.0961 198.04 56.3445 198.369 53.6229C194.011 52.999 189.906 51.0923 186.519 48.1192C186.124 49.6773 183.931 56.4891 184.541 57.9705C185.684 60.7709 191.072 65.3558 198.874 65.3558Z" fill="#0C0C0C"/>
<path d="M195.07 60.9075C186.578 60.7049 176.118 55.7694 175.205 43.6344L174.381 32.6852C173.467 20.5501 178.739 10.2045 189.518 9.2924C200.297 8.38092 209.094 17.5365 210.008 29.6715L210.372 34.519C210.723 39.1752 210.22 61.2695 195.07 60.9075Z" fill="#E98862"/>
<path d="M204.191 35.3268C204.926 35.3268 205.523 34.6947 205.523 33.9149C205.523 33.1352 204.926 32.5031 204.191 32.5031C203.455 32.5031 202.859 33.1352 202.859 33.9149C202.859 34.6947 203.455 35.3268 204.191 35.3268Z" fill="#0C0C0C"/>
<path d="M192.064 35.3268C192.799 35.3268 193.396 34.6947 193.396 33.9149C193.396 33.1352 192.799 32.5031 192.064 32.5031C191.328 32.5031 190.732 33.1352 190.732 33.9149C190.732 34.6947 191.328 35.3268 192.064 35.3268Z" fill="#0C0C0C"/>
<path opacity="0.52" d="M200.088 44.8005H200.11C200.546 44.76 200.98 44.6941 201.41 44.6033C202.053 44.4625 202.902 44.2048 202.856 43.5984C202.805 42.9068 200.456 35.5976 200.188 34.7664C200.164 34.6953 200.114 34.6372 200.05 34.6046C199.985 34.5719 199.911 34.5673 199.844 34.5918C199.776 34.6162 199.72 34.6678 199.688 34.7354C199.656 34.803 199.65 34.8813 199.672 34.9534C200.674 38.066 202.277 43.1789 202.312 43.6427C202.221 43.8465 201.149 44.1305 200.065 44.2222C199.995 44.2289 199.931 44.2638 199.884 44.3196C199.838 44.3755 199.814 44.448 199.817 44.5222C199.82 44.5964 199.849 44.6666 199.9 44.7183C199.95 44.77 200.017 44.7992 200.087 44.7999L200.088 44.8005Z" fill="#0C0C0C"/>
<path opacity="0.52" d="M197.805 49.752C199.553 49.7176 201.441 49.059 202.986 48.1931C203.02 48.1771 203.05 48.154 203.075 48.1253C203.1 48.0965 203.119 48.0627 203.131 48.0259C203.143 47.9891 203.149 47.95 203.146 47.911C203.144 47.872 203.134 47.8339 203.118 47.799C203.101 47.7641 203.078 47.7332 203.05 47.708C203.022 47.6828 202.989 47.6639 202.954 47.6525C202.919 47.641 202.881 47.6372 202.845 47.6414C202.808 47.6455 202.773 47.6575 202.741 47.6766C199.405 49.4576 196.282 49.4414 193.703 47.6304C193.651 47.592 193.597 47.5566 193.541 47.5244C193.477 47.4943 193.404 47.4918 193.338 47.5174C193.272 47.543 193.217 47.5946 193.186 47.6616C193.155 47.7285 193.15 47.8056 193.171 47.8767C193.192 47.9479 193.239 48.0075 193.3 48.0433C193.321 48.0553 193.357 48.0799 193.401 48.1128C194.757 49.0681 196.177 49.7624 197.805 49.752Z" fill="#0C0C0C"/>
<path d="M165.549 35.4586L175.206 34.7005C182.69 32.4443 186.198 19.5344 186.198 19.5344C186.198 19.5344 193.993 29.5295 215.623 26.8238C215.623 26.8238 214.565 -4.8658 182.456 0.643223C172.102 2.42004 163.792 12.3366 163.231 26.7957C162.837 36.9262 165.549 35.4586 165.549 35.4586Z" fill="#0A0A0A"/>
<path d="M176.152 47.2749C172.877 47.5517 169.942 44.0616 169.68 40.5895C169.418 37.1174 171.93 34.978 175.206 34.7005L177.071 36.8849L178.971 47.0364L176.152 47.2749Z" fill="#E98862"/>
<path d="M202.702 29.3024C203.704 28.7682 204.823 28.5297 205.941 28.612C206.492 28.6488 207.035 28.773 207.551 28.9806C208.061 29.1824 208.546 29.4516 208.993 29.7818C209.058 29.8242 209.103 29.8918 209.12 29.9699C209.137 30.0479 209.125 30.13 209.085 30.198C209.045 30.266 208.981 30.3144 208.907 30.3326C208.834 30.3507 208.756 30.3371 208.692 30.2948L208.673 30.2828C208.257 30.0031 207.809 29.7802 207.34 29.6194C206.877 29.4579 206.394 29.3712 205.907 29.3623C204.94 29.3388 203.984 29.5869 203.136 30.0814L203.109 30.0982C203.01 30.158 202.893 30.1738 202.784 30.1421C202.674 30.1105 202.581 30.034 202.525 29.9295C202.468 29.825 202.453 29.7011 202.483 29.5849C202.513 29.4688 202.585 29.3699 202.684 29.3102L202.702 29.3024Z" fill="#0C0C0C"/>
<path d="M194.043 30.441C193.134 30.092 192.154 30.0039 191.203 30.1857C190.722 30.2742 190.257 30.4388 189.823 30.6741C189.383 30.91 188.973 31.2033 188.602 31.5472L188.586 31.5622C188.557 31.5882 188.525 31.608 188.489 31.6205C188.453 31.633 188.416 31.638 188.379 31.6351C188.341 31.6322 188.305 31.6216 188.271 31.6038C188.238 31.586 188.208 31.5614 188.184 31.5314C188.159 31.5013 188.14 31.4665 188.129 31.4288C188.117 31.3911 188.112 31.3514 188.115 31.3118C188.117 31.2722 188.128 31.2335 188.144 31.1981C188.161 31.1626 188.184 31.131 188.213 31.105C188.607 30.7041 189.047 30.3572 189.523 30.0725C190.002 29.7832 190.52 29.5719 191.059 29.4456C192.152 29.1815 193.292 29.2341 194.36 29.5978C194.464 29.6381 194.55 29.7201 194.599 29.8264C194.648 29.9328 194.655 30.055 194.62 30.1673C194.586 30.2795 194.511 30.3729 194.412 30.4276C194.313 30.4823 194.198 30.494 194.091 30.4602L194.074 30.4536L194.043 30.441Z" fill="#0C0C0C"/>
<path d="M175.239 34.5758L175.174 34.287C187.635 31.0935 185.972 18.2783 185.953 18.1489L186.23 18.1045C186.249 18.2363 187.954 31.3171 175.239 34.5758Z" fill="#0C0C0C"/>
<path opacity="0.1" d="M191.486 44.7034C192.887 44.7034 194.023 43.8201 194.023 42.7306C194.023 41.6411 192.887 40.7578 191.486 40.7578C190.085 40.7578 188.949 41.6411 188.949 42.7306C188.949 43.8201 190.085 44.7034 191.486 44.7034Z" fill="#0C0C0C"/>
<path opacity="0.1" d="M206.566 42.259C206.566 43.3473 207.705 44.23 209.106 44.2324C209.348 44.2321 209.59 44.2054 209.827 44.1527C210.035 42.8816 210.178 41.6519 210.271 40.5085C209.898 40.3581 209.503 40.2829 209.105 40.2868C207.704 40.2844 206.568 41.1677 206.566 42.259Z" fill="#0C0C0C"/>
<path d="M232.523 112.232C231.887 120.147 228.795 169.529 228.184 179.278H143.964C143.488 170.484 141.352 132.035 139.548 114.84C137.825 98.4315 134.446 90.2168 136.923 85.3657C140.97 77.4375 152.03 72.8567 159.57 71.7745C164.175 71.1153 171.103 70.6395 171.103 70.6395C171.103 70.6395 171.689 83.2144 185.672 83.9143C204.707 84.866 203.436 70.6395 203.53 70.6395C206.614 70.6395 224.229 72.7087 228.539 75.4168C240.281 82.7883 233.872 95.4609 232.523 112.232Z" fill="#ABCBFF"/>
<path d="M296.537 126.703C296.634 126.42 296.784 126.161 296.979 125.941C297.173 125.721 297.408 125.546 297.669 125.426C297.93 125.305 298.211 125.243 298.495 125.241C298.779 125.24 299.061 125.301 299.323 125.419C299.822 125.665 300.214 126.104 300.419 126.645C300.625 127.186 300.629 127.79 300.431 128.335L299.47 131.151L305.524 124.607C306.277 123.768 307.706 123.252 308.537 124.208C309.256 124.934 310.919 125.159 311.19 126.52C311.199 126.527 311.182 138.984 310.484 139.763C307.522 143.059 300.365 143.697 296.37 142.024L290.084 139.387L296.537 126.703Z" fill="#E98862"/>
<g opacity="0.1">
<path opacity="0.1" d="M296.537 126.703C296.634 126.42 296.784 126.161 296.979 125.941C297.173 125.721 297.408 125.546 297.669 125.426C297.93 125.305 298.211 125.243 298.495 125.241C298.779 125.24 299.061 125.301 299.323 125.419C299.822 125.665 300.214 126.104 300.419 126.645C300.625 127.186 300.629 127.79 300.431 128.335L299.47 131.151L305.524 124.607C306.277 123.768 307.706 123.252 308.537 124.208C309.256 124.934 310.919 125.159 311.19 126.52C311.199 126.527 311.182 138.984 310.484 139.763C307.522 143.059 300.365 143.697 296.37 142.024L290.084 139.387L296.537 126.703Z" fill="#0C0C0C"/>
</g>
<path d="M322.623 177.476L214.601 194.59C212.546 194.916 210.446 194.651 208.52 193.822C206.595 192.994 204.914 191.633 203.654 189.881C202.395 188.129 201.602 186.051 201.358 183.864C201.115 181.676 201.43 179.459 202.27 177.445L243.543 78.5473C244.334 76.6512 245.565 74.9979 247.121 73.7409C248.676 72.484 250.507 71.6641 252.441 71.3576C254.376 71.0511 256.352 71.2678 258.187 71.9876C260.021 72.7074 261.654 73.907 262.934 75.4749L329.684 157.258C331.044 158.924 331.957 160.946 332.327 163.113C332.698 165.281 332.513 167.514 331.791 169.58C331.07 171.645 329.838 173.468 328.225 174.857C326.613 176.246 324.678 177.15 322.623 177.476Z" fill="#FAFAFA"/>
<path opacity="0.48" d="M322.623 177.476L214.601 194.59C212.546 194.916 210.446 194.651 208.52 193.822C206.595 192.994 204.914 191.633 203.654 189.881C202.395 188.129 201.602 186.051 201.358 183.864C201.115 181.676 201.43 179.459 202.27 177.445L243.543 78.5473C244.334 76.6512 245.565 74.9979 247.121 73.7409C248.676 72.484 250.507 71.6641 252.441 71.3576C254.376 71.0511 256.352 71.2678 258.187 71.9876C260.021 72.7074 261.654 73.907 262.934 75.4749L329.684 157.258C331.044 158.924 331.957 160.946 332.327 163.113C332.698 165.281 332.513 167.514 331.791 169.58C331.07 171.645 329.838 173.468 328.225 174.857C326.613 176.246 324.678 177.15 322.623 177.476Z" fill="white"/>
<path d="M212.82 195.031C210.846 195.018 208.907 194.485 207.176 193.48C205.445 192.474 203.977 191.028 202.905 189.271C201.833 187.515 201.19 185.503 201.034 183.417C200.878 181.332 201.214 179.238 202.012 177.324L243.284 78.4269C244.095 76.4842 245.356 74.7903 246.949 73.5024C248.543 72.2145 250.418 71.3745 252.4 71.0604C254.382 70.7464 256.406 70.9684 258.286 71.7059C260.165 72.4434 261.838 73.6725 263.149 75.2789L329.898 157.062C331.291 158.768 332.226 160.84 332.606 163.06C332.985 165.281 332.795 167.568 332.056 169.684C331.317 171.8 330.055 173.667 328.403 175.09C326.75 176.513 324.768 177.439 322.662 177.772L214.64 194.887C214.038 194.983 213.429 195.031 212.82 195.031ZM254.181 71.5186C253.613 71.5188 253.046 71.5637 252.485 71.6528C250.595 71.9468 248.807 72.7448 247.289 73.9721C245.77 75.1994 244.57 76.8156 243.802 78.669L202.533 177.566C201.712 179.531 201.405 181.694 201.643 183.828C201.88 185.963 202.654 187.99 203.883 189.699C205.112 191.408 206.752 192.736 208.63 193.545C210.509 194.353 212.558 194.612 214.563 194.294L322.584 177.18C324.589 176.862 326.477 175.98 328.051 174.625C329.624 173.269 330.826 171.491 331.53 169.476C332.234 167.461 332.415 165.282 332.053 163.167C331.692 161.053 330.801 159.079 329.475 157.454L262.721 75.6709C261.664 74.3677 260.353 73.322 258.879 72.6053C257.405 71.8887 255.803 71.518 254.181 71.5186Z" fill="#0C0C0C"/>
<path d="M252.339 117.731L249.99 104.466L263.946 102.255L265.36 115.667L267.75 146.676L258.61 148.124L252.339 117.731ZM256.911 163.886C256.17 158.629 259.176 154.009 264.001 153.244C268.825 152.48 272.977 155.966 273.718 161.223C274.453 166.445 271.448 171.064 266.622 171.83C261.795 172.596 257.648 169.11 256.911 163.886Z" fill="#FD5D76" fill-opacity="0.8"/>
<path d="M304.239 136.484C304.16 136.097 304.202 135.693 304.359 135.334C304.517 134.975 304.78 134.68 305.11 134.494C305.092 134.469 305.031 134.42 305.074 134.389L303.645 134.445C303.225 134.471 302.809 134.335 302.476 134.062C302.143 133.789 301.914 133.397 301.832 132.959C301.764 132.524 301.852 132.077 302.077 131.706C302.302 131.335 302.649 131.066 303.051 130.951C303.039 130.939 303.038 130.919 303.03 130.903L302.442 130.926C302.046 130.949 301.654 130.826 301.333 130.578C301.013 130.33 300.783 129.972 300.682 129.564C300.624 129.308 300.621 129.041 300.672 128.782C300.723 128.524 300.828 128.281 300.978 128.071C301.129 127.861 301.322 127.688 301.542 127.567C301.763 127.445 302.007 127.377 302.256 127.367L303.613 127.314C303.613 127.306 303.604 127.302 303.604 127.294C303.603 127.286 303.611 127.276 303.613 127.267C303.238 127.192 302.899 126.985 302.65 126.68C302.401 126.374 302.258 125.988 302.243 125.584C302.142 124.545 303.196 123.906 304.073 123.874L306.843 123.994C307.27 124.013 307.686 124.143 308.054 124.373C308.422 124.603 308.731 124.926 308.953 125.313C310.875 128.662 315.702 137.538 312.905 137.648L306.021 137.918C305.616 137.923 305.221 137.785 304.898 137.525C304.575 137.266 304.343 136.899 304.239 136.484Z" fill="#E98862"/>
<path d="M233.195 151.092C233.169 150.656 233.016 150.24 232.757 149.9C232.497 149.561 232.145 149.315 231.749 149.197C231.766 149.163 231.774 149.124 231.769 149.086C231.761 149.054 231.746 149.025 231.724 149.002C231.702 148.979 231.675 148.962 231.645 148.953L233.301 148.564C233.791 148.46 234.229 148.172 234.534 147.753C234.839 147.334 234.991 146.811 234.961 146.283C234.916 145.761 234.69 145.277 234.326 144.922C233.963 144.568 233.488 144.369 232.995 144.365C233.005 144.347 233 144.324 233.006 144.305L233.684 144.145C234.146 144.046 234.561 143.78 234.86 143.394C235.158 143.007 235.321 142.523 235.321 142.024C235.315 141.711 235.243 141.403 235.111 141.123C234.98 140.843 234.791 140.597 234.559 140.404C234.327 140.21 234.057 140.074 233.769 140.004C233.481 139.935 233.182 139.933 232.894 140.001L231.325 140.371C231.325 140.361 231.331 140.354 231.329 140.345C231.328 140.336 231.315 140.328 231.312 140.316C231.72 140.112 232.051 139.767 232.25 139.337C232.449 138.908 232.504 138.419 232.407 137.952C232.229 136.727 230.84 136.334 229.825 136.573L220.666 138.551L222.84 136.867C223.269 136.548 223.568 136.068 223.677 135.524C223.785 134.98 223.695 134.413 223.424 133.937C223.276 133.697 223.084 133.491 222.858 133.332C222.633 133.173 222.379 133.064 222.113 133.012C221.847 132.96 221.573 132.967 221.309 133.031C221.045 133.095 220.796 133.215 220.578 133.385L208.711 142.579C207.319 143.657 206.379 145.268 206.09 147.07C205.801 148.871 206.186 150.721 207.163 152.227C208.297 153.973 209.897 155.32 211.758 156.096C213.619 156.872 215.656 157.041 217.608 156.582L231.559 153.3C232.027 153.181 232.443 152.898 232.74 152.497C233.037 152.097 233.197 151.601 233.195 151.092Z" fill="#E98862"/>
<g opacity="0.25">
<path opacity="0.25" d="M222.261 142.323C222.272 142.373 222.301 142.416 222.341 142.444C222.382 142.471 222.431 142.481 222.478 142.471L231.184 140.578C231.208 140.572 231.23 140.562 231.25 140.548C231.27 140.534 231.287 140.515 231.3 140.494C231.314 140.473 231.323 140.449 231.327 140.423C231.332 140.398 231.332 140.373 231.327 140.347C231.322 140.322 231.313 140.299 231.299 140.277C231.286 140.256 231.268 140.238 231.248 140.224C231.228 140.21 231.205 140.2 231.182 140.195C231.158 140.191 231.134 140.191 231.11 140.196L222.404 142.088C222.356 142.099 222.314 142.129 222.287 142.172C222.26 142.216 222.251 142.268 222.261 142.319L222.261 142.323Z" fill="#0C0C0C"/>
</g>
<g opacity="0.25">
<path opacity="0.25" d="M222.943 146.415C222.954 146.465 222.982 146.508 223.023 146.535C223.063 146.563 223.112 146.573 223.159 146.562L232.878 144.45C232.926 144.439 232.967 144.409 232.994 144.366C233.021 144.323 233.031 144.27 233.021 144.219C233.01 144.17 232.981 144.126 232.941 144.098C232.9 144.07 232.851 144.059 232.804 144.068L223.085 146.18C223.038 146.191 222.996 146.221 222.969 146.264C222.942 146.307 222.933 146.36 222.942 146.411L222.943 146.415Z" fill="#0C0C0C"/>
</g>
<g opacity="0.25">
<path opacity="0.25" d="M223.658 150.854C223.668 150.903 223.697 150.946 223.737 150.974C223.778 151.002 223.827 151.011 223.874 151.001L231.626 149.316C231.674 149.306 231.716 149.275 231.743 149.232C231.769 149.189 231.779 149.136 231.769 149.086C231.759 149.035 231.731 148.991 231.69 148.962C231.649 148.934 231.6 148.924 231.552 148.934L223.8 150.619C223.776 150.625 223.753 150.635 223.733 150.649C223.713 150.663 223.696 150.682 223.683 150.703C223.67 150.724 223.661 150.748 223.656 150.773C223.651 150.799 223.652 150.824 223.656 150.849L223.658 150.854Z" fill="#0C0C0C"/>
</g>
<path d="M216.747 162.437L141.055 176.939C138.693 177.212 136.304 176.9 134.075 176.029C131.845 175.159 129.836 173.752 128.206 171.92C126.576 170.088 125.368 167.881 124.678 165.471C123.987 163.061 123.833 160.514 124.227 158.031L134.824 91.2661C135.149 89.1451 135.865 87.113 136.933 85.2867C138.001 83.4604 139.4 81.8759 141.047 80.6245C142.695 79.3731 144.56 78.4793 146.535 77.9947C148.51 77.5101 150.556 77.4442 152.555 77.8007C154.554 78.1572 156.466 78.9292 158.183 80.0721C159.899 81.2151 161.386 82.7066 162.556 84.4607C163.727 86.2148 164.559 88.197 165.005 90.2932C165.45 92.3894 165.5 94.5583 165.152 96.675L157.926 142.633L213.419 135.245L216.747 162.437Z" fill="#ABCBFF"/>
<path d="M141.055 177.233C140.988 177.228 140.925 177.198 140.877 177.148C140.829 177.098 140.8 177.032 140.794 176.961C140.788 176.89 140.806 176.819 140.845 176.761C140.884 176.703 140.941 176.662 141.006 176.644L216.435 162.195L213.177 135.577L157.961 142.927C157.917 142.933 157.873 142.929 157.832 142.913C157.791 142.898 157.754 142.872 157.724 142.839C157.694 142.805 157.671 142.765 157.658 142.721C157.645 142.676 157.642 142.63 157.649 142.584L162.243 113.21C162.263 113.141 162.306 113.082 162.364 113.044C162.422 113.006 162.491 112.992 162.558 113.004C162.626 113.016 162.687 113.053 162.73 113.109C162.774 113.164 162.797 113.235 162.795 113.307L158.263 142.289L213.384 134.951C213.457 134.941 213.531 134.963 213.59 135.011C213.648 135.059 213.687 135.129 213.697 135.207L217.025 162.399C217.034 162.474 217.015 162.55 216.973 162.611C216.931 162.673 216.869 162.715 216.799 162.729L141.107 177.232C141.09 177.233 141.072 177.234 141.055 177.233Z" fill="#0C0C0C"/>
<path d="M157.882 142.339L153.014 143.166L153.102 143.753L157.971 142.926L157.882 142.339Z" fill="#0C0C0C"/>
<circle cx="173" cy="47" r="3" stroke="#FFD702" stroke-width="2"/>
<path d="M314.015 456.097H64.4359C64.32 456.097 64.2089 456.049 64.1269 455.962C64.0449 455.875 63.9989 455.757 63.9989 455.634C63.9989 455.511 64.0449 455.393 64.1269 455.307C64.2089 455.22 64.32 455.171 64.4359 455.171H314.015C314.131 455.171 314.242 455.22 314.324 455.307C314.406 455.393 314.452 455.511 314.452 455.634C314.452 455.757 314.406 455.875 314.324 455.962C314.242 456.049 314.131 456.097 314.015 456.097Z" fill="#3F3F3F"/>
<path d="M80.9851 309.837L7.77361 309.785C6.38082 309.784 5.01389 309.386 3.81551 308.634C2.61713 307.881 1.63124 306.802 0.960779 305.508C0.290314 304.214 -0.0401485 302.753 0.00389119 301.277C0.0479309 299.801 0.464857 298.365 1.21115 297.119L37.8553 235.917C38.5581 234.744 39.5292 233.778 40.6785 233.109C41.8278 232.439 43.1181 232.089 44.4293 232.09C45.7406 232.091 47.0304 232.443 48.1788 233.114C49.3273 233.785 50.2972 234.752 50.9984 235.927L87.5651 297.181C88.3098 298.428 88.7249 299.865 88.767 301.341C88.809 302.817 88.4766 304.277 87.8043 305.57C87.132 306.864 86.1446 307.942 84.9451 308.692C83.7456 309.443 82.378 309.838 80.9851 309.837Z" fill="white"/>
<path d="M38.7062 293.898C38.7062 290.335 41.1371 287.591 44.4059 287.593C47.6747 287.595 50.1 290.344 50.0978 293.907C50.0978 297.445 47.6668 300.19 44.3986 300.188C41.1304 300.185 38.7039 297.438 38.7062 293.898ZM40.0099 262.821L39.6983 253.781L49.157 253.788L48.8325 262.827L47.5051 283.634L41.3135 283.629L40.0099 262.821Z" fill="#CBCBCB"/>
<path d="M109.574 108.953L50.6529 108.911C49.5318 108.91 48.4316 108.59 47.4669 107.985C46.5023 107.379 45.7087 106.51 45.169 105.469C44.6293 104.427 44.3632 103.251 44.3986 102.064C44.4341 100.876 44.7696 99.7201 45.3703 98.7168L74.8624 49.461C75.4279 48.5164 76.2094 47.7387 77.1343 47.2001C78.0593 46.6614 79.0977 46.3794 80.153 46.3801C81.2084 46.3808 82.2464 46.6643 83.1708 47.2042C84.0951 47.7441 84.8756 48.5229 85.4399 49.4682L114.869 98.7665C115.469 99.7706 115.803 100.927 115.837 102.115C115.871 103.302 115.604 104.478 115.063 105.519C114.522 106.56 113.727 107.427 112.761 108.031C111.796 108.635 110.695 108.954 109.574 108.953Z" fill="white"/>
<path d="M75.5487 96.1267C75.5857 95.1742 75.8859 94.2541 76.4122 93.481C76.9385 92.7079 77.6676 92.1158 78.5089 91.7785C79.3501 91.4411 80.2663 91.3733 81.1436 91.5836C82.0208 91.7938 82.8204 92.2728 83.443 92.9609C84.0655 93.649 84.4834 94.5159 84.6448 95.4539C84.8062 96.3918 84.7039 97.3593 84.3506 98.236C83.9974 99.1128 83.4087 99.8602 82.658 100.385C81.9072 100.91 81.0274 101.19 80.128 101.189C79.5103 101.188 78.8991 101.054 78.3311 100.797C77.7631 100.539 77.25 100.163 76.8224 99.6904C76.3949 99.2178 76.0617 98.6586 75.8428 98.0462C75.624 97.4339 75.5239 96.781 75.5487 96.1267ZM76.598 71.1183L76.3464 63.8433L83.9582 63.8493L83.6987 71.1231L82.6308 87.8677L77.645 87.8641L76.598 71.1183Z" fill="#CBCBCB"/>
<path d="M349.161 367.65L284.862 367.604C283.638 367.603 282.437 367.254 281.384 366.594C280.331 365.933 279.465 364.985 278.876 363.848C278.287 362.712 277.996 361.428 278.035 360.132C278.073 358.835 278.44 357.574 279.095 356.479L311.28 302.725C311.897 301.694 312.75 300.846 313.76 300.258C314.769 299.67 315.903 299.362 317.055 299.363C318.206 299.364 319.339 299.673 320.348 300.263C321.357 300.852 322.209 301.702 322.824 302.733L354.941 356.532C355.595 357.628 355.96 358.89 355.997 360.187C356.034 361.483 355.742 362.766 355.151 363.902C354.561 365.038 353.694 365.985 352.64 366.644C351.586 367.303 350.385 367.651 349.161 367.65Z" fill="white"/>
<path d="M312.031 353.653C312.031 350.524 314.164 348.114 317.037 348.116C319.909 348.119 322.036 350.531 322.035 353.661C322.057 354.372 321.944 355.081 321.702 355.745C321.46 356.409 321.095 357.015 320.628 357.526C320.161 358.038 319.601 358.444 318.983 358.722C318.364 358.999 317.7 359.142 317.028 359.142C316.356 359.141 315.692 358.997 315.074 358.719C314.456 358.441 313.897 358.033 313.43 357.521C312.964 357.009 312.599 356.403 312.358 355.738C312.117 355.074 312.005 354.365 312.028 353.653H312.031ZM313.176 326.36L312.902 318.421L321.209 318.427L320.926 326.365L319.76 344.639L314.316 344.634L313.176 326.36Z" fill="#CBCBCB"/>
</svg>
