<svg width="795" height="539" viewBox="0 0 795 539" fill="none" xmlns="http://www.w3.org/2000/svg">
<rect y="71" width="795" height="297" rx="16" fill="white"/>
<path d="M536.905 64C489.836 64 470.171 74.8691 497.351 124.247C524.531 173.625 607.055 224.493 632.696 165.396C649.537 126.579 599.62 64 536.905 64Z" fill="#F3F5FD"/>
<path d="M198.82 258C171.592 258 123.357 288.921 139.08 335.086C154.803 381.251 185.266 389.531 208.456 353.877C218.197 317.586 235.1 258 198.82 258Z" fill="#F3F5FD"/>
<path d="M267.926 34.655V46.3031H216.247C210.771 46.3033 205.518 48.5518 201.646 52.5542C197.773 56.5565 195.596 61.985 195.595 67.6459V449.652C195.595 455.314 197.771 460.744 201.644 464.747C205.517 468.751 210.77 471 216.247 471H492.144C494.856 471.001 497.542 470.449 500.048 469.376C502.554 468.304 504.831 466.731 506.748 464.749C508.666 462.766 510.187 460.413 511.225 457.822C512.263 455.232 512.797 452.456 512.796 449.652V67.6459C512.795 61.9849 510.618 56.5562 506.745 52.5537C502.872 48.5513 497.62 46.3029 492.144 46.3031H440.464V34.655C440.464 32.6801 440.088 30.7246 439.357 28.8999C438.627 27.0753 437.555 25.4173 436.205 24.0207C434.854 22.6241 433.25 21.5162 431.485 20.7603C429.72 20.0044 427.828 19.6152 425.918 19.6151H282.473C280.562 19.6152 278.67 20.0043 276.905 20.7602C275.14 21.5161 273.537 22.624 272.186 24.0206C270.835 25.4172 269.764 27.0752 269.033 28.8999C268.302 30.7245 267.926 32.6801 267.926 34.655Z" fill="#C1D8ED"/>
<path d="M214.695 73.7058L214.695 443.593C214.695 448.9 218.857 453.202 223.991 453.202H484.398C489.532 453.202 493.694 448.9 493.694 443.593V73.7058C493.694 68.3991 489.532 64.0972 484.398 64.0972H223.991C218.857 64.0972 214.695 68.3991 214.695 73.7058Z" fill="#FAFAFA"/>
<path d="M286.431 46.9485V81.2474C286.431 84.8556 289.26 87.7805 292.751 87.7805L415.64 87.7805C419.13 87.7805 421.96 84.8556 421.96 81.2474V46.9485C421.96 43.3403 419.13 40.4154 415.64 40.4154L292.751 40.4154C289.26 40.4154 286.431 43.3403 286.431 46.9485Z" fill="#F5E6CA"/>
<path d="M275.97 113.763C268.727 105.96 256.736 107.714 249.187 115.201L248.711 115.691L248.198 115.161C240.806 107.509 228.811 105.488 221.409 113.129C219.649 114.946 218.252 117.104 217.298 119.479C216.345 121.854 215.853 124.399 215.851 126.971C215.849 129.542 216.337 132.089 217.288 134.465C218.238 136.842 219.632 139.001 221.39 140.821L248.695 168.543C248.717 168.565 248.745 168.577 248.775 168.577C248.805 168.577 248.833 168.565 248.854 168.543L275.97 140.873C279.353 137.227 281.242 132.371 281.242 127.318C281.242 122.266 279.353 117.409 275.97 113.763Z" fill="#F54748"/>
<path d="M255.846 139.235C255.586 139.236 255.332 139.315 255.114 139.46C254.896 139.606 254.722 139.813 254.614 140.057L252.313 145.338L249.054 123.354C249.005 123.033 248.848 122.739 248.612 122.524C248.375 122.309 248.073 122.186 247.758 122.176C247.447 122.177 247.145 122.285 246.9 122.483C246.655 122.681 246.481 122.958 246.405 123.27L242.485 141.578L241.532 140.37C241.406 140.21 241.247 140.082 241.067 139.994C240.887 139.905 240.69 139.859 240.491 139.859H219.577L220.653 141.072C220.731 141.161 220.813 141.245 220.899 141.334L222.192 142.647H239.846L242.146 145.568C242.306 145.772 242.518 145.925 242.758 146.01C242.998 146.095 243.256 146.108 243.503 146.049C243.75 145.989 243.976 145.858 244.154 145.672C244.332 145.485 244.456 145.25 244.511 144.994L247.482 131.143L250.337 150.413C250.377 150.7 250.505 150.968 250.702 151.176C250.898 151.384 251.154 151.522 251.431 151.57C251.51 151.587 251.591 151.596 251.671 151.594C251.931 151.593 252.185 151.515 252.402 151.37C252.62 151.224 252.793 151.017 252.9 150.772L256.716 142.018H275.835L276.473 141.367C276.758 141.059 277.034 140.743 277.299 140.421L278.278 139.229L255.846 139.235Z" fill="white"/>
<path d="M81.0145 170.781L80.4686 170.846H63.2186C64.6184 168.444 66.1302 163.734 65.4303 154.929L76.6149 152.788C76.6149 152.788 75.3522 166.447 81.0145 170.781Z" fill="#E98862"/>
<path opacity="0.15" d="M78.7209 167.928L69.4317 160.581L76.7276 160.503C76.939 163.085 77.6151 165.603 78.7209 167.928Z" fill="black"/>
<path d="M59.0849 149.024C59.8597 153.647 62.2996 158.023 66.2436 159.515C70.5428 161.278 75.194 161.928 79.7918 161.407C92.0332 160.369 89.6115 131.599 83.8002 126.009C77.9888 120.42 60.932 123.96 58.8574 133.307C57.7845 138.143 58.3486 144.625 59.0849 149.024Z" fill="#E98862"/>
<path d="M87.838 127.004C87.4726 126.405 86.9608 125.916 86.3542 125.586C80.9179 122.531 70.8441 121.474 66.0056 122.97C60.3923 124.706 53.354 129.57 55.157 141.365C55.2333 141.862 55.3152 142.34 55.3999 142.812C53.627 142.499 51.805 142.696 50.1334 143.382C48.4618 144.068 47.0051 145.216 45.9229 146.701C44.8406 148.186 44.1746 149.95 43.9978 151.8C43.8209 153.65 44.1401 155.515 44.9203 157.19C45.7005 158.865 46.9117 160.286 48.4211 161.296C49.9305 162.307 51.6799 162.869 53.4778 162.921C55.2756 162.972 57.0525 162.511 58.6137 161.588C60.1749 160.665 61.4603 159.316 62.329 157.688C63.1617 158.432 64.0612 159.091 65.0152 159.658C65.6851 160.07 65.8474 159.735 66.0798 158.966C66.8917 156.282 67.6896 145.663 67.0527 137.952L80.2432 137.481L82.5417 130.722L84.4252 137.481H88.9179C89.5205 133.816 90.1421 129.665 87.838 127.004Z" fill="#0F1011"/>
<path d="M76.596 145.464C77.1561 145.464 77.6102 144.995 77.6102 144.416C77.6102 143.837 77.1561 143.367 76.596 143.367C76.0359 143.367 75.5818 143.837 75.5818 144.416C75.5818 144.995 76.0359 145.464 76.596 145.464Z" fill="#0F1011"/>
<path d="M84.5967 144.786C85.1568 144.786 85.6109 144.317 85.6109 143.738C85.6109 143.159 85.1568 142.689 84.5967 142.689C84.0366 142.689 83.5825 143.159 83.5825 143.738C83.5825 144.317 84.0366 144.786 84.5967 144.786Z" fill="#0F1011"/>
<path d="M86.3541 141.504H86.3485L83.6616 141.469C83.599 141.468 83.5371 141.455 83.4794 141.43C83.4218 141.405 83.3694 141.368 83.3255 141.322C83.2815 141.276 83.2467 141.222 83.2232 141.162C83.1996 141.102 83.1877 141.038 83.1881 140.973C83.1885 140.908 83.2013 140.844 83.2256 140.785C83.2499 140.725 83.2854 140.671 83.3299 140.626C83.3745 140.58 83.4273 140.544 83.4852 140.52C83.5432 140.495 83.6053 140.483 83.6679 140.484H83.6735L86.3604 140.519C86.4836 140.525 86.5999 140.579 86.6848 140.672C86.7698 140.764 86.8168 140.887 86.8159 141.014C86.8151 141.142 86.7666 141.264 86.6804 141.355C86.5943 141.447 86.4774 141.5 86.3541 141.504Z" fill="#0F1011"/>
<path d="M74.4067 142.517C74.2901 142.516 74.1777 142.472 74.0907 142.392C74.0037 142.311 73.9481 142.201 73.9345 142.081C73.9209 141.962 73.9502 141.841 74.0168 141.742C74.0834 141.643 74.1828 141.573 74.2961 141.545L76.9445 140.886C77.0663 140.859 77.1935 140.882 77.2989 140.95C77.4044 141.019 77.4797 141.127 77.5088 141.252C77.5379 141.377 77.5184 141.509 77.4546 141.62C77.3907 141.731 77.2875 141.811 77.1671 141.844L74.5186 142.503C74.4819 142.512 74.4444 142.516 74.4067 142.517Z" fill="#0F1011"/>
<path d="M71.32 146.981C71.3961 148.146 71.0253 149.296 70.2881 150.181C69.5508 151.065 68.5062 151.615 67.3802 151.71C66.2542 151.805 65.1372 151.438 64.2708 150.688C63.4044 149.939 62.8582 148.867 62.7503 147.705C62.6944 147.121 62.7526 146.532 62.9216 145.972C63.0905 145.412 63.3668 144.893 63.7338 144.446C64.1008 143.999 64.5511 143.633 65.058 143.369C65.5648 143.106 66.1177 142.95 66.6838 142.912C69.748 142.812 71.1276 144.535 71.32 146.981Z" fill="#E98862"/>
<g opacity="0.15">
<path opacity="0.15" d="M81.0978 150.23C81.014 150.23 80.9329 150.199 80.8694 150.143C80.8058 150.086 80.764 150.008 80.7515 149.922C80.7391 149.837 80.7568 149.749 80.8015 149.676C80.8461 149.603 80.9148 149.548 80.9949 149.523L83.0576 148.868L81.6151 145.547C81.5805 145.46 81.5799 145.362 81.6136 145.275C81.6473 145.188 81.7125 145.117 81.7955 145.079C81.8784 145.04 81.9726 145.037 82.0581 145.069C82.1436 145.101 82.2136 145.166 82.2534 145.251L83.8583 148.945C83.8786 148.992 83.8891 149.043 83.8891 149.094C83.889 149.146 83.8784 149.196 83.858 149.243C83.8375 149.29 83.8077 149.331 83.7704 149.365C83.7332 149.399 83.6894 149.424 83.642 149.44L81.2007 150.214C81.1674 150.225 81.1327 150.23 81.0978 150.23Z" fill="black"/>
</g>
<path d="M77.0649 152.672C77.0649 152.672 80.8088 153.08 83.4341 152.132C83.4341 152.132 83.4131 154.681 80.4511 154.932C77.4891 155.183 77.0649 152.672 77.0649 152.672Z" fill="#F8FCFF"/>
<path d="M39.2116 342.882H106.974L93.298 250.827L47.0828 254.106L39.2116 342.882Z" fill="#DEE8F5"/>
<path opacity="0.07" d="M39.2116 342.882H106.974L93.298 250.827L47.0828 254.106L39.2116 342.882Z" fill="#0F1011"/>
<path d="M107.893 463.176L93.298 461.381C93.9552 455.671 94.6978 448.811 94.7482 447.687C94.7482 447.759 94.7482 447.818 94.7482 447.864H109.446C109.443 448.317 109.443 449.703 107.893 463.176Z" fill="#E98862"/>
<path d="M49.3274 464.989L34.6293 464.939C34.6293 464.939 34.679 449.251 34.679 447.864H49.3771C49.3771 449.255 49.3274 464.989 49.3274 464.989Z" fill="#E98862"/>
<path d="M87.4229 458.375L113.315 457.919C112.1 426.063 112.025 392.647 111.645 360.714C106.592 326.295 104.63 285.529 98.3926 251.357H42.7532C42.7532 251.357 34.0043 407.492 30.8414 457.512L56.6464 459.766C61.2959 410.724 69.1909 345.777 73.6165 294.257C78.6978 319.339 81.4555 338.8 85.8747 363.668C86.7587 394.797 87.5055 427.338 87.4229 458.375Z" fill="#343F56"/>
<path d="M67.1955 470.865C67.5907 470.863 67.9814 470.777 68.343 470.612C68.7046 470.447 69.0295 470.207 69.2972 469.906C69.565 469.605 69.7698 469.251 69.8991 468.865C70.0283 468.479 70.0791 468.069 70.0483 467.662C70.0057 467.097 69.808 466.557 69.4784 466.105C69.1488 465.652 68.7011 465.307 68.1879 465.109L51.08 459.185C50.7486 459.072 50.3974 459.034 50.0504 459.074C49.7035 459.114 49.369 459.231 49.0699 459.417C46.7179 461.104 43.9045 461.966 41.0433 461.877C38.8147 461.713 36.6754 460.905 34.8694 459.546C34.7107 459.411 34.5182 459.326 34.3145 459.3C34.1107 459.274 33.904 459.309 33.7186 459.4C33.5331 459.491 33.3766 459.635 33.2671 459.814C33.1577 459.994 33.1 460.202 33.1007 460.414V469.061C33.1007 469.316 33.1494 469.569 33.2441 469.804C33.3388 470.04 33.4775 470.254 33.6524 470.434C33.8273 470.614 34.0348 470.756 34.2631 470.853C34.4914 470.95 34.7359 471 34.9827 470.999L67.1955 470.865Z" fill="#C1D8ED"/>
<path d="M125.801 470.865C126.196 470.863 126.587 470.777 126.949 470.612C127.31 470.447 127.635 470.207 127.903 469.906C128.171 469.605 128.376 469.251 128.505 468.865C128.634 468.479 128.685 468.069 128.655 467.662C128.612 467.097 128.414 466.557 128.084 466.105C127.755 465.652 127.307 465.307 126.794 465.109L109.686 459.185C109.355 459.072 109.004 459.034 108.656 459.074C108.309 459.114 107.975 459.231 107.676 459.417C105.324 461.104 102.51 461.966 99.649 461.877C97.4206 461.713 95.2816 460.905 93.4757 459.546C93.3171 459.411 93.1246 459.326 92.9208 459.3C92.7171 459.274 92.5104 459.309 92.325 459.4C92.1395 459.491 91.9829 459.635 91.8735 459.814C91.7641 459.994 91.7064 460.202 91.7071 460.414V469.061C91.7071 469.316 91.7558 469.569 91.8505 469.804C91.9451 470.04 92.0839 470.254 92.2588 470.434C92.4336 470.614 92.6412 470.756 92.8695 470.853C93.0978 470.95 93.3423 471 93.5891 470.999L125.801 470.865Z" fill="#C1D8ED"/>
<path d="M36.0963 273.213L36.2503 272.882C36.5037 275.022 38.4452 282.038 36.7479 282.771C36.1026 283.051 35.1129 281.075 34.4746 279.588C33.0881 282.853 33.2995 290.233 33.5535 294.377C33.5701 294.651 33.5062 294.924 33.3702 295.16C33.2343 295.396 33.0325 295.585 32.7914 295.7C32.5502 295.816 32.2809 295.854 32.0187 295.809C31.7564 295.764 31.5134 295.638 31.3215 295.448C23.7891 287.98 27.8164 272.808 27.8164 272.808L28.5954 268.98L36.0963 273.213Z" fill="#E98862"/>
<path d="M157.446 193.148C159.43 195.502 158.324 199.577 153.064 202.892C145.067 207.931 142.915 205.541 140.933 203.187C138.952 200.832 145.589 197.928 150.185 192.985C150.648 192.458 151.214 192.039 151.847 191.757C152.479 191.476 153.163 191.338 153.852 191.353C154.54 191.369 155.217 191.537 155.837 191.847C156.458 192.156 157.006 192.6 157.446 193.148Z" fill="#E98862"/>
<path d="M140.573 199.547C140.466 199.644 147.421 189.148 149.963 191.776C151.083 192.933 147.793 196.907 147.793 196.907" fill="#E98862"/>
<path d="M101.206 252.949C98.2743 259.916 40.6506 262.81 39.8807 250.554C39.3908 242.755 46.0399 235.947 46.0399 220.746C46.0399 205.546 32.5107 186.135 43.5343 174.74C46.7336 171.434 52.2559 169.299 58.9883 169.292C59.4929 173.351 83.3319 173.365 83.5132 169.386C84.4231 169.401 85.1307 169.415 85.571 169.437C108.795 170.471 98.5893 197.79 98.366 217.86C98.0924 241.344 104.233 245.772 101.206 252.949Z" fill="#F4F4F4"/>
<path d="M101.206 252.949C98.2744 259.916 43.5231 263.613 42.7532 251.357C42.2632 243.558 46.0428 235.947 46.0428 220.746C46.0428 205.546 33.7999 186.328 44.8235 174.933C48.0221 171.627 52.5715 169.623 59.3047 169.615C59.8086 173.674 83.3438 173.787 83.5258 169.808C84.4357 169.822 85.1426 169.837 85.5836 169.859C108.807 170.893 98.5928 197.79 98.3688 217.86C98.0924 241.344 104.233 245.772 101.206 252.949Z" fill="#3F3F3F"/>
<path d="M83.516 169.386C83.3347 173.365 80.61 174.053 74.1498 174.494C65.5409 175.08 59.4958 173.351 58.9911 169.292H59.0128C67.488 169.296 78.5711 169.306 83.516 169.386Z" fill="#E98862"/>
<path d="M69.5794 209.846C72.6632 242.076 68.5204 301.755 68.4833 351.492C68.4833 351.492 48.0956 355.74 30.8414 348.662C30.8414 348.662 41.2001 234.527 44.1397 208.916C44.1397 208.916 43.675 222.928 42.0316 230.968C40.3882 239.008 38.8015 274.553 38.8015 274.553C38.8015 274.553 35.1675 275.369 23.7121 275.369C23.7121 275.369 23.7121 235.484 26.4508 223.877C29.1896 212.269 38.7343 174.087 47.0821 171.094C53.7705 168.695 63.1101 169.292 63.1101 169.292C63.1101 169.292 68.1726 195.14 69.5794 209.846Z" fill="#DEE8F5"/>
<path d="M63.108 169.296C63.108 169.296 70.5537 198.92 70.5537 229.401L57.6753 186.794L61.8188 181.415L56.0095 177.169L57.1014 169.361C58.9876 168.962 63.108 169.296 63.108 169.296Z" fill="white"/>
<path d="M80.5435 169.296C80.5435 169.296 79.2402 190.474 79.2402 210.292C79.2402 230.11 82.2821 352.73 82.2821 352.73C82.2821 352.73 106.686 352.924 114.533 351.183C114.533 351.183 111.683 311.029 106.518 261.534C103.417 231.813 100.742 215.497 100.125 210.292C100.125 210.292 110.894 231.342 118.656 231.342C126.417 231.342 148.24 208.914 148.24 208.914C148.24 208.914 148.734 203.884 143.428 192.983L121.338 208.919C121.338 208.919 101.446 175.148 94.807 171.411C91.9093 169.78 87.9373 169.551 85.5681 169.44C82.6425 169.299 80.5435 169.296 80.5435 169.296Z" fill="#DEE8F5"/>
<path d="M80.5435 169.296C80.5435 169.296 78.0777 202.365 79.4411 228.255L87.2675 186.794L83.5125 181.981L88.2208 178.301L85.5702 169.44L80.5435 169.296Z" fill="white"/>
<path d="M76.3433 175.695C74.5639 175.71 72.8211 175.173 71.3404 174.152C68.2684 172.054 66.0553 167.775 65.1111 162.111C64.1432 156.323 64.7402 147.641 64.7668 147.271L66.8609 147.428C66.8546 147.516 66.2569 156.217 67.1801 161.741C68.027 166.81 69.9167 170.575 72.4994 172.343C73.3782 172.922 74.3656 173.303 75.3967 173.459C76.4278 173.616 77.4793 173.546 78.4823 173.253C80.561 172.747 82.0049 171.84 82.7734 170.551C83.5755 169.205 83.705 167.333 83.1591 164.985C82.845 163.592 82.3575 162.247 81.7088 160.984C81.7088 160.984 82.1673 160.798 82.7286 160.503C83.0626 160.329 83.3755 160.115 83.6609 159.865C84.3181 161.347 84.8338 162.892 85.2007 164.477C85.8817 167.407 85.6669 169.831 84.561 171.69C83.4887 173.488 81.6053 174.728 78.9617 175.366C78.1041 175.58 77.2254 175.69 76.3433 175.695Z" fill="#262626"/>
<path d="M110.517 210.453C87.3557 210.453 78.0903 175.756 77.7074 174.278L79.7372 173.715C79.8275 174.061 88.969 208.281 110.519 208.281C121.018 208.281 127.701 203.201 133.602 198.718C140.161 193.735 145.825 189.431 154.131 194.516L153.061 196.384C145.948 192.03 141.292 195.569 134.845 200.468C128.988 204.916 121.701 210.453 110.517 210.453Z" fill="#262626"/>
<path d="M156.711 203.462C159.535 203.462 161.824 201.096 161.824 198.178C161.824 195.259 159.535 192.894 156.711 192.894C153.888 192.894 151.599 195.259 151.599 198.178C151.599 201.096 153.888 203.462 156.711 203.462Z" fill="#262626"/>
<path d="M156.711 201.36C158.411 201.36 159.79 199.935 159.79 198.178C159.79 196.421 158.411 194.996 156.711 194.996C155.011 194.996 153.633 196.421 153.633 198.178C153.633 199.935 155.011 201.36 156.711 201.36Z" fill="white"/>
<path d="M65.7831 149.272C66.8105 149.272 67.6434 148.411 67.6434 147.349C67.6434 146.287 66.8105 145.426 65.7831 145.426C64.7556 145.426 63.9227 146.287 63.9227 147.349C63.9227 148.411 64.7556 149.272 65.7831 149.272Z" fill="#262626"/>
<path d="M266.541 255.756H230.551C226.889 255.752 223.378 254.246 220.788 251.569C218.199 248.892 216.742 245.263 216.738 241.478V204.278C216.742 200.492 218.199 196.863 220.788 194.186C223.378 191.509 226.889 190.004 230.551 190H266.539C270.201 190.004 273.712 191.509 276.301 194.186C278.891 196.863 280.348 200.492 280.352 204.278V241.478C280.348 245.263 278.891 248.892 276.302 251.568C273.713 254.245 270.203 255.751 266.541 255.756ZM230.551 197.234C228.744 197.237 227.012 197.979 225.735 199.3C224.458 200.62 223.739 202.41 223.737 204.278V241.478C223.739 243.345 224.458 245.135 225.735 246.456C227.012 247.776 228.744 248.519 230.551 248.521H266.539C268.345 248.519 270.077 247.776 271.355 246.456C272.632 245.135 273.35 243.345 273.353 241.478V204.278C273.35 202.41 272.632 200.62 271.355 199.3C270.077 197.979 268.345 197.237 266.539 197.234H230.551Z" fill="#DEE8F5"/>
<path d="M266.541 339.315H230.551C226.889 339.311 223.378 337.805 220.788 335.128C218.199 332.451 216.742 328.822 216.738 325.037V287.839C216.742 284.054 218.199 280.425 220.788 277.748C223.378 275.071 226.889 273.566 230.551 273.561H266.539C270.201 273.566 273.712 275.071 276.301 277.748C278.891 280.425 280.348 284.054 280.352 287.839V325.04C280.347 328.824 278.89 332.452 276.301 335.128C273.712 337.804 270.202 339.31 266.541 339.315ZM230.551 280.796C228.744 280.798 227.012 281.541 225.735 282.862C224.458 284.182 223.739 285.972 223.737 287.839V325.04C223.74 326.906 224.459 328.696 225.736 330.016C227.013 331.335 228.745 332.078 230.551 332.08H266.539C268.345 332.078 270.077 331.335 271.355 330.015C272.632 328.694 273.35 326.904 273.353 325.037V287.839C273.35 285.972 272.632 284.182 271.355 282.862C270.077 281.541 268.345 280.798 266.539 280.796H230.551Z" fill="#DEE8F5"/>
<path d="M266.541 422.877H230.551C226.889 422.873 223.378 421.367 220.788 418.69C218.199 416.013 216.742 412.384 216.738 408.599V371.401C216.742 367.616 218.199 363.987 220.788 361.31C223.378 358.633 226.889 357.128 230.551 357.123H266.539C270.201 357.128 273.712 358.633 276.301 361.31C278.891 363.987 280.348 367.616 280.352 371.401V408.602C280.347 412.386 278.89 416.014 276.301 418.691C273.712 421.367 270.202 422.872 266.541 422.877ZM230.551 364.358C228.744 364.36 227.012 365.103 225.735 366.423C224.458 367.744 223.739 369.534 223.737 371.401V408.602C223.74 410.468 224.459 412.258 225.736 413.578C227.013 414.898 228.745 415.64 230.551 415.642H266.539C268.345 415.64 270.077 414.897 271.355 413.577C272.632 412.256 273.35 410.466 273.353 408.599V371.401C273.35 369.534 272.632 367.744 271.355 366.423C270.077 365.103 268.345 364.36 266.539 364.358H230.551Z" fill="#DEE8F5"/>
<path d="M241.043 237.231C240.593 237.232 240.149 237.133 239.74 236.942C239.331 236.751 238.966 236.471 238.67 236.122L227.989 223.499C227.465 222.846 227.208 222.006 227.274 221.16C227.339 220.314 227.722 219.527 228.341 218.969C228.959 218.41 229.764 218.123 230.585 218.17C231.405 218.216 232.175 218.591 232.731 219.216L241.384 229.442L264.714 209.283C265.029 208.994 265.397 208.773 265.796 208.633C266.195 208.493 266.618 208.437 267.038 208.469C267.459 208.502 267.869 208.621 268.244 208.819C268.619 209.018 268.952 209.293 269.222 209.627C269.493 209.962 269.696 210.349 269.819 210.766C269.942 211.182 269.983 211.62 269.939 212.054C269.895 212.487 269.768 212.907 269.564 213.289C269.361 213.671 269.085 214.006 268.753 214.275L243.062 236.476C242.495 236.965 241.78 237.232 241.043 237.231Z" fill="#F54748"/>
<path d="M241.043 320.794C240.593 320.795 240.149 320.696 239.74 320.505C239.33 320.313 238.966 320.033 238.67 319.684L227.989 307.062C227.717 306.74 227.508 306.366 227.376 305.961C227.244 305.556 227.19 305.128 227.217 304.701C227.273 303.839 227.657 303.036 228.286 302.467C228.598 302.186 228.96 301.97 229.351 301.833C229.743 301.697 230.157 301.641 230.57 301.669C231.404 301.727 232.181 302.124 232.731 302.774L241.384 313.001L264.713 292.842C265.03 292.563 265.397 292.353 265.793 292.222C266.189 292.091 266.606 292.043 267.02 292.079C267.435 292.116 267.838 292.237 268.206 292.435C268.575 292.633 268.902 292.905 269.169 293.235C269.436 293.565 269.636 293.946 269.76 294.356C269.883 294.766 269.927 295.198 269.888 295.626C269.85 296.053 269.73 296.469 269.535 296.849C269.34 297.228 269.074 297.564 268.753 297.837L243.062 320.038C242.495 320.527 241.781 320.795 241.043 320.794Z" fill="#F54748"/>
<path d="M241.043 404.356C240.593 404.357 240.149 404.259 239.74 404.067C239.33 403.875 238.966 403.595 238.67 403.246L227.989 390.624C227.717 390.302 227.508 389.928 227.376 389.523C227.244 389.118 227.19 388.689 227.217 388.263C227.245 387.836 227.353 387.419 227.537 387.036C227.72 386.653 227.975 386.311 228.286 386.029C228.598 385.748 228.96 385.532 229.351 385.395C229.743 385.258 230.157 385.203 230.57 385.231C230.983 385.26 231.386 385.372 231.757 385.562C232.128 385.751 232.459 386.014 232.731 386.336L241.384 396.563L264.714 376.404C265.029 376.114 265.397 375.893 265.796 375.753C266.195 375.613 266.618 375.557 267.038 375.59C267.459 375.622 267.869 375.741 268.244 375.94C268.619 376.138 268.952 376.413 269.222 376.747C269.493 377.082 269.696 377.469 269.819 377.886C269.942 378.302 269.983 378.741 269.939 379.174C269.895 379.608 269.768 380.028 269.564 380.409C269.361 380.791 269.085 381.126 268.753 381.396L243.062 403.596C242.496 404.087 241.781 404.356 241.043 404.356Z" fill="#F54748"/>
<g opacity="0.62">
<path opacity="0.62" d="M299.822 218.542C297.505 218.542 295.627 220.483 295.627 222.878C295.627 225.273 297.505 227.214 299.822 227.214H457.349C459.666 227.214 461.545 225.273 461.545 222.878C461.545 220.483 459.666 218.542 457.349 218.542H299.822Z" fill="#DEE8F5"/>
<path opacity="0.62" d="M299.822 191.96C297.505 191.96 295.626 193.901 295.626 196.296C295.626 198.691 297.505 200.632 299.822 200.632H457.349C459.666 200.632 461.544 198.691 461.544 196.296C461.544 193.901 459.666 191.96 457.349 191.96H299.822Z" fill="#DEE8F5"/>
<path opacity="0.62" d="M299.822 245.124C297.505 245.124 295.626 247.066 295.626 249.46C295.626 251.855 297.505 253.797 299.822 253.797H422.353C424.67 253.797 426.548 251.855 426.548 249.46C426.548 247.066 424.67 245.124 422.353 245.124H299.822Z" fill="#DEE8F5"/>
</g>
<g opacity="0.62">
<path opacity="0.62" d="M299.822 302.104C297.505 302.104 295.627 304.045 295.627 306.44C295.627 308.835 297.505 310.776 299.822 310.776H457.349C459.666 310.776 461.545 308.835 461.545 306.44C461.545 304.045 459.666 302.104 457.349 302.104H299.822Z" fill="#DEE8F5"/>
<path opacity="0.62" d="M299.822 275.521C297.505 275.521 295.626 277.463 295.626 279.858C295.626 282.252 297.505 284.194 299.822 284.194H457.349C459.666 284.194 461.544 282.252 461.544 279.858C461.544 277.463 459.666 275.521 457.349 275.521H299.822Z" fill="#DEE8F5"/>
<path opacity="0.62" d="M299.822 328.686C297.505 328.686 295.626 330.627 295.626 333.022C295.626 335.417 297.505 337.358 299.822 337.358H422.353C424.67 337.358 426.548 335.417 426.548 333.022C426.548 330.627 424.67 328.686 422.353 328.686H299.822Z" fill="#DEE8F5"/>
</g>
<g opacity="0.62">
<path opacity="0.62" d="M299.822 385.666C297.506 385.666 295.627 387.607 295.627 390.002C295.627 392.397 297.506 394.338 299.822 394.338H457.349C459.666 394.338 461.545 392.397 461.545 390.002C461.545 387.607 459.666 385.666 457.349 385.666H299.822Z" fill="#DEE8F5"/>
<path opacity="0.62" d="M299.822 359.083C297.505 359.083 295.626 361.025 295.626 363.419C295.626 365.814 297.505 367.756 299.822 367.756H457.349C459.666 367.756 461.544 365.814 461.544 363.419C461.544 361.025 459.666 359.083 457.349 359.083H299.822Z" fill="#DEE8F5"/>
<path opacity="0.62" d="M299.822 412.248C297.505 412.248 295.626 414.189 295.626 416.584C295.626 418.979 297.505 420.92 299.822 420.92H422.353C424.67 420.92 426.548 418.979 426.548 416.584C426.548 414.189 424.67 412.248 422.353 412.248H299.822Z" fill="#DEE8F5"/>
</g>
<path d="M457.258 363.531V429.434C457.26 433.504 455.698 437.409 452.915 440.29C450.133 443.171 446.358 444.792 442.42 444.797H442.394C438.456 444.792 434.681 443.171 431.899 440.29C429.116 437.409 427.554 433.504 427.556 429.434V363.531H457.258Z" fill="#0CBC8B"/>
<path d="M457.258 280.955H427.558C427.011 280.955 426.486 281.18 426.098 281.58C425.711 281.98 425.494 282.523 425.494 283.089C425.494 283.655 425.711 284.198 426.098 284.598C426.486 284.998 427.011 285.223 427.558 285.223V363.531H457.257V285.22C457.805 285.22 458.33 284.995 458.717 284.595C459.104 284.194 459.322 283.651 459.322 283.085C459.322 282.519 459.104 281.977 458.717 281.576C458.33 281.176 457.805 280.951 457.257 280.951L457.258 280.955Z" fill="#DEE8F5"/>
<path d="M518.307 344.138V429.436C518.309 433.507 516.747 437.412 513.965 440.293C511.182 443.174 507.407 444.795 503.469 444.8H503.446C499.508 444.795 495.733 443.174 492.95 440.293C490.168 437.412 488.606 433.507 488.608 429.436V344.138H518.307Z" fill="#262626"/>
<path d="M518.307 280.955H488.608C488.061 280.955 487.535 281.18 487.148 281.58C486.761 281.98 486.543 282.523 486.543 283.089C486.543 283.655 486.761 284.198 487.148 284.598C487.535 284.998 488.061 285.223 488.608 285.223V344.141H518.308V285.22C518.855 285.22 519.38 284.995 519.768 284.595C520.155 284.194 520.372 283.651 520.372 283.085C520.372 282.519 520.155 281.977 519.768 281.576C519.38 281.176 518.855 280.951 518.308 280.951L518.307 280.955Z" fill="#DEE8F5"/>
<path d="M579.355 353.834V429.434C579.357 433.504 577.795 437.409 575.013 440.29C572.231 443.171 568.455 444.792 564.517 444.797H564.492C560.554 444.792 556.778 443.171 553.996 440.29C551.214 437.409 549.652 433.504 549.654 429.434V353.834H579.355Z" fill="#FB9300"/>
<path d="M579.356 280.955H549.657C549.109 280.955 548.584 281.18 548.197 281.58C547.809 281.98 547.592 282.523 547.592 283.089C547.592 283.655 547.809 284.198 548.197 284.598C548.584 284.998 549.109 285.223 549.657 285.223V353.837H579.355V285.22C579.903 285.22 580.428 284.995 580.815 284.595C581.202 284.194 581.42 283.651 581.42 283.085C581.42 282.519 581.202 281.977 580.815 281.576C580.428 281.176 579.903 280.951 579.355 280.951L579.356 280.955Z" fill="#DEE8F5"/>
<path d="M615.833 463.728H610.724V315.584C610.724 314.62 610.353 313.695 609.693 313.013C609.034 312.331 608.139 311.948 607.206 311.948H399.707C398.774 311.948 397.879 312.332 397.22 313.013C396.56 313.695 396.19 314.62 396.19 315.584V463.728H391.08C390.147 463.728 389.253 464.111 388.593 464.793C387.933 465.474 387.563 466.399 387.563 467.364C387.563 468.328 387.933 469.253 388.593 469.935C389.253 470.617 390.147 471 391.08 471H408.333C409.266 471 410.16 470.617 410.82 469.935C411.48 469.253 411.85 468.328 411.85 467.364C411.85 466.399 411.48 465.474 410.82 464.793C410.16 464.111 409.266 463.728 408.333 463.728H403.223V319.221H603.69V463.728H598.58C597.647 463.728 596.753 464.111 596.093 464.793C595.433 465.474 595.063 466.399 595.063 467.364C595.063 468.328 595.433 469.253 596.093 469.935C596.753 470.617 597.647 471 598.58 471H615.832C616.765 471 617.66 470.617 618.32 469.935C618.98 469.253 619.35 468.328 619.35 467.364C619.35 466.399 618.98 465.474 618.32 464.793C617.66 464.111 616.765 463.728 615.832 463.728H615.833Z" fill="#9EBCEA"/>
<path d="M299.822 116.338C297.505 116.338 295.626 118.279 295.626 120.674C295.626 123.069 297.505 125.01 299.822 125.01L443.351 125.01C445.667 125.01 447.546 123.069 447.546 120.674C447.546 118.279 445.667 116.338 443.351 116.338L299.822 116.338Z" fill="#D7E8F4"/>
<path d="M317.32 141.541C315.003 141.541 313.125 143.483 313.125 145.878C313.125 148.272 315.003 150.214 317.32 150.214H425.853C428.17 150.214 430.049 148.272 430.049 145.878C430.049 143.483 428.17 141.541 425.853 141.541H317.32Z" fill="#D7E8F4"/>
<path d="M729.204 262.566C729.204 264.788 727.978 272.215 729.949 272.745C731.132 273.064 732.527 267.527 732.527 267.527" fill="#E98862"/>
<path d="M738.508 261.398C738.508 261.398 744.944 276.392 737.603 285.006C737.416 285.225 737.164 285.385 736.881 285.465C736.597 285.545 736.295 285.541 736.013 285.454C735.732 285.367 735.484 285.201 735.303 284.977C735.122 284.753 735.015 284.482 734.998 284.2C734.641 278.392 733.417 266.458 729.417 267.856V258.49" fill="#E98862"/>
<path d="M644.081 463.172C642.356 449.294 642.356 447.865 642.356 447.396H658.711C658.711 447.348 658.711 447.287 658.711 447.213C658.769 448.371 659.594 455.44 660.325 461.323L644.081 463.172Z" fill="#E98862"/>
<path d="M709.248 465.043C709.248 465.043 709.193 448.831 709.193 447.396H725.548C725.548 448.828 725.603 464.988 725.603 464.988L709.248 465.043Z" fill="#E98862"/>
<path d="M666.859 458.229L638.044 457.759C639.241 428.714 639.445 395.494 639.767 365.432C639.856 357.981 640.444 350.543 641.527 343.164C646.163 311.317 649.186 279.653 655.427 247.987L655.635 248.046L656.244 244.073L715.493 240.573L718.577 277.625C718.577 277.625 726.294 405.802 729.814 457.34L701.101 459.662C695.927 409.131 687.92 335.504 682.997 282.42C677.342 308.265 673.495 335.025 668.578 360.648C667.598 392.721 666.767 426.251 666.859 458.229Z" fill="#262626"/>
<path d="M689.366 471.098C688.926 471.096 688.492 471.007 688.089 470.837C687.687 470.667 687.326 470.419 687.028 470.11C686.73 469.8 686.502 469.435 686.358 469.037C686.214 468.639 686.157 468.217 686.191 467.798V467.798C686.239 467.216 686.459 466.659 686.826 466.193C687.193 465.727 687.691 465.371 688.262 465.167L707.298 459.064C707.667 458.947 708.058 458.908 708.444 458.949C708.83 458.99 709.202 459.111 709.535 459.302C712.152 461.04 715.282 461.929 718.466 461.836C720.946 461.668 723.326 460.835 725.336 459.435C725.512 459.296 725.726 459.208 725.953 459.181C726.18 459.155 726.41 459.19 726.616 459.284C726.823 459.378 726.997 459.526 727.118 459.711C727.24 459.896 727.304 460.11 727.304 460.329V469.239C727.304 469.502 727.249 469.763 727.144 470.005C727.039 470.248 726.884 470.468 726.69 470.654C726.495 470.839 726.264 470.986 726.01 471.086C725.756 471.186 725.484 471.237 725.21 471.236L689.366 471.098Z" fill="#C1D8ED"/>
<path d="M624.154 471.098C623.714 471.096 623.28 471.007 622.877 470.837C622.475 470.667 622.114 470.419 621.816 470.11C621.518 469.8 621.29 469.435 621.146 469.037C621.002 468.639 620.946 468.217 620.98 467.798V467.798C621.027 467.216 621.247 466.659 621.614 466.193C621.98 465.727 622.479 465.371 623.05 465.167L642.086 459.064C642.455 458.947 642.846 458.908 643.232 458.949C643.618 458.99 643.99 459.111 644.323 459.302C646.94 461.04 650.07 461.929 653.254 461.836C655.734 461.668 658.114 460.836 660.123 459.435C660.3 459.296 660.514 459.208 660.741 459.182C660.968 459.155 661.198 459.191 661.404 459.285C661.61 459.378 661.785 459.526 661.906 459.711C662.028 459.896 662.093 460.11 662.092 460.329V469.239C662.092 469.502 662.038 469.763 661.933 470.005C661.827 470.248 661.673 470.468 661.478 470.654C661.284 470.839 661.053 470.986 660.799 471.086C660.545 471.186 660.273 471.237 659.998 471.236L624.154 471.098Z" fill="#C1D8ED"/>
<path d="M696.799 164.281C696.799 164.281 690.776 161.224 692.121 145.527L679.678 143.319C679.678 143.319 681.08 157.392 674.782 161.86L696.799 164.281Z" fill="#E98862"/>
<g opacity="0.15">
<path opacity="0.15" d="M677.332 158.918L687.668 151.349L679.55 151.269C679.314 153.928 678.562 156.523 677.332 158.918V158.918Z" fill="black"/>
</g>
<path d="M699.181 139.439C698.32 144.204 695.607 148.713 691.215 150.248C686.431 152.068 681.254 152.738 676.137 152.201C662.516 151.132 665.21 121.488 671.677 115.729C678.143 109.97 697.126 113.617 699.434 123.248C700.628 128.229 700 134.909 699.181 139.439Z" fill="#E98862"/>
<path d="M662.152 112.976C662.152 109.038 667.272 102.587 680.93 111.485L680.944 111.494C684.492 111.399 688.037 111.77 691.48 112.596C693.946 113.278 696.251 114.412 698.266 115.936V115.936C702.067 118.888 704.838 123.744 703.547 131.549C701.304 145.116 695.5 148.732 692.575 150.396C691.829 150.819 691.649 150.474 691.39 149.683C690.579 146.754 689.999 143.772 689.654 140.76C689.209 137.625 686.269 135.638 686.625 131.89C686.75 130.578 688.955 125.777 682.13 125.722C678.291 125.692 679.727 125.838 675.63 125.838C675.046 125.838 674.53 125.813 674.055 125.772H674.05C659.909 125.774 662.152 116.915 662.152 112.976Z" fill="#0F1011"/>
<path d="M685.567 137.336C685.482 138.536 685.895 139.72 686.715 140.632C687.536 141.544 688.698 142.11 689.951 142.208C691.204 142.306 692.447 141.928 693.411 141.156C694.375 140.383 694.982 139.279 695.103 138.081C695.165 137.48 695.1 136.873 694.912 136.296C694.724 135.719 694.417 135.185 694.008 134.724C693.6 134.263 693.099 133.886 692.535 133.614C691.971 133.343 691.356 133.183 690.726 133.143C687.316 133.04 685.783 134.818 685.567 137.336Z" fill="#E98862"/>
<path d="M687.668 122.81L691.19 124.045C691.19 124.045 689.944 140.892 688.956 145.495C687.968 150.098 685.212 153.098 682.086 153.355C677.286 153.748 673.808 153.779 670.287 152.576C666.316 151.217 666.873 141.021 666.873 141.021C666.873 141.021 679.649 142.346 683.184 140.723C686.719 139.1 687.668 122.81 687.668 122.81Z" fill="#0F1011"/>
<path d="M679.696 135.773C680.319 135.773 680.825 135.289 680.825 134.692C680.825 134.096 680.319 133.612 679.696 133.612C679.073 133.612 678.568 134.096 678.568 134.692C678.568 135.289 679.073 135.773 679.696 135.773Z" fill="#0F1011"/>
<path d="M670.794 135.074C671.417 135.074 671.922 134.591 671.922 133.994C671.922 133.397 671.417 132.914 670.794 132.914C670.17 132.914 669.665 133.397 669.665 133.994C669.665 134.591 670.17 135.074 670.794 135.074Z" fill="#0F1011"/>
<path d="M668.838 131.692C668.701 131.688 668.571 131.633 668.475 131.539C668.379 131.445 668.325 131.319 668.324 131.188C668.323 131.057 668.376 130.93 668.47 130.835C668.565 130.74 668.694 130.683 668.831 130.677L671.821 130.642C671.96 130.646 672.092 130.699 672.191 130.792C672.29 130.885 672.35 131.01 672.358 131.143C672.358 131.209 672.346 131.275 672.32 131.337C672.294 131.399 672.256 131.456 672.207 131.503C672.159 131.551 672.101 131.589 672.037 131.615C671.973 131.642 671.904 131.655 671.834 131.656L668.844 131.692H668.838Z" fill="#0F1011"/>
<path d="M682.134 132.736C682.092 132.736 682.05 132.731 682.009 132.721L679.062 132.042C678.993 132.027 678.928 132 678.871 131.961C678.814 131.922 678.765 131.872 678.728 131.815C678.691 131.758 678.667 131.694 678.655 131.628C678.644 131.562 678.647 131.494 678.663 131.428C678.68 131.363 678.71 131.302 678.751 131.247C678.793 131.193 678.845 131.147 678.905 131.113C678.965 131.078 679.032 131.055 679.102 131.045C679.171 131.035 679.242 131.039 679.31 131.055L682.257 131.734C682.383 131.764 682.494 131.836 682.568 131.938C682.642 132.04 682.674 132.164 682.659 132.287C682.644 132.411 682.582 132.524 682.485 132.607C682.389 132.69 682.264 132.735 682.134 132.736V132.736Z" fill="#0F1011"/>
<g opacity="0.15">
<path opacity="0.15" d="M674.687 140.684C674.78 140.684 674.87 140.652 674.941 140.593C675.012 140.535 675.058 140.455 675.072 140.366C675.086 140.278 675.066 140.188 675.017 140.112C674.967 140.037 674.891 139.981 674.801 139.955L672.506 139.28L674.111 135.858C674.15 135.768 674.151 135.668 674.113 135.578C674.076 135.488 674.003 135.415 673.911 135.376C673.818 135.336 673.714 135.332 673.618 135.365C673.523 135.398 673.445 135.466 673.401 135.553L671.615 139.36C671.592 139.409 671.581 139.461 671.581 139.514C671.581 139.566 671.593 139.619 671.616 139.667C671.639 139.715 671.672 139.758 671.713 139.792C671.755 139.827 671.803 139.853 671.856 139.869L674.572 140.667C674.61 140.678 674.648 140.684 674.687 140.684Z" fill="black"/>
</g>
<path d="M679.174 143.199C679.174 143.199 675.009 143.62 672.087 142.643C672.087 142.643 672.111 145.269 675.407 145.528C678.703 145.787 679.174 143.199 679.174 143.199Z" fill="white"/>
<path d="M718.792 219.94L725.795 265.128L742.593 262.742L735.482 216.863C735.411 216.403 735.299 215.95 735.146 215.509L720.126 171.947L719.997 171.987C719.239 169.596 717.869 167.424 716.012 165.669C712.453 162.262 706.308 160.063 698.816 160.055C698.255 164.237 671.729 164.252 671.527 160.152C670.514 160.167 669.728 160.182 669.237 160.204C643.396 161.27 654.751 189.418 655 210.097C655.304 234.294 648.474 238.856 651.838 246.251C655.102 253.429 719.221 256.411 720.077 243.783C720.622 235.748 713.224 228.733 713.224 213.071C713.257 210.737 713.527 208.411 714.029 206.127L718.792 219.94Z" fill="#08916A"/>
<path d="M668.17 207.788C668.17 207.788 677.847 205.87 679.991 207.922C682.135 209.973 682.379 218.544 678.391 218.034C677.421 217.91 676.944 215.92 675.198 216.522C672.279 217.528 667.712 216 667.712 216" fill="#E98862"/>
<path d="M668.17 222.034H630.649C629.094 222.035 627.568 221.627 626.239 220.854C624.91 220.081 623.828 218.974 623.112 217.653C622.395 216.332 622.072 214.848 622.176 213.363C622.28 211.878 622.809 210.449 623.704 209.232L655.335 166.193L669.224 175.544L647.002 205.779H668.17V222.034Z" fill="#08916A"/>
<path d="M670.782 206.236H665.558C665.072 206.236 664.678 206.613 664.678 207.079V207.079C664.678 207.545 665.072 207.922 665.558 207.922H670.782C671.268 207.922 671.662 207.545 671.662 207.079V207.079C671.662 206.613 671.268 206.236 670.782 206.236Z" fill="#262626"/>
<path d="M669.326 207.079H667.014V217.256H669.326V207.079Z" fill="#262626"/>
<path d="M671.527 160.152C671.729 164.252 674.058 170.283 681.246 170.738C690.825 171.341 698.255 164.237 698.816 160.055H698.792C689.361 160.055 677.025 160.07 671.527 160.152Z" fill="#E98862"/>
</svg>
