<svg width="437" height="434" viewBox="0 0 437 434" fill="none" xmlns="http://www.w3.org/2000/svg">
<g clip-path="url(#clip0_6_900)">
<path d="M316.728 302.428L341.293 244.353L378.691 226.634L437 253.823L400.01 341.259L316.728 302.428Z" fill="#F4F4F4"/>
<path opacity="0.05" d="M407.041 292.518L347.422 264.543C346.841 264.27 346.16 264.544 345.9 265.153L345.9 265.154C345.64 265.764 345.901 266.479 346.482 266.751L406.101 294.726C406.681 294.999 407.363 294.726 407.622 294.116L407.622 294.115C407.882 293.506 407.622 292.79 407.041 292.518Z" fill="#292A2E"/>
<path opacity="0.05" d="M402.032 305.074L342.412 277.099C341.832 276.826 341.15 277.1 340.891 277.709L340.891 277.71C340.631 278.32 340.891 279.035 341.472 279.308L401.091 307.283C401.672 307.555 402.353 307.282 402.613 306.672L402.613 306.671C402.873 306.062 402.612 305.346 402.032 305.074Z" fill="#292A2E"/>
<path opacity="0.05" d="M372.046 306.132L337.297 289.942C337.018 289.811 336.701 289.802 336.415 289.916C336.13 290.031 335.899 290.259 335.775 290.552C335.713 290.697 335.679 290.854 335.675 291.013C335.671 291.171 335.696 291.329 335.75 291.478C335.804 291.626 335.886 291.762 335.99 291.877C336.094 291.993 336.218 292.085 336.357 292.15L371.106 308.341C371.385 308.472 371.702 308.481 371.987 308.366C372.272 308.252 372.503 308.023 372.627 307.73C372.752 307.437 372.761 307.104 372.652 306.805C372.543 306.505 372.325 306.263 372.046 306.132Z" fill="#292A2E"/>
<path opacity="0.4" d="M378.691 226.634L366.609 256.126L341.292 244.353L378.691 226.634Z" fill="white"/>
<path d="M19.5816 159.953L5.94775 98.0424L25.6807 60.2739L87.8425 45.1857L108.366 138.401L19.5816 159.953Z" fill="#F4F4F4"/>
<path opacity="0.05" d="M86.0668 95.0157L22.4085 110.303C21.7884 110.452 21.4006 111.101 21.5425 111.752L21.5426 111.753C21.6845 112.404 22.3022 112.811 22.9223 112.662L86.5806 97.3741C87.2008 97.2252 87.5885 96.5766 87.4467 95.9255L87.4466 95.925C87.3047 95.2739 86.687 94.8668 86.0668 95.0157Z" fill="#292A2E"/>
<path opacity="0.05" d="M89.2558 108.211L25.5975 123.499C24.9773 123.648 24.5896 124.296 24.7315 124.947L24.7316 124.948C24.8734 125.599 25.4911 126.006 26.1113 125.857L89.7696 110.569C90.3897 110.42 90.7775 109.772 90.6356 109.121L90.6355 109.12C90.4937 108.469 89.8759 108.062 89.2558 108.211Z" fill="#292A2E"/>
<path opacity="0.05" d="M65.9026 127.989L28.8653 136.992C28.5673 137.063 28.3086 137.256 28.1459 137.528C27.9833 137.799 27.9301 138.128 27.9981 138.441C28.0317 138.596 28.0941 138.742 28.1816 138.872C28.2692 139.002 28.3803 139.112 28.5085 139.196C28.6367 139.281 28.7795 139.338 28.9287 139.365C29.078 139.391 29.2308 139.387 29.3783 139.351L66.4157 130.348C66.7137 130.276 66.9725 130.083 67.1351 129.812C67.2977 129.54 67.3509 129.212 67.2829 128.899C67.2147 128.586 67.031 128.314 66.7722 128.144C66.5134 127.973 66.2006 127.917 65.9026 127.989Z" fill="#292A2E"/>
<path opacity="0.4" d="M25.6807 60.2739L32.9182 91.4664L5.94775 98.0424L25.6807 60.2739Z" fill="white"/>
<path d="M315.561 349.74H66.4832C63.1214 349.74 59.8972 348.338 57.52 345.842C55.1428 343.346 53.8073 339.961 53.8071 336.431L62.4788 41.2257H336.428L328.238 336.431C328.238 338.179 327.91 339.91 327.273 341.525C326.636 343.14 325.702 344.607 324.525 345.843C323.348 347.078 321.95 348.059 320.412 348.727C318.874 349.396 317.226 349.74 315.561 349.74Z" fill="#292A2E"/>
<path opacity="0.9" d="M315.561 349.74H66.4832C63.1214 349.74 59.8972 348.338 57.52 345.842C55.1428 343.346 53.8073 339.961 53.8071 336.431L62.4788 41.2257H336.428L328.238 336.431C328.238 338.179 327.91 339.91 327.273 341.525C326.636 343.14 325.702 344.607 324.525 345.843C323.348 347.078 321.95 348.059 320.412 348.727C318.874 349.396 317.226 349.74 315.561 349.74Z" fill="white"/>
<path d="M315.561 350.246H66.4831C62.9945 350.242 59.6499 348.785 57.1831 346.195C54.7163 343.605 53.3287 340.094 53.3247 336.431L61.9964 40.7199H336.909L328.719 336.431C328.715 340.094 327.328 343.605 324.861 346.195C322.394 348.785 319.049 350.242 315.561 350.246ZM62.9595 41.7315L54.2877 336.431C54.2914 339.825 55.5775 343.08 57.8638 345.48C60.1501 347.88 63.2499 349.23 66.4831 349.234H315.561C318.794 349.23 321.893 347.88 324.179 345.48C326.465 343.08 327.751 339.825 327.755 336.431L335.945 41.7315H62.9595Z" fill="#292A2E"/>
<path d="M324.714 11.9547H75.6367C72.1481 11.9587 68.8034 13.4155 66.3366 16.0055C63.8697 18.5955 62.4822 22.107 62.4783 25.7698L61.9966 41.7315H336.909L337.873 25.7698C337.869 22.107 336.481 18.5955 334.014 16.0055C331.548 13.4155 328.203 11.9587 324.714 11.9547Z" fill="#0C0C0C"/>
<path d="M329.532 11.9547H77.5636C74.075 11.9587 70.7303 13.4155 68.2635 16.0055C65.7966 18.5955 64.4091 22.107 64.4053 25.7698V41.7315H342.69V25.7698C342.686 22.107 341.299 18.5955 338.832 16.0055C336.365 13.4155 333.021 11.9587 329.532 11.9547Z" fill="#292A2E"/>
<path d="M64.8867 41.2232H342.208V341.49C342.208 345.019 340.873 348.404 338.495 350.9C336.118 353.396 332.894 354.798 329.532 354.798H77.5638C74.2019 354.798 70.9777 353.396 68.6004 350.9C66.2232 348.404 64.8877 345.019 64.8877 341.49V41.2232H64.8867Z" fill="white"/>
<path d="M329.532 355.304H77.5636C74.0751 355.3 70.7305 353.843 68.2637 351.253C65.7968 348.663 64.4092 345.152 64.4053 341.489V40.7199H342.69V341.489C342.686 345.152 341.299 348.663 338.832 351.253C336.365 353.843 333.02 355.3 329.532 355.304ZM65.3683 41.7315V341.489C65.372 344.884 66.6581 348.138 68.9444 350.538C71.2307 352.938 74.3305 354.288 77.5636 354.292H329.532C332.765 354.288 335.864 352.938 338.15 350.538C340.437 348.138 341.722 344.883 341.726 341.489V41.7315H65.3683Z" fill="#292A2E"/>
<path d="M114.011 103.581H86.329C84.7861 103.579 83.3069 102.935 82.2158 101.79C81.1248 100.644 80.5111 99.0912 80.5093 97.4714V68.4077C80.5111 66.7878 81.1248 65.2348 82.2158 64.0895C83.3069 62.9441 84.7861 62.2998 86.329 62.2981H114.011C115.553 62.3 117.032 62.9443 118.123 64.0896C119.214 65.235 119.828 66.7879 119.83 68.4077V97.4714C119.828 99.0911 119.214 100.644 118.123 101.789C117.032 102.935 115.553 103.579 114.011 103.581ZM86.329 63.3097C85.0415 63.3112 83.8072 63.8488 82.8969 64.8045C81.9865 65.7602 81.4743 67.0561 81.4728 68.4077V97.4714C81.4743 98.823 81.9865 100.119 82.8969 101.075C83.8072 102.03 85.0415 102.568 86.329 102.569H114.011C115.298 102.568 116.532 102.03 117.442 101.074C118.353 100.119 118.865 98.8229 118.866 97.4714V68.4077C118.865 67.0561 118.353 65.7604 117.442 64.8047C116.532 63.8489 115.298 63.3113 114.011 63.3097H86.329Z" fill="#292A2E"/>
<path d="M114.011 161.161H86.329C84.7861 161.159 83.3069 160.515 82.2158 159.37C81.1248 158.224 80.5111 156.671 80.5093 155.051V125.988C80.5106 124.368 81.124 122.814 82.2151 121.669C83.3062 120.523 84.7857 119.878 86.329 119.876H114.011C115.553 119.878 117.033 120.522 118.124 121.668C119.214 122.813 119.828 124.366 119.83 125.986V155.049C119.828 156.67 119.215 158.223 118.124 159.369C117.033 160.515 115.554 161.159 114.011 161.161ZM86.329 120.888C85.0415 120.889 83.8072 121.427 82.8968 122.383C81.9865 123.339 81.4743 124.635 81.4728 125.986V155.049C81.4743 156.401 81.9865 157.697 82.8969 158.653C83.8072 159.608 85.0415 160.146 86.329 160.147H114.011C115.298 160.146 116.532 159.608 117.442 158.653C118.353 157.697 118.865 156.401 118.866 155.049V125.988C118.865 124.636 118.354 123.34 117.443 122.384C116.533 121.427 115.298 120.889 114.011 120.888H86.329Z" fill="#292A2E"/>
<path d="M114.011 218.741H86.329C84.7861 218.739 83.3069 218.095 82.2158 216.95C81.1248 215.804 80.5111 214.251 80.5093 212.631V183.568C80.5111 181.948 81.1248 180.395 82.2158 179.25C83.3069 178.105 84.7861 177.46 86.329 177.459H114.011C115.553 177.46 117.032 178.105 118.123 179.25C119.214 180.395 119.828 181.948 119.83 183.568V212.631C119.828 214.251 119.214 215.804 118.123 216.949C117.032 218.095 115.553 218.739 114.011 218.741ZM86.329 178.47C85.0415 178.472 83.8072 179.009 82.8969 179.965C81.9865 180.921 81.4743 182.217 81.4728 183.568V212.631C81.4743 213.983 81.9865 215.279 82.8969 216.235C83.8072 217.19 85.0415 217.728 86.329 217.729H114.011C115.298 217.728 116.532 217.19 117.442 216.235C118.353 215.279 118.865 213.983 118.866 212.631V183.568C118.865 182.217 118.353 180.921 117.442 179.965C116.532 179.009 115.298 178.472 114.011 178.47H86.329Z" fill="#292A2E"/>
<path d="M114.011 275.53H86.329C84.7861 275.528 83.3069 274.884 82.2158 273.739C81.1248 272.593 80.5111 271.04 80.5093 269.42V240.359C80.5111 238.739 81.1248 237.186 82.2158 236.041C83.3068 234.895 84.786 234.251 86.329 234.249H114.011C115.553 234.251 117.033 234.895 118.124 236.041C119.214 237.186 119.828 238.739 119.83 240.359V269.422C119.827 271.042 119.214 272.594 118.123 273.739C117.032 274.884 115.553 275.528 114.011 275.53ZM86.329 235.259C85.0415 235.26 83.8071 235.798 82.8967 236.754C81.9863 237.709 81.4742 239.005 81.4728 240.357V269.42C81.4743 270.772 81.9865 272.068 82.8969 273.024C83.8072 273.979 85.0415 274.517 86.329 274.518H114.011C115.298 274.517 116.532 273.979 117.442 273.023C118.353 272.068 118.865 270.772 118.866 269.42V240.359C118.865 239.007 118.353 237.711 117.443 236.756C116.532 235.8 115.298 235.262 114.011 235.261L86.329 235.259Z" fill="#292A2E"/>
<path d="M114.011 332.319H86.329C84.786 332.317 83.3068 331.673 82.2158 330.527C81.1248 329.382 80.5111 327.829 80.5093 326.209V297.145C80.5111 295.526 81.1248 293.972 82.2158 292.827C83.3068 291.682 84.786 291.037 86.329 291.035H114.011C115.553 291.037 117.033 291.682 118.124 292.827C119.214 293.973 119.828 295.526 119.83 297.145V326.209C119.828 327.828 119.214 329.382 118.124 330.527C117.033 331.672 115.553 332.317 114.011 332.319ZM86.329 292.047C85.0415 292.049 83.8072 292.586 82.8968 293.542C81.9865 294.498 81.4743 295.794 81.4728 297.145V326.209C81.4743 327.56 81.9865 328.856 82.8968 329.812C83.8072 330.768 85.0415 331.306 86.329 331.307H114.011C115.298 331.306 116.532 330.768 117.442 329.812C118.353 328.856 118.865 327.56 118.866 326.209V297.145C118.865 295.794 118.353 294.498 117.442 293.542C116.532 292.586 115.298 292.049 114.011 292.047H86.329Z" fill="#292A2E"/>
<path d="M95.2442 94.567C94.7462 94.5676 94.2675 94.365 93.9092 94.002L85.8406 85.8586C85.6554 85.6751 85.5067 85.455 85.403 85.2109C85.2992 84.9667 85.2426 84.7035 85.2364 84.4362C85.2302 84.169 85.2745 83.9031 85.3667 83.654C85.4589 83.4048 85.5972 83.1773 85.7737 82.9846C85.9501 82.7919 86.1612 82.6378 86.3947 82.5312C86.6282 82.4247 86.8795 82.3677 87.1341 82.3637C87.3886 82.3597 87.6414 82.4087 87.8779 82.5079C88.1143 82.6071 88.3297 82.7545 88.5115 82.9416L95.2114 89.7027L112.009 71.9115C112.187 71.7196 112.399 71.5665 112.633 71.4612C112.867 71.3558 113.119 71.3003 113.373 71.2977C113.628 71.2951 113.881 71.3456 114.117 71.4462C114.353 71.5468 114.568 71.6955 114.749 71.8838C114.929 72.072 115.073 72.2961 115.171 72.5429C115.269 72.7898 115.319 73.0546 115.319 73.3221C115.319 73.5895 115.268 73.8543 115.17 74.101C115.072 74.3478 114.928 74.5716 114.747 74.7596L96.6162 93.9676C96.4368 94.1581 96.2231 94.3093 95.9876 94.4122C95.752 94.5151 95.4993 94.5677 95.2442 94.567Z" fill="#F54748"/>
<path d="M95.2442 152.147C94.7463 152.147 94.2677 151.944 93.9093 151.582L85.8407 143.438C85.4722 143.066 85.2595 142.556 85.2494 142.019C85.2393 141.483 85.4326 140.964 85.7868 140.577C86.1409 140.19 86.627 139.967 87.138 139.956C87.649 139.946 88.1431 140.149 88.5116 140.521L95.2115 147.282L112.01 129.491C112.371 129.117 112.858 128.907 113.366 128.907C113.873 128.907 114.36 129.118 114.721 129.493C115.081 129.868 115.286 130.378 115.291 130.911C115.296 131.444 115.101 131.957 114.747 132.34L96.6163 151.548C96.4369 151.738 96.2232 151.889 95.9876 151.992C95.752 152.095 95.4993 152.147 95.2442 152.147Z" fill="#F54748"/>
<path d="M95.2442 209.727C94.7464 209.728 94.2678 209.525 93.9093 209.163L85.8407 201.019C85.4722 200.647 85.2595 200.137 85.2494 199.6C85.2393 199.064 85.4326 198.545 85.7868 198.158C86.1409 197.771 86.627 197.548 87.138 197.537C87.649 197.527 88.1431 197.73 88.5116 198.102L95.2115 204.863L112.01 187.071C112.371 186.697 112.858 186.487 113.366 186.487C113.873 186.487 114.36 186.698 114.721 187.073C115.081 187.448 115.286 187.958 115.291 188.491C115.296 189.024 115.101 189.537 114.747 189.92L96.6163 209.128C96.4369 209.318 96.2232 209.469 95.9877 209.572C95.7521 209.675 95.4994 209.728 95.2442 209.727Z" fill="#F54748"/>
<path opacity="0.5" d="M321.395 73.9408H134.959C134.217 73.9408 133.615 74.5728 133.615 75.3525C133.615 76.1322 134.217 76.7642 134.959 76.7642H321.395C322.138 76.7642 322.74 76.1322 322.74 75.3525C322.74 74.5728 322.138 73.9408 321.395 73.9408Z" fill="#262626"/>
<path opacity="0.5" d="M244.314 89.115H134.959C134.217 89.115 133.615 89.747 133.615 90.5267C133.615 91.3064 134.217 91.9384 134.959 91.9384H244.314C245.056 91.9384 245.658 91.3064 245.658 90.5267C245.658 89.747 245.056 89.115 244.314 89.115Z" fill="#262626"/>
<path opacity="0.5" d="M321.395 131.521H134.959C134.217 131.521 133.615 132.153 133.615 132.932C133.615 133.712 134.217 134.344 134.959 134.344H321.395C322.138 134.344 322.74 133.712 322.74 132.932C322.74 132.153 322.138 131.521 321.395 131.521Z" fill="#262626"/>
<path opacity="0.5" d="M244.314 146.695H134.959C134.217 146.695 133.615 147.327 133.615 148.107C133.615 148.886 134.217 149.518 134.959 149.518H244.314C245.056 149.518 245.658 148.886 245.658 148.107C245.658 147.327 245.056 146.695 244.314 146.695Z" fill="#262626"/>
<path opacity="0.5" d="M321.395 189.101H134.959C134.217 189.101 133.615 189.733 133.615 190.512C133.615 191.292 134.217 191.924 134.959 191.924H321.395C322.138 191.924 322.74 191.292 322.74 190.512C322.74 189.733 322.138 189.101 321.395 189.101Z" fill="#262626"/>
<path opacity="0.5" d="M244.314 204.275H134.959C134.217 204.275 133.615 204.907 133.615 205.687C133.615 206.466 134.217 207.098 134.959 207.098H244.314C245.056 207.098 245.658 206.466 245.658 205.687C245.658 204.907 245.056 204.275 244.314 204.275Z" fill="#262626"/>
<path opacity="0.5" d="M321.395 245.89H134.959C134.217 245.89 133.615 246.522 133.615 247.301C133.615 248.081 134.217 248.713 134.959 248.713H321.395C322.138 248.713 322.74 248.081 322.74 247.301C322.74 246.522 322.138 245.89 321.395 245.89Z" fill="#262626"/>
<path opacity="0.5" d="M244.314 261.064H134.959C134.217 261.064 133.615 261.696 133.615 262.476C133.615 263.255 134.217 263.887 134.959 263.887H244.314C245.056 263.887 245.658 263.255 245.658 262.476C245.658 261.696 245.056 261.064 244.314 261.064Z" fill="#262626"/>
<path opacity="0.5" d="M321.395 302.678H134.959C134.217 302.678 133.615 303.31 133.615 304.09C133.615 304.869 134.217 305.501 134.959 305.501H321.395C322.138 305.501 322.74 304.869 322.74 304.09C322.74 303.31 322.138 302.678 321.395 302.678Z" fill="#262626"/>
<path opacity="0.5" d="M244.314 317.852H134.959C134.217 317.852 133.615 318.484 133.615 319.264C133.615 320.044 134.217 320.676 134.959 320.676H244.314C245.056 320.676 245.658 320.044 245.658 319.264C245.658 318.484 245.056 317.852 244.314 317.852Z" fill="#262626"/>
<path d="M98.2102 3.01627e-07C95.1914 0.00361484 92.2972 1.26429 90.1625 3.50545C88.0279 5.74662 86.8272 8.78525 86.8237 11.9547H87.7873C87.787 9.85473 88.3623 7.799 89.4445 6.03289C90.5266 4.26678 92.07 2.86489 93.8903 1.99451C95.7105 1.12413 97.7309 0.822036 99.7103 1.12428C101.69 1.42652 103.544 2.32032 105.053 3.69903C106.562 5.07774 107.661 6.88312 108.219 8.8997C108.777 10.9163 108.771 13.0589 108.201 15.0718C107.631 17.0848 106.521 18.883 105.005 20.2519C103.488 21.6209 101.628 22.5027 99.6468 22.7921C99.4799 22.4309 99.1954 22.1444 98.8448 21.9843C98.4941 21.8242 98.1005 21.8012 97.7351 21.9194C97.3697 22.0376 97.0566 22.2892 96.8525 22.6287C96.6485 22.9682 96.5669 23.3732 96.6226 23.7703C96.6782 24.1675 96.8674 24.5306 97.156 24.7941C97.4445 25.0575 97.8133 25.2038 98.1957 25.2064C98.578 25.2091 98.9487 25.0681 99.2405 24.8087C99.5324 24.5494 99.7263 24.189 99.787 23.7926C102.643 23.3741 105.24 21.8336 107.056 19.4823C108.872 17.1309 109.771 14.1438 109.571 11.124C109.371 8.10413 108.087 5.27646 105.978 3.21181C103.87 1.14716 101.093 -0.000679324 98.2102 3.01627e-07Z" fill="#F4F4F4"/>
<path d="M320.271 11.9547C320.271 8.78414 319.071 5.74341 316.936 3.50146C314.801 1.25951 311.904 0 308.885 0C305.865 0 302.968 1.25951 300.833 3.50146C298.698 5.74341 297.498 8.78414 297.498 11.9547H298.462C298.461 9.85473 299.037 7.799 300.119 6.03289C301.201 4.26678 302.744 2.86488 304.565 1.99451C306.385 1.12413 308.405 0.822035 310.385 1.12428C312.364 1.42652 314.219 2.32032 315.727 3.69903C317.236 5.07774 318.335 6.88312 318.893 8.8997C319.452 10.9163 319.445 13.0589 318.875 15.0718C318.305 17.0848 317.196 18.883 315.679 20.2519C314.162 21.6209 312.302 22.5027 310.321 22.7921C310.154 22.4309 309.87 22.1444 309.519 21.9843C309.168 21.8242 308.775 21.8012 308.409 21.9194C308.044 22.0376 307.731 22.2892 307.527 22.6287C307.323 22.9682 307.241 23.3732 307.297 23.7703C307.353 24.1675 307.542 24.5306 307.83 24.7941C308.119 25.0575 308.488 25.2038 308.87 25.2064C309.252 25.2091 309.623 25.0681 309.915 24.8087C310.207 24.5494 310.401 24.189 310.461 23.7926C313.18 23.39 315.669 21.971 317.471 19.7963C319.273 17.6216 320.267 14.8373 320.271 11.9547Z" fill="#F4F4F4"/>
<path d="M290.175 11.9547C290.156 8.79756 288.947 5.77667 286.814 3.55143C284.681 1.32619 281.796 0.0772705 278.789 0.0772705C275.781 0.0772705 272.896 1.32619 270.763 3.55143C268.63 5.77667 267.421 8.79756 267.402 11.9547H268.365C268.365 9.85459 268.94 7.79869 270.022 6.03242C271.105 4.26614 272.648 2.86409 274.468 1.9936C276.289 1.12311 278.309 0.820953 280.289 1.12319C282.268 1.42542 284.123 2.31928 285.632 3.69808C287.141 5.07689 288.24 6.8824 288.798 8.89913C289.356 10.9159 289.35 13.0586 288.78 15.0717C288.21 17.0847 287.1 18.8831 285.583 20.252C284.066 21.621 282.206 22.5028 280.225 22.7922C280.058 22.431 279.774 22.1444 279.423 21.9843C279.072 21.8242 278.679 21.8012 278.313 21.9194C277.948 22.0376 277.635 22.2892 277.431 22.6287C277.227 22.9682 277.145 23.3732 277.201 23.7703C277.256 24.1675 277.446 24.5307 277.734 24.7941C278.023 25.0575 278.391 25.2038 278.774 25.2065C279.156 25.2092 279.527 25.0681 279.819 24.8088C280.111 24.5494 280.304 24.189 280.365 23.7926C283.084 23.3901 285.573 21.9712 287.375 19.7965C289.177 17.6218 290.172 14.8374 290.175 11.9547Z" fill="#F4F4F4"/>
<path d="M260.079 11.9547C260.059 8.79756 258.851 5.77667 256.718 3.55143C254.585 1.32619 251.7 0.0772705 248.692 0.0772705C245.685 0.0772705 242.8 1.32619 240.667 3.55143C238.534 5.77667 237.325 8.79756 237.306 11.9547H238.269C238.269 9.85472 238.844 7.79895 239.926 6.03278C241.008 4.2666 242.552 2.86461 244.372 1.99411C246.192 1.12361 248.213 0.821357 250.192 1.12343C252.171 1.42551 254.026 2.31915 255.535 3.69771C257.044 5.07628 258.143 6.88154 258.702 8.89807C259.26 10.9146 259.254 13.0572 258.684 15.0703C258.115 17.0833 257.005 18.8818 255.489 20.251C253.972 21.6202 252.112 22.5023 250.131 22.7922C249.964 22.431 249.68 22.1444 249.329 21.9843C248.978 21.8242 248.585 21.8012 248.219 21.9194C247.854 22.0376 247.541 22.2892 247.337 22.6287C247.133 22.9682 247.051 23.3732 247.107 23.7703C247.163 24.1675 247.352 24.5307 247.64 24.7941C247.929 25.0575 248.298 25.2038 248.68 25.2065C249.062 25.2092 249.433 25.0681 249.725 24.8088C250.017 24.5494 250.211 24.189 250.271 23.7926C252.99 23.3896 255.478 21.9704 257.28 19.7957C259.081 17.6211 260.075 14.837 260.079 11.9547Z" fill="#F4F4F4"/>
<path d="M229.982 11.9547C229.982 8.78414 228.783 5.74341 226.647 3.50146C224.512 1.25951 221.616 0 218.596 0C215.576 0 212.68 1.25951 210.544 3.50146C208.409 5.74341 207.209 8.78414 207.209 11.9547H208.173C208.173 9.85473 208.748 7.799 209.83 6.03289C210.912 4.26678 212.456 2.86489 214.276 1.99451C216.096 1.12413 218.117 0.822036 220.096 1.12428C222.075 1.42652 223.93 2.32032 225.439 3.69903C226.948 5.07774 228.047 6.88312 228.605 8.8997C229.163 10.9163 229.157 13.0589 228.587 15.0718C228.017 17.0848 226.907 18.883 225.39 20.2519C223.874 21.6209 222.014 22.5027 220.033 22.7921C219.866 22.4307 219.581 22.1439 219.231 21.9835C218.88 21.8232 218.486 21.7999 218.121 21.9179C217.755 22.036 217.442 22.2875 217.237 22.627C217.033 22.9665 216.951 23.3715 217.007 23.7689C217.062 24.1662 217.251 24.5296 217.54 24.7932C217.828 25.0569 218.197 25.2034 218.58 25.2062C218.962 25.2091 219.333 25.0681 219.625 24.8089C219.917 24.5496 220.111 24.1891 220.172 23.7926C222.891 23.3901 225.38 21.9712 227.182 19.7965C228.984 17.6218 229.979 14.8373 229.982 11.9547Z" fill="#F4F4F4"/>
<path d="M199.886 11.9547C199.867 8.79756 198.658 5.77667 196.525 3.55143C194.392 1.32619 191.507 0.0772705 188.499 0.0772705C185.492 0.0772705 182.607 1.32619 180.474 3.55143C178.341 5.77667 177.132 8.79756 177.113 11.9547H178.076C178.076 9.85459 178.651 7.79869 179.733 6.03242C180.816 4.26614 182.359 2.86409 184.179 1.9936C186 1.12311 188.02 0.820953 190 1.12319C191.979 1.42542 193.834 2.31928 195.343 3.69808C196.852 5.07689 197.951 6.8824 198.509 8.89913C199.067 10.9159 199.061 13.0586 198.491 15.0717C197.921 17.0847 196.811 18.8831 195.294 20.252C193.777 21.621 191.917 22.5028 189.936 22.7922C189.769 22.431 189.484 22.1444 189.134 21.9843C188.783 21.8242 188.39 21.8012 188.024 21.9194C187.659 22.0376 187.346 22.2892 187.142 22.6287C186.938 22.9682 186.856 23.3732 186.912 23.7703C186.967 24.1675 187.156 24.5307 187.445 24.7941C187.734 25.0575 188.102 25.2038 188.485 25.2065C188.867 25.2092 189.238 25.0681 189.53 24.8088C189.821 24.5494 190.015 24.189 190.076 23.7926C192.795 23.3901 195.284 21.9712 197.086 19.7965C198.888 17.6218 199.882 14.8374 199.886 11.9547Z" fill="#F4F4F4"/>
<path d="M169.789 11.9547C169.789 8.78414 168.59 5.74341 166.454 3.50146C164.319 1.25951 161.423 0 158.403 0C155.383 0 152.487 1.25951 150.352 3.50146C148.216 5.74341 147.017 8.78414 147.017 11.9547H147.98C147.98 9.85473 148.555 7.799 149.637 6.03289C150.72 4.26678 152.263 2.86488 154.083 1.99451C155.903 1.12413 157.924 0.822035 159.903 1.12427C161.882 1.42651 163.737 2.32032 165.246 3.69903C166.755 5.07774 167.854 6.88312 168.412 8.8997C168.97 10.9163 168.964 13.0589 168.394 15.0718C167.824 17.0848 166.714 18.883 165.197 20.2519C163.681 21.6209 161.821 22.5027 159.84 22.7921C159.673 22.4307 159.389 22.1439 159.038 21.9835C158.687 21.8232 158.293 21.7999 157.928 21.9179C157.562 22.036 157.249 22.2875 157.045 22.627C156.84 22.9665 156.758 23.3715 156.814 23.7689C156.869 24.1662 157.059 24.5296 157.347 24.7932C157.636 25.0569 158.004 25.2034 158.387 25.2062C158.769 25.2091 159.14 25.0681 159.432 24.8089C159.724 24.5496 159.918 24.1891 159.979 23.7926C162.698 23.3901 165.187 21.9712 166.989 19.7965C168.791 17.6218 169.786 14.8373 169.789 11.9547Z" fill="#F4F4F4"/>
<path d="M139.693 11.9547C139.674 8.79756 138.465 5.77667 136.332 3.55143C134.199 1.32619 131.314 0.0772705 128.307 0.0772705C125.299 0.0772705 122.414 1.32619 120.281 3.55143C118.148 5.77667 116.939 8.79756 116.92 11.9547H117.883C117.883 9.85459 118.458 7.79869 119.541 6.03242C120.623 4.26614 122.166 2.86409 123.986 1.9936C125.807 1.12311 127.827 0.820953 129.807 1.12319C131.786 1.42542 133.641 2.31928 135.15 3.69808C136.659 5.07689 137.758 6.8824 138.316 8.89913C138.874 10.9159 138.868 13.0586 138.298 15.0717C137.728 17.0847 136.618 18.8831 135.101 20.252C133.584 21.621 131.724 22.5028 129.743 22.7922C129.576 22.431 129.292 22.1444 128.941 21.9843C128.59 21.8242 128.197 21.8012 127.831 21.9194C127.466 22.0376 127.153 22.2892 126.949 22.6287C126.745 22.9682 126.663 23.3732 126.719 23.7703C126.774 24.1675 126.964 24.5307 127.252 24.7941C127.541 25.0575 127.91 25.2038 128.292 25.2065C128.674 25.2092 129.045 25.0681 129.337 24.8088C129.629 24.5494 129.822 24.189 129.883 23.7926C132.602 23.3901 135.091 21.9712 136.893 19.7965C138.695 17.6218 139.69 14.8374 139.693 11.9547Z" fill="#F4F4F4"/>
<g opacity="0.6">
<path opacity="0.6" d="M98.2102 3.01627e-07C95.1914 0.00361484 92.2972 1.26429 90.1625 3.50545C88.0279 5.74662 86.8272 8.78525 86.8237 11.9547H87.7873C87.787 9.85473 88.3623 7.799 89.4445 6.03289C90.5266 4.26678 92.07 2.86489 93.8903 1.99451C95.7105 1.12413 97.7309 0.822036 99.7103 1.12428C101.69 1.42652 103.544 2.32032 105.053 3.69903C106.562 5.07774 107.661 6.88312 108.219 8.8997C108.777 10.9163 108.771 13.0589 108.201 15.0718C107.631 17.0848 106.521 18.883 105.005 20.2519C103.488 21.6209 101.628 22.5027 99.6468 22.7921C99.4799 22.4309 99.1954 22.1444 98.8448 21.9843C98.4941 21.8242 98.1005 21.8012 97.7351 21.9194C97.3697 22.0376 97.0566 22.2892 96.8525 22.6287C96.6485 22.9682 96.5669 23.3732 96.6226 23.7703C96.6782 24.1675 96.8674 24.5306 97.156 24.7941C97.4445 25.0575 97.8133 25.2038 98.1957 25.2064C98.578 25.2091 98.9487 25.0681 99.2405 24.8087C99.5324 24.5494 99.7263 24.189 99.787 23.7926C102.643 23.3741 105.24 21.8336 107.056 19.4823C108.872 17.1309 109.771 14.1438 109.571 11.124C109.371 8.10413 108.087 5.27646 105.978 3.21181C103.87 1.14716 101.093 -0.000679324 98.2102 3.01627e-07Z" fill="#292A2E"/>
<path opacity="0.6" d="M320.271 11.9547C320.271 8.78414 319.071 5.74341 316.936 3.50146C314.801 1.25951 311.904 0 308.885 0C305.865 0 302.968 1.25951 300.833 3.50146C298.698 5.74341 297.498 8.78414 297.498 11.9547H298.462C298.461 9.85473 299.037 7.799 300.119 6.03289C301.201 4.26678 302.744 2.86488 304.565 1.99451C306.385 1.12413 308.405 0.822035 310.385 1.12428C312.364 1.42652 314.219 2.32032 315.727 3.69903C317.236 5.07774 318.335 6.88312 318.893 8.8997C319.452 10.9163 319.445 13.0589 318.875 15.0718C318.305 17.0848 317.196 18.883 315.679 20.2519C314.162 21.6209 312.302 22.5027 310.321 22.7921C310.154 22.4309 309.87 22.1444 309.519 21.9843C309.168 21.8242 308.775 21.8012 308.409 21.9194C308.044 22.0376 307.731 22.2892 307.527 22.6287C307.323 22.9682 307.241 23.3732 307.297 23.7703C307.353 24.1675 307.542 24.5306 307.83 24.7941C308.119 25.0575 308.488 25.2038 308.87 25.2064C309.252 25.2091 309.623 25.0681 309.915 24.8087C310.207 24.5494 310.401 24.189 310.461 23.7926C313.18 23.39 315.669 21.971 317.471 19.7963C319.273 17.6216 320.267 14.8373 320.271 11.9547Z" fill="#292A2E"/>
<path opacity="0.6" d="M290.175 11.9547C290.156 8.79756 288.947 5.77667 286.814 3.55143C284.681 1.32619 281.796 0.0772705 278.789 0.0772705C275.781 0.0772705 272.896 1.32619 270.763 3.55143C268.63 5.77667 267.421 8.79756 267.402 11.9547H268.365C268.365 9.85459 268.94 7.79869 270.022 6.03242C271.105 4.26614 272.648 2.86409 274.468 1.9936C276.289 1.12311 278.309 0.820953 280.289 1.12319C282.268 1.42542 284.123 2.31928 285.632 3.69808C287.141 5.07689 288.24 6.8824 288.798 8.89913C289.356 10.9159 289.35 13.0586 288.78 15.0717C288.21 17.0847 287.1 18.8831 285.583 20.252C284.066 21.621 282.206 22.5028 280.225 22.7922C280.058 22.431 279.774 22.1444 279.423 21.9843C279.072 21.8242 278.679 21.8012 278.313 21.9194C277.948 22.0376 277.635 22.2892 277.431 22.6287C277.227 22.9682 277.145 23.3732 277.201 23.7703C277.256 24.1675 277.446 24.5307 277.734 24.7941C278.023 25.0575 278.391 25.2038 278.774 25.2065C279.156 25.2092 279.527 25.0681 279.819 24.8088C280.111 24.5494 280.304 24.189 280.365 23.7926C283.084 23.3901 285.573 21.9712 287.375 19.7965C289.177 17.6218 290.172 14.8374 290.175 11.9547Z" fill="#292A2E"/>
<path opacity="0.6" d="M260.079 11.9547C260.059 8.79756 258.851 5.77667 256.718 3.55143C254.585 1.32619 251.7 0.0772705 248.692 0.0772705C245.685 0.0772705 242.8 1.32619 240.667 3.55143C238.534 5.77667 237.325 8.79756 237.306 11.9547H238.269C238.269 9.85472 238.844 7.79895 239.926 6.03278C241.008 4.2666 242.552 2.86461 244.372 1.99411C246.192 1.12361 248.213 0.821357 250.192 1.12343C252.171 1.42551 254.026 2.31915 255.535 3.69771C257.044 5.07628 258.143 6.88154 258.702 8.89807C259.26 10.9146 259.254 13.0572 258.684 15.0703C258.115 17.0833 257.005 18.8818 255.489 20.251C253.972 21.6202 252.112 22.5023 250.131 22.7922C249.964 22.431 249.68 22.1444 249.329 21.9843C248.978 21.8242 248.585 21.8012 248.219 21.9194C247.854 22.0376 247.541 22.2892 247.337 22.6287C247.133 22.9682 247.051 23.3732 247.107 23.7703C247.163 24.1675 247.352 24.5307 247.64 24.7941C247.929 25.0575 248.298 25.2038 248.68 25.2065C249.062 25.2092 249.433 25.0681 249.725 24.8088C250.017 24.5494 250.211 24.189 250.271 23.7926C252.99 23.3896 255.478 21.9704 257.28 19.7957C259.081 17.6211 260.075 14.837 260.079 11.9547Z" fill="#292A2E"/>
<path opacity="0.6" d="M229.982 11.9547C229.982 8.78414 228.783 5.74341 226.647 3.50146C224.512 1.25951 221.616 0 218.596 0C215.576 0 212.68 1.25951 210.544 3.50146C208.409 5.74341 207.209 8.78414 207.209 11.9547H208.173C208.173 9.85473 208.748 7.799 209.83 6.03289C210.912 4.26678 212.456 2.86489 214.276 1.99451C216.096 1.12413 218.117 0.822036 220.096 1.12428C222.075 1.42652 223.93 2.32032 225.439 3.69903C226.948 5.07774 228.047 6.88312 228.605 8.8997C229.163 10.9163 229.157 13.0589 228.587 15.0718C228.017 17.0848 226.907 18.883 225.39 20.2519C223.874 21.6209 222.014 22.5027 220.033 22.7921C219.866 22.4307 219.581 22.1439 219.231 21.9835C218.88 21.8232 218.486 21.7999 218.121 21.9179C217.755 22.036 217.442 22.2875 217.237 22.627C217.033 22.9665 216.951 23.3715 217.007 23.7689C217.062 24.1662 217.251 24.5296 217.54 24.7932C217.828 25.0569 218.197 25.2034 218.58 25.2062C218.962 25.2091 219.333 25.0681 219.625 24.8089C219.917 24.5496 220.111 24.1891 220.172 23.7926C222.891 23.3901 225.38 21.9712 227.182 19.7965C228.984 17.6218 229.979 14.8373 229.982 11.9547Z" fill="#292A2E"/>
<path opacity="0.6" d="M199.886 11.9547C199.867 8.79756 198.658 5.77667 196.525 3.55143C194.392 1.32619 191.507 0.0772705 188.499 0.0772705C185.492 0.0772705 182.607 1.32619 180.474 3.55143C178.341 5.77667 177.132 8.79756 177.113 11.9547H178.076C178.076 9.85459 178.651 7.79869 179.733 6.03242C180.816 4.26614 182.359 2.86409 184.179 1.9936C186 1.12311 188.02 0.820953 190 1.12319C191.979 1.42542 193.834 2.31928 195.343 3.69808C196.852 5.07689 197.951 6.8824 198.509 8.89913C199.067 10.9159 199.061 13.0586 198.491 15.0717C197.921 17.0847 196.811 18.8831 195.294 20.252C193.777 21.621 191.917 22.5028 189.936 22.7922C189.769 22.431 189.484 22.1444 189.134 21.9843C188.783 21.8242 188.39 21.8012 188.024 21.9194C187.659 22.0376 187.346 22.2892 187.142 22.6287C186.938 22.9682 186.856 23.3732 186.912 23.7703C186.967 24.1675 187.156 24.5307 187.445 24.7941C187.734 25.0575 188.102 25.2038 188.485 25.2065C188.867 25.2092 189.238 25.0681 189.53 24.8088C189.821 24.5494 190.015 24.189 190.076 23.7926C192.795 23.3901 195.284 21.9712 197.086 19.7965C198.888 17.6218 199.882 14.8374 199.886 11.9547Z" fill="#292A2E"/>
<path opacity="0.6" d="M169.789 11.9547C169.789 8.78414 168.59 5.74341 166.454 3.50146C164.319 1.25951 161.423 0 158.403 0C155.383 0 152.487 1.25951 150.352 3.50146C148.216 5.74341 147.017 8.78414 147.017 11.9547H147.98C147.98 9.85473 148.555 7.799 149.637 6.03289C150.72 4.26678 152.263 2.86488 154.083 1.99451C155.903 1.12413 157.924 0.822035 159.903 1.12427C161.882 1.42651 163.737 2.32032 165.246 3.69903C166.755 5.07774 167.854 6.88312 168.412 8.8997C168.97 10.9163 168.964 13.0589 168.394 15.0718C167.824 17.0848 166.714 18.883 165.197 20.2519C163.681 21.6209 161.821 22.5027 159.84 22.7921C159.673 22.4307 159.389 22.1439 159.038 21.9835C158.687 21.8232 158.293 21.7999 157.928 21.9179C157.562 22.036 157.249 22.2875 157.045 22.627C156.84 22.9665 156.758 23.3715 156.814 23.7689C156.869 24.1662 157.059 24.5296 157.347 24.7932C157.636 25.0569 158.004 25.2034 158.387 25.2062C158.769 25.2091 159.14 25.0681 159.432 24.8089C159.724 24.5496 159.918 24.1891 159.979 23.7926C162.698 23.3901 165.187 21.9712 166.989 19.7965C168.791 17.6218 169.786 14.8373 169.789 11.9547Z" fill="#292A2E"/>
<path opacity="0.6" d="M139.693 11.9547C139.674 8.79756 138.465 5.77667 136.332 3.55143C134.199 1.32619 131.314 0.0772705 128.307 0.0772705C125.299 0.0772705 122.414 1.32619 120.281 3.55143C118.148 5.77667 116.939 8.79756 116.92 11.9547H117.883C117.883 9.85459 118.458 7.79869 119.541 6.03242C120.623 4.26614 122.166 2.86409 123.986 1.9936C125.807 1.12311 127.827 0.820953 129.807 1.12319C131.786 1.42542 133.641 2.31928 135.15 3.69808C136.659 5.07689 137.758 6.8824 138.316 8.89913C138.874 10.9159 138.868 13.0586 138.298 15.0717C137.728 17.0847 136.618 18.8831 135.101 20.252C133.584 21.621 131.724 22.5028 129.743 22.7922C129.576 22.431 129.292 22.1444 128.941 21.9843C128.59 21.8242 128.197 21.8012 127.831 21.9194C127.466 22.0376 127.153 22.2892 126.949 22.6287C126.745 22.9682 126.663 23.3732 126.719 23.7703C126.774 24.1675 126.964 24.5307 127.252 24.7941C127.541 25.0575 127.91 25.2038 128.292 25.2065C128.674 25.2092 129.045 25.0681 129.337 24.8088C129.629 24.5494 129.822 24.189 129.883 23.7926C132.602 23.3901 135.091 21.9712 136.893 19.7965C138.695 17.6218 139.69 14.8374 139.693 11.9547Z" fill="#292A2E"/>
</g>
<path d="M36.5174 366.608C36.4541 366.609 36.3914 366.596 36.333 366.57C36.2745 366.545 36.2214 366.507 36.1768 366.46C35.498 365.748 34.3914 352.673 31.4112 313.744C30.1919 297.815 29.04 282.769 28.1993 273.626C28.1396 272.973 27.8982 272.897 27.8192 272.872C26.6683 272.507 23.1692 275.404 21.2157 277.941C21.1759 277.993 21.1268 278.036 21.0712 278.067C21.0156 278.099 20.9546 278.119 20.8916 278.126C20.8287 278.133 20.765 278.127 20.7043 278.108C20.6436 278.089 20.5871 278.058 20.5378 278.016C20.4886 277.975 20.4477 277.923 20.4175 277.865C20.3872 277.806 20.3682 277.742 20.3616 277.676C20.3549 277.61 20.3607 277.543 20.3786 277.48C20.3966 277.416 20.4263 277.356 20.4661 277.305C21.7581 275.628 25.9687 271.231 28.0962 271.903C28.525 272.038 29.0573 272.43 29.1561 273.528C29.9972 282.68 31.1496 297.73 32.3694 313.663C34.1804 337.319 36.2317 364.12 36.9062 365.808C36.9577 365.883 36.9885 365.972 36.9952 366.064C37.0018 366.157 36.9841 366.25 36.944 366.332C36.9038 366.415 36.8428 366.484 36.7676 366.533C36.6923 366.582 36.6058 366.608 36.5174 366.608Z" fill="#494949"/>
<path d="M26.962 290.402C34.9563 283.674 37.6059 273.203 32.8801 267.013C28.1543 260.823 17.8427 261.259 9.84842 267.987C1.85416 274.715 -0.795458 285.187 3.93033 291.377C8.65611 297.566 18.9677 297.13 26.962 290.402Z" fill="#0CBC52"/>
<path opacity="0.2" d="M26.962 290.402C34.9563 283.674 37.6059 273.203 32.8801 267.013C28.1543 260.823 17.8427 261.259 9.84842 267.987C1.85416 274.715 -0.795458 285.187 3.93033 291.377C8.65611 297.566 18.9677 297.13 26.962 290.402Z" fill="white"/>
<path d="M6.17108 292.95C6.11492 292.95 6.06047 292.93 6.0174 292.892C5.96878 292.849 5.93817 292.788 5.93222 292.721C5.92626 292.655 5.94545 292.589 5.9856 292.538L28.7686 263.692C28.7888 263.666 28.8136 263.645 28.8416 263.63C28.8696 263.614 28.9003 263.605 28.9318 263.602C28.9633 263.599 28.9951 263.602 29.0253 263.612C29.0556 263.622 29.0837 263.638 29.108 263.659C29.1324 263.68 29.1525 263.706 29.1673 263.736C29.182 263.765 29.1911 263.797 29.1941 263.83C29.197 263.863 29.1937 263.897 29.1844 263.928C29.175 263.96 29.1598 263.99 29.1396 264.015L6.35897 292.859C6.33606 292.888 6.30731 292.911 6.27481 292.927C6.24231 292.942 6.20688 292.95 6.17108 292.95Z" fill="white"/>
<path d="M41.4865 360.422C41.4096 360.422 41.3339 360.403 41.2656 360.366C41.1973 360.329 41.1384 360.275 41.0939 360.21C41.0494 360.144 41.0205 360.068 41.0097 359.988C40.9989 359.908 41.0064 359.826 41.0317 359.75L49.5897 333.91C49.8417 333.151 50.2711 332.47 50.8385 331.93C51.406 331.391 52.0933 331.009 52.8377 330.82C53.5821 330.632 54.3596 330.642 55.0991 330.851C55.8386 331.059 56.5164 331.459 57.0705 332.014L61.5952 336.552C61.6877 336.645 61.7412 336.772 61.7442 336.906C61.7471 337.04 61.6992 337.17 61.6109 337.267C61.5226 337.364 61.4012 337.421 61.2734 337.424C61.1456 337.427 61.0219 337.376 60.9294 337.284L56.4052 332.746C55.9678 332.308 55.4326 331.992 54.8488 331.827C54.265 331.662 53.6511 331.654 53.0635 331.803C52.4758 331.952 51.9332 332.253 51.4852 332.679C51.0372 333.106 50.6982 333.643 50.4993 334.242L41.9417 360.084C41.9087 360.183 41.8472 360.268 41.7656 360.329C41.684 360.39 41.5865 360.423 41.4865 360.422Z" fill="#494949"/>
<path d="M74.234 350.857C80.1585 345.934 79.8065 335.105 73.4477 326.671C67.0888 318.236 57.1312 315.39 51.2067 320.314C45.2822 325.237 45.6343 336.066 51.9931 344.5C58.352 352.935 68.3095 355.781 74.234 350.857Z" fill="#08916A"/>
<path d="M32.6296 364.958C32.5214 364.958 32.4163 364.92 32.3313 364.849C32.2463 364.779 32.1865 364.681 32.1614 364.57L17.7995 301.524C17.7013 301.094 17.4921 300.701 17.195 300.388C16.8979 300.075 16.5244 299.855 16.1156 299.75C15.7067 299.645 15.2783 299.661 14.8774 299.796C14.4765 299.93 14.1187 300.178 13.8433 300.512L9.41592 305.884C9.37472 305.935 9.32432 305.977 9.26761 306.007C9.21091 306.037 9.14903 306.056 9.08556 306.061C9.02209 306.066 8.95828 306.058 8.89782 306.037C8.83737 306.016 8.78146 305.983 8.73333 305.939C8.6852 305.895 8.64581 305.842 8.61743 305.782C8.58904 305.722 8.57224 305.657 8.56798 305.59C8.56371 305.524 8.57208 305.457 8.5926 305.393C8.61311 305.33 8.64537 305.272 8.6875 305.222L13.1144 299.851C13.5059 299.376 14.0146 299.023 14.5846 298.832C15.1545 298.641 15.7636 298.619 16.3448 298.768C16.9261 298.917 17.4569 299.231 17.879 299.676C18.301 300.121 18.598 300.68 18.7371 301.291L33.0969 364.335C33.1266 364.465 33.1058 364.603 33.0389 364.717C32.972 364.831 32.8647 364.913 32.7404 364.944C32.7042 364.954 32.667 364.958 32.6296 364.958Z" fill="#494949"/>
<path d="M27.3306 319.889C29.0765 309.29 24.4561 299.601 17.0107 298.249C9.56538 296.898 2.11445 304.394 0.368622 314.994C-1.37721 325.594 3.24317 335.282 10.6885 336.634C18.1339 337.986 25.5848 330.489 27.3306 319.889Z" fill="#0CBC52"/>
<path d="M36.5172 366.608C36.4974 366.608 36.4776 366.607 36.4579 366.605C36.3951 366.597 36.3344 366.576 36.2793 366.543C36.2242 366.51 36.1757 366.466 36.1368 366.414C36.0978 366.362 36.069 366.302 36.0522 366.238C36.0353 366.174 36.0305 366.107 36.0383 366.041L45.2096 287.862C45.3095 287.011 45.6416 286.208 46.1659 285.549C46.6902 284.891 47.3844 284.406 48.165 284.152C48.9457 283.898 49.7796 283.886 50.5665 284.118C51.3534 284.35 52.0598 284.815 52.6008 285.458L63.083 297.923C63.1248 297.973 63.157 298.031 63.1775 298.094C63.198 298.156 63.2066 298.223 63.2026 298.289C63.1987 298.356 63.1824 298.42 63.1546 298.48C63.1267 298.54 63.088 298.593 63.0406 298.637C62.9931 298.681 62.9379 298.715 62.878 298.736C62.8181 298.758 62.7548 298.767 62.6917 298.763C62.6285 298.759 62.5667 298.741 62.5099 298.712C62.453 298.683 62.4022 298.642 62.3603 298.593L51.8781 286.128C51.4601 285.631 50.9142 285.271 50.306 285.092C49.6978 284.913 49.0533 284.922 48.45 285.118C47.8466 285.314 47.3101 285.689 46.9049 286.198C46.4997 286.707 46.2431 287.328 46.1659 287.986L36.9951 366.162C36.9813 366.285 36.925 366.398 36.8369 366.48C36.7489 366.563 36.6351 366.608 36.5172 366.608Z" fill="#494949"/>
<path d="M73.8341 304.85C77.4914 297.908 73.1883 288.06 64.223 282.853C55.2576 277.646 45.0249 279.053 41.3677 285.995C37.7104 292.936 42.0135 302.785 50.9788 307.991C59.9442 313.198 70.1769 311.791 73.8341 304.85Z" fill="#0CBC52"/>
<path opacity="0.2" d="M74.234 350.857C80.1585 345.934 79.8065 335.105 73.4477 326.671C67.0888 318.236 57.1312 315.39 51.2067 320.314C45.2822 325.237 45.6343 336.066 51.9931 344.5C58.352 352.935 68.3095 355.781 74.234 350.857Z" fill="white"/>
<path opacity="0.5" d="M27.3306 319.889C29.0765 309.29 24.4561 299.601 17.0107 298.249C9.56538 296.898 2.11445 304.394 0.368622 314.994C-1.37721 325.594 3.24317 335.282 10.6885 336.634C18.1339 337.986 25.5848 330.489 27.3306 319.889Z" fill="white"/>
<path opacity="0.5" d="M73.8341 304.85C77.4914 297.908 73.1883 288.06 64.223 282.853C55.2576 277.646 45.0249 279.053 41.3677 285.995C37.7104 292.936 42.0135 302.785 50.9788 307.991C59.9442 313.198 70.1769 311.791 73.8341 304.85Z" fill="white"/>
<path d="M48.2471 432.938H24.7868L20.8994 354.132H52.1345L48.2471 432.938Z" fill="#292A2E"/>
<path opacity="0.3" d="M48.2471 432.938H24.7868L20.8994 354.132H52.1345L48.2471 432.938Z" fill="white"/>
<path d="M74.2359 351.109C74.1996 351.109 74.1637 351.1 74.131 351.084C74.0983 351.067 74.0696 351.043 74.0471 351.013L51.0189 320.469C50.9992 320.443 50.9847 320.413 50.976 320.381C50.9673 320.349 50.9648 320.316 50.9684 320.283C50.972 320.25 50.9818 320.218 50.9972 320.189C51.0126 320.16 51.0333 320.134 51.0581 320.114C51.0829 320.093 51.1114 320.078 51.1418 320.069C51.1722 320.06 51.2041 320.057 51.2355 320.061C51.2669 320.065 51.2973 320.075 51.3249 320.091C51.3526 320.107 51.3769 320.129 51.3966 320.155L74.4248 350.699C74.453 350.736 74.4706 350.781 74.4756 350.828C74.4806 350.875 74.4728 350.923 74.4531 350.966C74.4333 351.009 74.4025 351.045 74.3641 351.07C74.3257 351.096 74.2813 351.109 74.2359 351.109Z" fill="white"/>
<path d="M72.3027 307.297C72.2506 307.297 72.1998 307.279 72.1581 307.246L42.6931 284.658C42.6676 284.639 42.6459 284.614 42.6295 284.585C42.613 284.557 42.602 284.526 42.5971 284.493C42.5922 284.46 42.5936 284.426 42.601 284.394C42.6085 284.362 42.6219 284.331 42.6406 284.305C42.6593 284.278 42.6828 284.255 42.7098 284.238C42.7368 284.22 42.7668 284.209 42.7981 284.204C42.8294 284.199 42.8613 284.2 42.8921 284.208C42.9228 284.216 42.9518 284.23 42.9774 284.249L72.4448 306.84C72.4851 306.872 72.5149 306.916 72.53 306.967C72.5452 307.017 72.5449 307.071 72.5292 307.121C72.5135 307.172 72.4832 307.215 72.4426 307.247C72.402 307.278 72.353 307.295 72.3027 307.295V307.297Z" fill="white"/>
<path d="M9.49035 336.305C9.46938 336.304 9.4485 336.302 9.4282 336.296C9.3665 336.279 9.31386 336.236 9.28188 336.178C9.2499 336.12 9.24119 336.051 9.25766 335.986L18.6381 299.086C18.6559 299.023 18.6964 298.97 18.7511 298.938C18.8058 298.905 18.8703 298.897 18.9309 298.914C18.9915 298.931 19.0435 298.972 19.0757 299.028C19.1079 299.085 19.1178 299.152 19.1034 299.216L9.72545 336.117C9.71166 336.171 9.68107 336.219 9.63851 336.253C9.59594 336.287 9.54382 336.305 9.49035 336.305Z" fill="white"/>
<path d="M405.805 150.129L407.159 148.958C407.585 148.574 407.856 148.035 407.918 147.449C407.98 146.863 407.828 146.275 407.493 145.802C407.311 145.565 407.086 145.368 406.83 145.225C406.574 145.082 406.293 144.996 406.004 144.97C405.715 144.945 405.425 144.982 405.15 145.079C404.875 145.175 404.622 145.33 404.406 145.533L388.329 160.516L392.773 166.047C394.154 167.765 395.991 169.011 398.05 169.625C400.109 170.239 402.296 170.193 404.33 169.494L413.54 166.31C414.021 166.154 414.437 165.829 414.716 165.388C414.996 164.948 415.121 164.42 415.072 163.893C414.946 162.855 405.805 150.129 405.805 150.129Z" fill="#E98862"/>
<path d="M396.196 150.245L351.848 164.673L324.804 116.574L301.699 130.759L335.792 188.606L336.008 188.895C337.796 191.223 340.23 192.908 342.972 193.715C345.715 194.522 348.628 194.411 351.308 193.397L404.171 173.293L396.196 150.245Z" fill="#ABCBFF"/>
<path d="M423.261 403.36L386.286 405.184L372.025 150.302L409.001 148.478L423.261 403.36Z" fill="#FB9300"/>
<path opacity="0.5" d="M423.261 403.36L386.286 405.184L372.025 150.302L409.001 148.478L423.261 403.36Z" fill="white"/>
<path d="M407.744 120.393L370.769 122.218L372.026 150.299L409.001 148.475L407.744 120.393Z" fill="#262626"/>
<path d="M423.263 403.359C423.263 403.359 418.189 412.608 413.617 420.879C409.991 427.438 406.68 433.382 406.466 433.604C406.246 433.835 402.113 428.065 397.645 421.667C392.214 413.893 386.285 405.185 386.285 405.185L423.263 403.359Z" fill="#367CFF"/>
<path opacity="0.9" d="M423.263 403.359C423.263 403.359 418.189 412.608 413.617 420.879C409.991 427.438 406.68 433.382 406.466 433.604C406.246 433.835 402.113 428.065 397.645 421.667C392.214 413.893 386.285 405.185 386.285 405.185L423.263 403.359Z" fill="white"/>
<path d="M413.617 420.881C409.991 427.441 406.679 433.385 406.466 433.607C406.246 433.837 402.113 428.067 397.645 421.67L413.617 420.881Z" fill="#F54748"/>
<path d="M411.745 403.854L396.833 149.129L398.52 149.04L413.432 403.764L411.745 403.854Z" fill="white"/>
<path d="M397.279 404.574L382.367 149.849L384.054 149.76L398.966 404.484L397.279 404.574Z" fill="white"/>
<path d="M403.44 162.014C403.439 161.525 403.591 161.049 403.871 160.658C404.152 160.268 404.547 159.984 404.995 159.851C404.979 159.815 404.917 159.74 404.977 159.714L403.221 159.388C402.701 159.303 402.229 159.024 401.89 158.602C401.551 158.18 401.369 157.644 401.378 157.092C401.404 156.547 401.621 156.032 401.988 155.646C402.355 155.26 402.845 155.031 403.364 155.002C403.351 154.985 403.355 154.96 403.349 154.939L402.626 154.804C402.137 154.722 401.69 154.466 401.36 154.078C401.03 153.689 400.838 153.194 400.817 152.674C400.81 152.348 400.872 152.024 400.998 151.727C401.125 151.429 401.313 151.164 401.549 150.952C401.784 150.739 402.062 150.584 402.362 150.498C402.661 150.412 402.975 150.397 403.281 150.454L404.947 150.763C404.947 150.754 404.94 150.746 404.941 150.737C404.943 150.727 404.955 150.718 404.959 150.707C404.52 150.513 404.158 150.169 403.93 149.731C403.703 149.293 403.624 148.787 403.706 148.296C403.84 147.013 405.284 146.536 406.361 146.736L409.707 147.646C410.223 147.787 410.698 148.059 411.09 148.438C411.482 148.817 411.779 149.293 411.954 149.821C413.468 154.399 417.152 166.453 413.714 165.813L405.252 164.239C404.757 164.133 404.31 163.856 403.982 163.453C403.654 163.05 403.463 162.544 403.44 162.014Z" fill="#E98862"/>
<path d="M262.82 69.343C262.82 69.343 257.834 64.812 257.144 55.1405C256.61 47.6546 262.82 52.915 262.82 52.915C262.82 52.915 262.485 47.519 266.161 48.3121C269.837 49.1052 271.557 54.8684 271.557 54.8684" fill="#0C0C0C"/>
<path d="M285.305 50.2878C285.305 50.2878 303.588 53.6559 295.258 79.3863H290.299" fill="#0C0C0C"/>
<path d="M298.361 402.285C298.361 402.285 304.212 412.66 296.728 420.505C289.244 428.351 296.535 433.364 296.535 433.364L326.727 405.271L313.358 389.433L298.361 402.285Z" fill="#646464"/>
<path d="M246.99 197.793C246.99 197.793 243.591 300.709 244.023 305.732C245.658 324.732 298.914 410.825 298.914 410.825L318.745 393.048L293.421 339.194L277.412 301.663C277.412 301.663 280.167 269.385 287.596 239.412C291.396 224.029 293.684 208.277 294.422 192.403L246.99 197.793Z" fill="#262626"/>
<path d="M297.385 411.399C297.385 411.399 295.21 423.234 284.653 423.897C274.096 424.559 276.387 433.386 276.387 433.386H316.729V412.225L297.385 411.399Z" fill="#646464"/>
<path d="M319.463 195.455C319.463 195.455 319.337 191.896 319.364 199.969C319.463 230.079 318.508 418.954 318.508 418.954L291.999 418.72L275.94 194.23L319.463 195.455Z" fill="#262626"/>
<path d="M281.384 270.756L279.21 235.85C279.21 235.85 276.977 250.362 276.977 262.869C276.977 268.983 278.177 293.188 278.177 293.188L281.384 270.756Z" fill="#0A0A0A"/>
<path d="M284.92 319.264L290.434 396.855L285.272 388.137L279.996 307.723L284.92 319.264Z" fill="#0A0A0A"/>
<path d="M264.715 106.136C264.796 106.125 265.696 121.812 283.054 120.445C295.07 119.499 299.354 106.114 299.629 106.114C298.334 105.825 296.733 105.386 296.096 105.236C294.71 104.898 293.454 104.125 292.496 103.019C291.538 101.913 290.923 100.528 290.734 99.0465C290.382 96.821 290.978 85.4474 290.795 83.1976L272.35 87.5202C272.608 92.2712 274.412 103.286 268.09 105.236C267.037 105.558 265.904 105.855 264.715 106.136Z" fill="#E98862"/>
<path opacity="0.52" d="M272.092 100.734C272.381 99.7569 272.567 98.749 272.646 97.7289C272.849 95.401 272.809 93.0568 272.526 90.7382C276.275 90.2068 279.807 88.5822 282.72 86.0488C283.063 87.3771 284.946 93.1807 284.425 94.4417C283.439 96.8276 278.807 100.734 272.092 100.734Z" fill="#0C0C0C"/>
<path d="M275.365 96.9444C282.67 96.7714 291.667 92.5666 292.452 82.2279L293.162 72.8994C293.947 62.5607 289.412 53.7465 280.141 52.9706C270.869 52.1937 263.302 59.9942 262.517 70.3329L262.203 74.4628C262.118 75.8827 262.127 77.307 262.227 78.7257C262.468 82.4778 262.842 88.1843 265.002 92.1766C267.04 95.9459 270.699 97.0546 275.365 96.9444Z" fill="#E98862"/>
<path opacity="0.52" d="M272.601 87.2516C271.098 87.2175 269.624 86.8129 268.297 86.0706C268.269 86.0565 268.243 86.0366 268.222 86.012C268.201 85.9875 268.185 85.9588 268.175 85.9276C268.165 85.8964 268.161 85.8634 268.163 85.8306C268.165 85.7977 268.174 85.7657 268.188 85.7363C268.202 85.7069 268.222 85.6809 268.246 85.6596C268.27 85.6384 268.298 85.6224 268.328 85.6126C268.358 85.6029 268.389 85.5995 268.42 85.6028C268.452 85.606 268.482 85.6158 268.509 85.6315C271.372 87.1581 274.06 87.1535 276.283 85.6174C276.328 85.5847 276.374 85.5547 276.422 85.5274C276.478 85.4986 276.543 85.4944 276.602 85.5157C276.661 85.5369 276.709 85.5819 276.736 85.6407C276.764 85.6994 276.768 85.7672 276.748 85.829C276.727 85.8909 276.685 85.9417 276.629 85.9704C276.611 85.9805 276.58 86.0013 276.541 86.0291C275.373 86.8392 274.001 87.2649 272.601 87.2516Z" fill="#0C0C0C"/>
<path opacity="0.52" d="M272.521 89.5849C272.251 89.5833 271.98 89.5574 271.714 89.5075C271.652 89.4963 271.598 89.46 271.562 89.4065C271.526 89.3531 271.512 89.2869 271.523 89.2225C271.533 89.1581 271.568 89.1008 271.619 89.0632C271.67 89.0256 271.733 89.0107 271.794 89.0219C273.404 89.3173 274.228 88.5915 274.263 88.5601C274.309 88.5171 274.371 88.4953 274.433 88.4996C274.495 88.5039 274.553 88.534 274.594 88.5832C274.635 88.6323 274.655 88.6966 274.651 88.7618C274.647 88.827 274.619 88.8878 274.572 88.9309C273.981 89.3914 273.256 89.6226 272.521 89.5849Z" fill="#0C0C0C"/>
<path d="M265.267 75.1557C265.899 75.1557 266.412 74.6172 266.412 73.9529C266.412 73.2886 265.899 72.7501 265.267 72.7501C264.634 72.7501 264.121 73.2886 264.121 73.9529C264.121 74.6172 264.634 75.1557 265.267 75.1557Z" fill="#0C0C0C"/>
<path d="M275.884 75.2317C276.517 75.2317 277.03 74.6931 277.03 74.0289C277.03 73.3646 276.517 72.826 275.884 72.826C275.251 72.826 274.738 73.3646 274.738 74.0289C274.738 74.6931 275.251 75.2317 275.884 75.2317Z" fill="#0C0C0C"/>
<path d="M291.637 85.3295C294.455 85.5652 296.979 82.5921 297.204 79.6337C297.429 76.6752 295.269 74.8528 292.451 74.6166L290.849 76.4779L289.215 85.1272L291.637 85.3295Z" fill="#E98862"/>
<path d="M243.149 140.671C243.696 147.415 246.356 189.487 246.881 197.793H319.325C319.734 190.302 321.572 157.543 323.124 142.893C324.605 128.914 327.512 121.409 325.381 117.276C321.9 110.522 312.387 107.124 305.901 106.202C301.94 105.64 295.982 105.236 295.982 105.236C295.982 105.236 295.478 115.949 283.451 116.545C267.077 117.355 268.171 105.236 268.09 105.236C262.146 105.236 250.895 106.729 246.578 109.812C236.87 116.743 241.989 126.381 243.149 140.671Z" fill="#ABCBFF"/>
<path d="M289.135 80.3727C289.135 80.3727 289.117 65.6643 284.944 64.4625C282.166 63.6623 275.068 67.376 268.824 65.6643C266.092 64.9152 263.418 65.4499 263.063 66.8034C262.923 67.3395 261.697 59.4085 266.41 53.7865C270.161 49.3106 281.537 48.7724 286.577 50.6813C300.528 55.9665 292.989 75.3009 292.989 75.3009L292.033 80.3044L289.135 80.3727Z" fill="#0C0C0C"/>
<g opacity="0.52">
<path opacity="0.52" d="M271.116 83.674H271.098C270.19 83.6007 268.674 83.3705 268.726 82.6573C268.77 82.0666 270.78 75.8118 271.009 75.1006C271.019 75.0703 271.034 75.0423 271.054 75.0183C271.074 74.9942 271.098 74.9745 271.126 74.9603C271.153 74.9461 271.183 74.9377 271.213 74.9356C271.243 74.9335 271.274 74.9376 271.303 74.9479C271.332 74.9581 271.358 74.9742 271.381 74.9952C271.404 75.0163 271.423 75.0418 271.436 75.0705C271.45 75.0991 271.458 75.1303 271.46 75.1622C271.462 75.1941 271.458 75.2261 271.448 75.2564C270.556 78.0267 269.219 82.2937 269.189 82.6948C269.265 82.8708 270.193 83.1121 271.133 83.1884C271.192 83.194 271.247 83.2233 271.287 83.2702C271.326 83.3171 271.347 83.378 271.344 83.4404C271.342 83.5028 271.317 83.5619 271.275 83.6056C271.232 83.6492 271.175 83.6741 271.116 83.675V83.674Z" fill="#0C0C0C"/>
</g>
<path d="M268.485 70.2605C268.128 70.103 267.752 69.9967 267.368 69.9444C266.969 69.8865 266.565 69.8865 266.167 69.9444C265.766 69.997 265.376 70.1131 265.008 70.2889C264.634 70.4659 264.281 70.6916 263.96 70.9606L263.935 70.9808C263.852 71.0452 263.748 71.0735 263.646 71.0598C263.543 71.0461 263.45 70.9915 263.385 70.9074C263.32 70.8233 263.288 70.716 263.296 70.608C263.305 70.5 263.352 70.3994 263.429 70.3273C263.785 69.98 264.182 69.6812 264.609 69.4381C265.043 69.1891 265.509 69.0099 265.994 68.9065C266.982 68.6881 268.009 68.755 268.964 69.1002C269.038 69.1279 269.107 69.1707 269.166 69.2262C269.225 69.2818 269.273 69.349 269.307 69.424C269.341 69.499 269.361 69.5803 269.366 69.6634C269.37 69.7464 269.359 69.8295 269.332 69.908C269.306 69.9864 269.265 70.0587 269.212 70.1206C269.159 70.1825 269.095 70.2328 269.024 70.2688C268.952 70.3047 268.875 70.3255 268.796 70.33C268.717 70.3345 268.638 70.3226 268.563 70.2949C268.548 70.2894 268.534 70.2838 268.52 70.2772L268.485 70.2605Z" fill="#0C0C0C"/>
<path d="M275.21 69.2004C275.691 69.0231 276.194 68.9188 276.704 68.8908C277.199 68.8585 277.695 68.8975 278.18 69.0067C278.664 69.1102 279.131 69.2894 279.564 69.5383C279.992 69.7817 280.388 70.0809 280.744 70.4285C280.823 70.4999 280.872 70.6007 280.881 70.7095C280.891 70.8183 280.859 70.9266 280.794 71.0116C280.728 71.0965 280.634 71.1514 280.531 71.1646C280.427 71.1779 280.323 71.1484 280.24 71.0825L280.213 71.0613C279.892 70.7923 279.54 70.5666 279.165 70.3896C278.798 70.2138 278.409 70.0975 278.009 70.0446C277.611 69.9867 277.207 69.9867 276.809 70.0446C276.424 70.0969 276.048 70.2032 275.69 70.3607L275.657 70.3764C275.584 70.41 275.506 70.4284 275.427 70.4304C275.348 70.4323 275.269 70.4179 275.195 70.3879C275.121 70.3579 275.054 70.313 274.996 70.2556C274.939 70.1982 274.893 70.1295 274.861 70.0535C274.829 69.9774 274.812 69.8955 274.81 69.8123C274.808 69.7292 274.822 69.6465 274.85 69.5689C274.879 69.4913 274.922 69.4204 274.976 69.3602C275.031 69.3 275.096 69.2518 275.169 69.2181C275.182 69.212 275.196 69.2055 275.21 69.2004Z" fill="#0C0C0C"/>
<path d="M276.19 54.5438C277.038 51.3633 276.057 48.2947 273.999 47.69C271.941 47.0853 269.585 49.1734 268.737 52.354C267.889 55.5345 268.87 58.6031 270.928 59.2078C272.986 59.8125 275.342 57.7243 276.19 54.5438Z" fill="#0C0C0C"/>
<path d="M240.327 208.784C240.626 208.676 240.898 208.5 241.125 208.269C241.351 208.037 241.526 207.756 241.636 207.445C241.746 207.134 241.789 206.801 241.762 206.47C241.735 206.14 241.638 205.82 241.479 205.533L242.876 208.042C243.15 208.557 243.599 208.944 244.133 209.124C244.667 209.305 245.247 209.266 245.755 209.015C246.013 208.876 246.241 208.683 246.425 208.448C246.61 208.213 246.747 207.942 246.828 207.65C246.909 207.357 246.933 207.051 246.897 206.749C246.862 206.447 246.768 206.155 246.622 205.893L247.254 207.029C247.5 207.49 247.891 207.848 248.36 208.041C248.829 208.235 249.347 208.252 249.827 208.091C250.126 207.983 250.398 207.807 250.625 207.576C250.851 207.344 251.026 207.062 251.136 206.751C251.246 206.44 251.289 206.108 251.262 205.777C251.235 205.446 251.138 205.126 250.979 204.839L249.871 202.85C250.156 203.363 250.624 203.736 251.172 203.887C251.719 204.038 252.301 203.954 252.79 203.655C253.909 203.069 253.835 201.455 253.274 200.446L251.192 196.373L252.567 197.517C253.014 197.873 253.574 198.038 254.132 197.979C254.691 197.919 255.207 197.639 255.576 197.195C255.759 196.959 255.894 196.686 255.974 196.394C256.053 196.101 256.075 195.794 256.037 195.493C256 195.191 255.905 194.9 255.757 194.638C255.609 194.376 255.412 194.149 255.178 193.97L242.66 185.682L233.628 186.349C232.319 188.127 231.546 190.275 231.407 192.518C231.269 194.76 231.771 196.995 232.85 198.936L237.754 207.719C238 208.181 238.391 208.539 238.86 208.733C239.328 208.927 239.847 208.945 240.327 208.784Z" fill="#E98862"/>
<path d="M248.461 200.362C248.456 200.313 248.467 200.264 248.493 200.223C248.519 200.182 248.557 200.152 248.602 200.137C248.646 200.123 248.695 200.126 248.738 200.145C248.781 200.164 248.816 200.198 248.838 200.241L250.217 202.999C250.229 203.024 250.237 203.051 250.239 203.078C250.242 203.106 250.239 203.133 250.231 203.16C250.223 203.186 250.211 203.211 250.194 203.232C250.177 203.253 250.156 203.271 250.133 203.284C250.11 203.296 250.084 203.304 250.058 203.307C250.032 203.309 250.005 203.306 249.98 203.298C249.955 203.29 249.932 203.277 249.911 203.259C249.891 203.241 249.874 203.22 249.862 203.195L248.483 200.437C248.472 200.413 248.464 200.388 248.461 200.362Z" fill="#E98862"/>
<path d="M244.747 202.416C244.742 202.367 244.753 202.318 244.779 202.278C244.805 202.237 244.843 202.207 244.887 202.193C244.931 202.178 244.979 202.18 245.022 202.199C245.065 202.217 245.101 202.25 245.123 202.293L247.043 206.062C247.056 206.086 247.063 206.113 247.066 206.141C247.069 206.168 247.066 206.196 247.058 206.222C247.051 206.249 247.038 206.273 247.022 206.295C247.005 206.316 246.984 206.334 246.961 206.347C246.938 206.36 246.912 206.368 246.886 206.371C246.86 206.374 246.834 206.371 246.808 206.363C246.783 206.355 246.76 206.342 246.739 206.324C246.719 206.307 246.702 206.285 246.69 206.261L244.769 202.492C244.757 202.468 244.749 202.442 244.747 202.416Z" fill="#E98862"/>
<path d="M240.711 204.616C240.706 204.567 240.717 204.517 240.743 204.476C240.769 204.435 240.808 204.405 240.853 204.391C240.898 204.377 240.947 204.38 240.99 204.4C241.033 204.419 241.068 204.454 241.089 204.498L241.957 206.3C241.981 206.35 241.985 206.408 241.968 206.461C241.952 206.514 241.916 206.558 241.868 206.583C241.821 206.608 241.766 206.613 241.715 206.595C241.665 206.578 241.623 206.54 241.599 206.49L240.731 204.688C240.721 204.665 240.714 204.641 240.711 204.616Z" fill="#E98862"/>
<path opacity="0.2" d="M248.461 200.362C248.456 200.313 248.467 200.264 248.493 200.223C248.519 200.182 248.557 200.152 248.602 200.137C248.646 200.123 248.695 200.126 248.738 200.145C248.781 200.164 248.816 200.198 248.838 200.241L250.217 202.999C250.229 203.024 250.237 203.051 250.239 203.078C250.242 203.106 250.239 203.133 250.231 203.16C250.223 203.186 250.211 203.211 250.194 203.232C250.177 203.253 250.156 203.271 250.133 203.284C250.11 203.296 250.084 203.304 250.058 203.307C250.032 203.309 250.005 203.306 249.98 203.298C249.955 203.29 249.932 203.277 249.911 203.259C249.891 203.241 249.874 203.22 249.862 203.195L248.483 200.437C248.472 200.413 248.464 200.388 248.461 200.362Z" fill="#0C0C0C"/>
<path opacity="0.2" d="M244.747 202.416C244.742 202.367 244.753 202.318 244.779 202.278C244.805 202.237 244.843 202.207 244.887 202.193C244.931 202.178 244.979 202.18 245.022 202.199C245.065 202.217 245.101 202.25 245.123 202.293L247.043 206.062C247.056 206.086 247.063 206.113 247.066 206.141C247.069 206.168 247.066 206.196 247.058 206.222C247.051 206.249 247.038 206.273 247.022 206.295C247.005 206.316 246.984 206.334 246.961 206.347C246.938 206.36 246.912 206.368 246.886 206.371C246.86 206.374 246.834 206.371 246.808 206.363C246.783 206.355 246.76 206.342 246.739 206.324C246.719 206.307 246.702 206.285 246.69 206.261L244.769 202.492C244.757 202.468 244.749 202.442 244.747 202.416Z" fill="#0C0C0C"/>
<path opacity="0.2" d="M240.711 204.616C240.706 204.567 240.717 204.517 240.743 204.476C240.769 204.435 240.808 204.405 240.853 204.391C240.898 204.377 240.947 204.38 240.99 204.4C241.033 204.419 241.068 204.454 241.089 204.498L241.957 206.3C241.981 206.35 241.985 206.408 241.968 206.461C241.952 206.514 241.916 206.558 241.868 206.583C241.821 206.608 241.766 206.613 241.715 206.595C241.665 206.578 241.623 206.54 241.599 206.49L240.731 204.688C240.721 204.665 240.714 204.641 240.711 204.616Z" fill="#0C0C0C"/>
<path d="M259.397 135.781C259.397 135.781 253.583 107.161 246.986 109.545C241.752 111.435 202.43 145.457 201.236 146.69C198.608 149.407 197.115 153.108 197.085 156.981C197.056 160.853 198.493 164.579 201.08 167.339L231.687 204.106L249.35 186.722L226.123 160.37L259.397 135.781Z" fill="#ABCBFF"/>
<path d="M243.55 148.177C243.503 148.177 243.457 148.158 243.423 148.124C243.389 148.091 243.368 148.045 243.364 147.996L242.586 136.681C242.585 136.655 242.588 136.629 242.595 136.605C242.603 136.581 242.615 136.558 242.631 136.539C242.647 136.519 242.666 136.503 242.688 136.492C242.71 136.48 242.734 136.473 242.758 136.471C242.782 136.469 242.807 136.472 242.831 136.479C242.854 136.487 242.876 136.5 242.894 136.517C242.913 136.534 242.928 136.554 242.939 136.577C242.95 136.6 242.957 136.625 242.958 136.651L243.735 147.967C243.737 147.992 243.734 148.018 243.727 148.042C243.719 148.067 243.707 148.089 243.691 148.109C243.675 148.128 243.656 148.144 243.634 148.156C243.612 148.167 243.588 148.174 243.564 148.176L243.55 148.177Z" fill="#0C0C0C"/>
<path d="M321.483 165.431H321.469C321.421 165.429 321.375 165.406 321.341 165.368C321.308 165.33 321.291 165.28 321.293 165.229L322.578 138.129C322.583 138.077 322.605 138.03 322.641 137.996C322.678 137.961 322.725 137.943 322.774 137.944C322.798 137.945 322.822 137.951 322.844 137.962C322.867 137.973 322.886 137.988 322.903 138.007C322.919 138.026 322.932 138.049 322.94 138.073C322.948 138.097 322.952 138.123 322.951 138.148L321.665 165.247C321.662 165.296 321.642 165.342 321.608 165.376C321.574 165.41 321.53 165.43 321.483 165.431Z" fill="#0C0C0C"/>
<path d="M425.512 434H10.4886C10.3898 434 10.2951 433.959 10.2253 433.885C10.1554 433.812 10.1162 433.713 10.1162 433.609C10.1162 433.505 10.1554 433.406 10.2253 433.333C10.2951 433.259 10.3898 433.218 10.4886 433.218H425.512C425.61 433.218 425.705 433.259 425.775 433.333C425.845 433.406 425.884 433.505 425.884 433.609C425.884 433.713 425.845 433.812 425.775 433.885C425.705 433.959 425.61 434 425.512 434Z" fill="#3F3F3F"/>
</g>
<defs>
<clipPath id="clip0_6_900">
<rect width="437" height="434" fill="white"/>
</clipPath>
</defs>
</svg>
