<svg width="73" height="75" viewBox="0 0 73 75" fill="none" xmlns="http://www.w3.org/2000/svg">
<path d="M70.9463 29.4343H65.6079C65.1836 29.435 64.7696 29.3001 64.4232 29.0483C64.0768 28.7965 63.8153 28.4403 63.6747 28.029C63.2659 26.8236 62.7826 25.6464 62.2276 24.5044C62.0358 24.1094 61.9702 23.6624 62.0399 23.2269C62.1097 22.7913 62.3113 22.3895 62.6161 22.0784L66.4106 18.1806C66.7961 17.7842 67.0126 17.2468 67.0126 16.6865C67.0126 16.1262 66.7961 15.5888 66.4106 15.1923L58.2135 6.77525C57.8277 6.37924 57.3045 6.1568 56.7591 6.1568C56.2137 6.1568 55.6906 6.37924 55.3047 6.77525L51.4421 10.7434C51.1414 11.0535 50.7539 11.2595 50.3338 11.3324C49.9136 11.4053 49.4817 11.3415 49.0986 11.15C48.0083 10.6029 46.8854 10.1273 45.7366 9.72618C45.3317 9.58449 44.9803 9.31603 44.7317 8.95852C44.4831 8.60101 44.3498 8.17245 44.3506 7.73309V2.11174C44.3507 1.83441 44.2975 1.55978 44.1943 1.30354C44.091 1.04731 43.9396 0.814502 43.7487 0.618398C43.5578 0.422295 43.3312 0.266746 43.0817 0.160639C42.8323 0.0545329 42.565 -5.15745e-05 42.295 3.65656e-08H30.7073C30.4373 -5.15745e-05 30.17 0.0545329 29.9206 0.160639C29.6711 0.266746 29.4445 0.422295 29.2536 0.618398C29.0627 0.814502 28.9113 1.04731 28.808 1.30354C28.7047 1.55978 28.6516 1.83441 28.6517 2.11174V7.73309C28.6524 8.17245 28.5192 8.60101 28.2706 8.95852C28.022 9.31603 27.6705 9.58449 27.2657 9.72618C26.1168 10.1274 24.9938 10.603 23.9033 11.15C23.5201 11.3416 23.0882 11.4054 22.668 11.3325C22.2477 11.2596 21.8601 11.0536 21.5594 10.7434L17.6968 6.77525C17.3109 6.37924 16.7878 6.1568 16.2424 6.1568C15.697 6.1568 15.1739 6.37924 14.788 6.77525L6.59127 15.1923C6.2058 15.5888 5.98927 16.1262 5.98927 16.6865C5.98927 17.2468 6.2058 17.7842 6.59127 18.1806L10.3854 22.0784C10.6903 22.3894 10.892 22.7913 10.9618 23.2268C11.0316 23.6623 10.966 24.1094 10.7743 24.5044C10.219 25.6458 9.73676 26.8231 9.33065 28.029C9.18892 28.4402 8.92658 28.7962 8.57974 29.0479C8.2329 29.2995 7.81864 29.4346 7.394 29.4343H2.05559C1.78564 29.4342 1.5183 29.4887 1.26886 29.5947C1.01942 29.7008 0.792772 29.8563 0.601867 30.0524C0.410963 30.2484 0.259548 30.4812 0.156275 30.7375C0.0530033 30.9937 -0.000100226 31.2683 3.20566e-07 31.5457V43.4539C-0.000150496 43.7313 0.0529159 44.006 0.156166 44.2622C0.259415 44.5185 0.410823 44.7514 0.601732 44.9475C0.792641 45.1436 1.01931 45.2992 1.26877 45.4052C1.51823 45.5113 1.7856 45.5658 2.05559 45.5657H7.25365C7.68596 45.5655 8.10728 45.7055 8.45753 45.9659C8.80777 46.2262 9.06904 46.5935 9.20407 47.0154C9.60506 48.2534 10.0849 49.4629 10.6405 50.6362C10.8289 51.0313 10.8927 51.477 10.823 51.9112C10.7533 52.3453 10.5536 52.7463 10.2516 53.0583L6.59051 56.8194C6.39948 57.0153 6.24793 57.2481 6.14453 57.5042C6.04113 57.7604 5.98791 58.035 5.98791 58.3123C5.98791 58.5896 6.04113 58.8643 6.14453 59.1204C6.24793 59.3766 6.39948 59.6093 6.59051 59.8053L14.7872 68.2259C15.1731 68.6219 15.6962 68.8444 16.2416 68.8444C16.7871 68.8444 17.3102 68.6219 17.696 68.2259L21.2852 64.5387C21.591 64.2253 21.985 64.0187 22.4115 63.9482C22.8379 63.8777 23.2752 63.9468 23.6613 64.1458C24.8222 64.7418 26.0214 65.2556 27.2504 65.684C27.6579 65.8257 28.012 66.0948 28.263 66.4536C28.5141 66.8125 28.6496 67.243 28.6505 67.6849V72.8847C28.6501 73.1623 28.703 73.4373 28.8061 73.6939C28.9092 73.9505 29.0606 74.1837 29.2515 74.3801C29.4424 74.5766 29.6691 74.7324 29.9187 74.8388C30.1683 74.9452 30.4359 74.9999 30.7061 75H42.2939C42.5641 74.9999 42.8317 74.9452 43.0813 74.8388C43.3309 74.7324 43.5576 74.5766 43.7485 74.3801C43.9394 74.1837 44.0908 73.9505 44.1939 73.6939C44.297 73.4373 44.3499 73.1623 44.3495 72.8847V67.6849C44.3503 67.243 44.4857 66.8124 44.7368 66.4535C44.9879 66.0947 45.3421 65.8256 45.7496 65.684C46.9786 65.2556 48.1777 64.7417 49.3387 64.1458C49.7248 63.9468 50.162 63.8777 50.5885 63.9482C51.015 64.0187 51.409 64.2253 51.7148 64.5387L55.3036 68.2259C55.6894 68.6219 56.2126 68.8444 56.758 68.8444C57.3034 68.8444 57.8265 68.6219 58.2124 68.2259L66.4095 59.8053C66.6005 59.6093 66.7521 59.3766 66.8555 59.1204C66.9589 58.8643 67.0121 58.5896 67.0121 58.3123C67.0121 58.035 66.9589 57.7604 66.8555 57.5042C66.7521 57.2481 66.6005 57.0153 66.4095 56.8194L62.7484 53.0583C62.4464 52.7463 62.2467 52.3453 62.177 51.9112C62.1073 51.477 62.1711 51.0313 62.3595 50.6362C62.9149 49.4629 63.3948 48.2533 63.7959 47.0154C63.931 46.5935 64.1922 46.2262 64.5425 45.9659C64.8927 45.7055 65.314 45.5655 65.7463 45.5657H70.9444C71.2144 45.5658 71.4818 45.5113 71.7312 45.4052C71.9807 45.2992 72.2074 45.1436 72.3983 44.9475C72.5892 44.7514 72.7406 44.5185 72.8438 44.2622C72.9471 44.006 73.0001 43.7313 73 43.4539V31.5457C73.0001 31.2685 72.9471 30.994 72.8439 30.7379C72.7408 30.4818 72.5895 30.2491 72.3988 30.0531C72.2081 29.857 71.9817 29.7014 71.7325 29.5953C71.4832 29.4891 71.2161 29.4344 70.9463 29.4343ZM36.5011 55.0962C33.1131 55.0963 29.8011 54.0642 26.9841 52.1306C24.167 50.1969 21.9713 47.4485 20.6747 44.2329C19.3782 41.0172 19.0389 37.4788 19.6999 34.0651C20.3608 30.6514 21.9923 27.5157 24.388 25.0546C26.7837 22.5934 29.836 20.9174 33.159 20.2384C36.4819 19.5594 39.9262 19.9079 43.0563 21.2399C46.1864 22.5719 48.8618 24.8275 50.744 27.7216C52.6263 30.6156 53.6309 34.018 53.6308 37.4986C53.6306 42.1657 51.8258 46.6416 48.6134 49.9418C45.401 53.2419 41.0442 55.096 36.5011 55.0962Z" fill="#8DDBE0" fill-opacity="0.8"/>
</svg>
