<svg width="35" height="33" viewBox="0 0 35 33" fill="none" xmlns="http://www.w3.org/2000/svg">
<path d="M5.51961 16.227C4.1645 14.8534 3.40762 12.9996 3.4141 11.0701C3.42059 9.1405 4.18993 7.29181 5.55424 5.9274C6.91855 4.56299 8.7671 3.79359 10.6965 3.78711C12.6259 3.78062 14.4796 4.53756 15.8531 5.89276L17.4752 7.5199L19.0974 5.89761C20.4241 4.56986 22.211 3.80397 24.0873 3.75888C25.9637 3.7138 27.7853 4.39298 29.1742 5.65548C29.2565 5.72811 29.3437 5.81528 29.426 5.89761C30.7936 7.26846 31.5617 9.12585 31.5617 11.0623C31.5617 12.9988 30.7936 14.8561 29.426 16.227L17.4752 28.1835L5.51961 16.227Z" fill="#F3FDFF"/>
<path d="M31.5468 3.78135C29.7014 1.92838 27.2201 0.847165 24.6067 0.757225C21.9932 0.667285 19.4434 1.57536 17.4751 3.29709C15.456 1.61463 12.87 0.768112 10.247 0.931018C7.62393 1.09392 5.16251 2.25391 3.36711 4.17327C1.57171 6.09263 0.578299 8.62602 0.590442 11.2543C0.602585 13.8825 1.61937 16.4066 3.43243 18.3093L17.4751 32.4111L31.5468 18.3432C33.4756 16.4111 34.559 13.7925 34.559 11.0623C34.559 8.33209 33.4756 5.71346 31.5468 3.78135ZM17.4751 27.5007L5.85357 15.8783C4.59881 14.5929 3.90151 12.8646 3.91297 11.0683C3.92444 9.27196 4.64375 7.55263 5.91482 6.28338C7.18589 5.01413 8.90616 4.29736 10.7023 4.2886C12.4985 4.27983 14.2257 4.97979 15.5091 6.23658L17.4751 8.2027L19.4411 6.23658C20.6795 4.99668 22.3479 4.2813 24.0998 4.23891C25.8517 4.19653 27.5527 4.83041 28.8496 6.00898C28.932 6.08162 29.0094 6.1591 29.0869 6.23658C30.3643 7.5167 31.0817 9.25135 31.0817 11.0599C31.0817 12.8684 30.3643 14.603 29.0869 15.8832L17.4751 27.5007Z" fill="#FD5D76"/>
<path d="M19.7365 21.1713H19.7027C19.5963 21.1636 19.4954 21.121 19.4157 21.05C19.336 20.9791 19.282 20.8838 19.262 20.7791L18.2935 15.704L16.991 15.7621C16.8823 15.7661 16.7754 15.7334 16.6876 15.6693C16.5997 15.6051 16.536 15.5133 16.5067 15.4086L15.9111 13.3068L14.7102 17.457C14.6813 17.5528 14.6234 17.6373 14.5445 17.6989C14.4656 17.7605 14.3696 17.7961 14.2696 17.8008C14.1681 17.8088 14.0666 17.7845 13.9797 17.7314C13.8928 17.6784 13.8248 17.5993 13.7854 17.5054L12.8653 15.302H9.56773C9.4393 15.302 9.31614 15.251 9.22533 15.1602C9.13451 15.0694 9.0835 14.9462 9.0835 14.8177C9.0835 14.6893 9.13451 14.5661 9.22533 14.4753C9.31614 14.3845 9.4393 14.3335 9.56773 14.3335H13.2043C13.2993 14.3336 13.3923 14.3616 13.4715 14.4141C13.5507 14.4667 13.6127 14.5414 13.6498 14.6289L14.1728 15.8734L15.4802 11.4473C15.5104 11.3434 15.5744 11.2527 15.6622 11.1895C15.75 11.1263 15.8563 11.0943 15.9644 11.0986C16.0731 11.0946 16.18 11.1273 16.2678 11.1914C16.3556 11.2555 16.4193 11.3474 16.4486 11.4521L17.4171 14.7935L18.7294 14.7306C18.8433 14.7285 18.9544 14.7667 19.0429 14.8385C19.1315 14.9102 19.1919 15.0109 19.2136 15.1228L19.9206 18.8323L21.3442 14.7306C21.3772 14.6361 21.4387 14.5541 21.5202 14.496C21.6018 14.4379 21.6993 14.4065 21.7994 14.4061H25.4311C25.5595 14.4061 25.6827 14.4571 25.7735 14.548C25.8643 14.6388 25.9153 14.762 25.9153 14.8904C25.9153 15.0188 25.8643 15.142 25.7735 15.2328C25.6827 15.3236 25.5595 15.3747 25.4311 15.3747H22.0947L20.1917 20.8469C20.1587 20.9414 20.0972 21.0233 20.0157 21.0814C19.9342 21.1395 19.8366 21.1709 19.7365 21.1713Z" fill="#FD5D76"/>
</svg>
