<svg width="40" height="13" viewBox="0 0 40 13" fill="none" xmlns="http://www.w3.org/2000/svg">
<path d="M3.09736 12.8535C2.66953 12.8514 2.24672 12.7576 1.85532 12.578C1.46393 12.3984 1.11237 12.1367 0.822584 11.8095C0.532802 11.4822 0.311029 11.0963 0.171118 10.6759C0.031207 10.2556 -0.0238415 9.80969 0.00941806 9.36619C0.0554144 8.75146 0.269446 8.16321 0.626282 7.67075C0.983118 7.17829 1.46789 6.80214 2.02349 6.58662L20.5407 0.138682C20.8993 0.0148798 21.2795 -0.0267441 21.655 0.0166721C22.0306 0.0600883 22.3927 0.187512 22.7164 0.390196C25.262 2.22652 28.307 3.16537 31.4039 3.06876C33.8156 2.89065 36.1307 2.01137 38.085 0.531209C38.2571 0.38544 38.4654 0.293387 38.6857 0.265729C38.9061 0.238072 39.1294 0.275945 39.3299 0.374953C39.5304 0.473962 39.6998 0.630048 39.8184 0.8251C39.937 1.02015 39.9999 1.24618 40 1.47695V10.8909C40 11.1686 39.9473 11.4436 39.8448 11.7C39.7423 11.9565 39.5922 12.1894 39.4029 12.3854C39.2136 12.5813 38.989 12.7365 38.742 12.842C38.4949 12.9474 38.2302 13.0011 37.9631 13L3.09736 12.8535Z" fill="#0CBC8B"/>
</svg>
