<svg width="35" height="30" viewBox="0 0 35 30" fill="none" xmlns="http://www.w3.org/2000/svg">
<path d="M32.1778 2.71418C28.3012 -1.17035 21.8832 -0.296995 17.8425 3.42979L17.5882 3.67397L17.3136 3.40998C13.3568 -0.398913 6.93657 -1.40516 2.97495 2.39869C2.03275 3.30313 1.28509 4.37711 0.774647 5.55933C0.264204 6.74156 0.000976748 8.00886 2.7132e-06 9.28888C-0.000971321 10.5689 0.260322 11.8366 0.768965 13.0195C1.27761 14.2025 2.02365 15.2775 2.96447 16.1832L17.5795 29.9833C17.5909 29.994 17.6062 30 17.6221 30C17.638 30 17.6532 29.994 17.6646 29.9833L32.1778 16.2095C33.9888 14.3946 35 11.9769 35 9.46186C35 6.94683 33.9888 4.52914 32.1778 2.71418Z" fill="#F54748"/>
<path d="M21.0979 15.306C20.9589 15.3068 20.823 15.3457 20.7062 15.4182C20.5894 15.4906 20.4966 15.5936 20.4386 15.7151L19.2072 18.3441L17.4629 7.40077C17.4365 7.24064 17.3527 7.09442 17.226 6.98737C17.0993 6.88032 16.9377 6.81916 16.7691 6.81445C16.6026 6.81488 16.441 6.86861 16.3098 6.96715C16.1786 7.06569 16.0853 7.20343 16.0446 7.35863L13.9467 16.4725L13.4369 15.871C13.3693 15.7916 13.2843 15.7277 13.1879 15.6837C13.0915 15.6397 12.9861 15.6169 12.8795 15.6168H1.68542L2.26121 16.2204C2.30317 16.2647 2.347 16.3068 2.39307 16.3507L3.08538 17.0048H12.5344L13.7654 18.4587C13.8508 18.5601 13.9643 18.6364 14.0927 18.6787C14.2212 18.721 14.3594 18.7276 14.4916 18.6978C14.6238 18.668 14.7445 18.6029 14.84 18.5101C14.9355 18.4173 15.0018 18.3005 15.0313 18.1731L16.6212 11.2777L18.1492 20.8702C18.1709 21.0135 18.2393 21.1465 18.3446 21.25C18.4499 21.3536 18.5866 21.4223 18.7352 21.4464C18.7774 21.455 18.8205 21.459 18.8636 21.4583C19.0025 21.4579 19.1383 21.4192 19.2549 21.3466C19.3715 21.2741 19.4639 21.1708 19.5211 21.0492L21.5639 16.6914H31.797L32.1383 16.3673C32.2912 16.2139 32.4385 16.0569 32.5804 15.8962L33.1048 15.3031L21.0979 15.306Z" fill="white"/>
</svg>
