<svg width="36" height="38" viewBox="0 0 36 38" fill="none" xmlns="http://www.w3.org/2000/svg">
<path d="M26.486 35H9.51432C7.78726 34.998 6.13149 34.2652 4.91024 32.9626C3.68899 31.66 3.00201 29.8938 3 28.0515V9.94884C3.00183 8.10656 3.6887 6.34028 4.90991 5.03755C6.13111 3.73483 7.7869 3.00205 9.51399 3H26.4857C28.2128 3.00196 29.8687 3.73469 31.09 5.03743C32.3112 6.34017 32.9982 8.10649 33 9.94884V28.0526C32.9977 29.8946 32.3107 31.6604 31.0895 32.9628C29.8684 34.2652 28.2128 34.9979 26.486 35V35Z" stroke="#DEE8F5" stroke-width="6" stroke-miterlimit="10"/>
<path d="M14.4609 25.9858C14.2491 25.9861 14.0396 25.9379 13.8466 25.8446C13.6537 25.7512 13.4817 25.6148 13.3423 25.4446L8.3054 19.3021C8.04602 18.9858 7.91505 18.5726 7.94129 18.1533C7.96754 17.734 8.14886 17.343 8.44536 17.0663C8.74186 16.7896 9.12925 16.6499 9.52232 16.6779C9.91539 16.7059 10.2819 16.8993 10.5413 17.2156L14.622 22.1924L25.624 12.3818C25.7734 12.2464 25.9465 12.1439 26.1332 12.0802C26.3199 12.0166 26.5166 11.9929 26.712 12.0107C26.9073 12.0285 27.0974 12.0874 27.2713 12.1839C27.4452 12.2805 27.5994 12.4128 27.7252 12.5732C27.8509 12.7336 27.9456 12.9191 28.0038 13.1187C28.0621 13.3184 28.0827 13.5284 28.0644 13.7366C28.0462 13.9448 27.9896 14.1471 27.8977 14.3319C27.8058 14.5166 27.6806 14.6801 27.5292 14.8129L15.4132 25.6168C15.1463 25.8554 14.8092 25.9861 14.4609 25.9858Z" fill="#FD5D76"/>
</svg>
