<svg width="651" height="659" viewBox="0 0 651 659" fill="none" xmlns="http://www.w3.org/2000/svg">
<g clip-path="url(#clip0_5_769)">
<path d="M90.1042 487.049L88.6782 487.21L106.284 652.818L107.71 652.657L90.1042 487.049Z" fill="#292A2E"/>
<path d="M135.704 559.349L127.042 647.548L128.47 647.697L137.131 559.497L135.704 559.349Z" fill="#292A2E"/>
<path d="M150.598 636.886H86.3296V658.355H150.598V636.886Z" fill="#292A2E"/>
<path opacity="0.2" d="M150.598 636.886H86.3296V658.355H150.598V636.886Z" fill="white"/>
<path d="M189.343 597.356C201.518 580.7 195.715 555.06 176.38 540.086C157.046 525.112 131.503 526.475 119.328 543.131C107.153 559.787 112.957 585.428 132.291 600.402C151.625 615.375 177.169 614.012 189.343 597.356Z" fill="#C1D8ED"/>
<path opacity="0.2" d="M189.343 597.356C201.518 580.7 195.715 555.06 176.38 540.086C157.046 525.112 131.503 526.475 119.328 543.131C107.153 559.787 112.957 585.428 132.291 600.402C151.625 615.375 177.169 614.012 189.343 597.356Z" fill="white"/>
<path opacity="0.5" d="M189.341 597.359C188.523 598.483 187.631 599.547 186.671 600.543C173.269 609.356 153.487 607.969 137.794 595.813C118.461 580.842 112.658 555.202 124.835 538.546C125.653 537.425 126.543 536.361 127.498 535.362C140.907 526.541 160.682 527.935 176.382 540.086C195.714 555.062 201.516 580.703 189.341 597.359Z" fill="white"/>
<path d="M99.6497 534.165C118.803 518.946 124.009 492.847 111.277 475.869C98.5453 458.892 72.6973 457.466 53.5439 472.684C34.3906 487.902 29.1849 514.002 41.9167 530.979C54.6484 547.957 80.4964 549.383 99.6497 534.165Z" fill="#DEE8F5"/>
<path opacity="0.2" d="M93.5831 529.799C78.7498 541.592 59.8986 543.389 46.2339 535.712C44.6526 534.278 43.2082 532.692 41.9204 530.975C29.1864 514.002 34.3918 487.899 53.5444 472.684C68.3778 460.897 87.2289 459.093 100.887 466.765C102.472 468.199 103.918 469.787 105.206 471.508C117.941 488.481 112.736 514.583 93.5831 529.799Z" fill="white"/>
<path d="M606.938 377.452H391.398C386.27 377.452 382.113 381.731 382.113 387.009V497.095C382.113 502.374 386.27 506.653 391.398 506.653H606.938C612.066 506.653 616.224 502.374 616.224 497.095V387.009C616.224 381.731 612.066 377.452 606.938 377.452Z" fill="#F4F4F4"/>
<path d="M524.645 450.817H509.702C508.792 450.817 508.055 451.576 508.055 452.513V486.605C508.055 487.541 508.792 488.301 509.702 488.301H524.645C525.555 488.301 526.292 487.541 526.292 486.605V452.513C526.292 451.576 525.555 450.817 524.645 450.817Z" fill="white"/>
<path d="M560.655 415.037H545.713C544.803 415.037 544.065 415.796 544.065 416.733V486.605C544.065 487.541 544.803 488.301 545.713 488.301H560.655C561.565 488.301 562.303 487.541 562.303 486.605V416.733C562.303 415.796 561.565 415.037 560.655 415.037Z" fill="white"/>
<path d="M596.666 442.415H581.724C580.814 442.415 580.076 443.174 580.076 444.111V486.605C580.076 487.541 580.814 488.301 581.724 488.301H596.666C597.576 488.301 598.314 487.541 598.314 486.605V444.111C598.314 443.174 597.576 442.415 596.666 442.415Z" fill="white"/>
<path d="M416.612 450.817H401.67C400.76 450.817 400.022 451.576 400.022 452.513V486.605C400.022 487.541 400.76 488.301 401.67 488.301H416.612C417.522 488.301 418.26 487.541 418.26 486.605V452.513C418.26 451.576 417.522 450.817 416.612 450.817Z" fill="white"/>
<path d="M452.623 415.037H437.681C436.771 415.037 436.033 415.796 436.033 416.733V486.605C436.033 487.541 436.771 488.301 437.681 488.301H452.623C453.533 488.301 454.271 487.541 454.271 486.605V416.733C454.271 415.796 453.533 415.037 452.623 415.037Z" fill="white"/>
<path d="M488.634 442.415H473.692C472.782 442.415 472.044 443.174 472.044 444.111V486.605C472.044 487.541 472.782 488.301 473.692 488.301H488.634C489.544 488.301 490.282 487.541 490.282 486.605V444.111C490.282 443.174 489.544 442.415 488.634 442.415Z" fill="white"/>
<path d="M516.393 45.5218C516.393 45.5218 507.846 37.9068 506.667 21.6524C505.751 9.07119 516.397 17.912 516.397 17.912C516.397 17.912 515.824 8.84337 522.125 10.1763C528.426 11.5092 531.375 21.195 531.375 21.195" fill="#0C0C0C"/>
<path d="M554.938 13.4967C554.938 13.4967 586.279 19.1574 572.001 62.401H563.499" fill="#0C0C0C"/>
<path d="M575.646 620.395C575.646 620.395 571.917 640.287 553.82 641.4C535.723 642.513 539.647 657.348 539.647 657.348H608.804V621.783L575.646 620.395Z" fill="#646464"/>
<path d="M613.494 257.471C613.494 257.471 613.277 251.49 613.323 265.057C613.494 315.661 611.856 633.093 611.856 633.093L566.413 632.7L538.884 255.414L613.494 257.471Z" fill="#262626"/>
<path d="M498.046 620.395C498.046 620.395 494.317 640.287 476.22 641.4C458.123 642.513 462.048 657.348 462.048 657.348H531.205V621.783L498.046 620.395Z" fill="#646464"/>
<path d="M489.257 261.4C489.257 261.4 483.58 434.354 484.17 442.807L489.508 631.78L534.201 632.63L541.407 435.969C541.407 435.969 546.131 381.721 558.865 331.347C565.38 305.493 569.301 279.02 570.566 252.342L489.257 261.4Z" fill="#262626"/>
<path d="M548.217 384.025L544.492 325.361C544.492 325.361 540.664 349.749 540.664 370.77C540.664 381.045 542.72 421.726 542.72 421.726L548.217 384.025Z" fill="#0A0A0A"/>
<path d="M519.641 107.358C519.781 107.34 521.324 133.703 551.078 131.405C571.677 129.817 579.022 107.321 579.494 107.321C577.273 106.836 574.529 106.098 573.438 105.845C571.061 105.277 568.908 103.978 567.265 102.119C565.623 100.261 564.569 97.9324 564.244 95.4427C563.642 91.7024 564.664 72.5875 564.349 68.8063L532.73 76.0711C533.172 84.0559 536.264 102.568 525.426 105.844C523.623 106.387 521.68 106.885 519.641 107.358Z" fill="#E98862"/>
<path opacity="0.52" d="M532.287 98.2795C532.782 96.6363 533.101 94.9422 533.238 93.2275C533.586 89.3154 533.517 85.3759 533.032 81.4794C539.458 80.5863 545.512 77.8559 550.507 73.5983C551.094 75.8306 554.323 85.5844 553.429 87.7036C551.739 91.7135 543.798 98.2795 532.287 98.2795Z" fill="#0C0C0C"/>
<path d="M537.899 91.9098C550.42 91.6191 565.844 84.5515 567.191 67.1768L568.407 51.4987C569.753 34.1231 561.979 19.3096 546.085 18.0056C530.191 16.6998 517.219 29.8098 515.873 47.1854L515.334 54.1263C515.19 56.5127 515.204 58.9064 515.375 61.2908C515.788 67.5967 516.431 77.1873 520.133 83.897C523.629 90.2318 529.9 92.0952 537.899 91.9098Z" fill="#E98862"/>
<path opacity="0.52" d="M533.159 75.6155C530.582 75.558 528.055 74.878 525.781 73.6305C525.686 73.5807 525.614 73.494 525.581 73.3896C525.548 73.2852 525.557 73.1716 525.605 73.0737C525.654 72.9759 525.738 72.9018 525.839 72.8679C525.941 72.8339 526.051 72.8428 526.146 72.8927C531.054 75.4582 535.662 75.4497 539.472 72.8689C539.549 72.8138 539.629 72.7633 539.711 72.7175C539.807 72.6694 539.918 72.6625 540.018 72.6983C540.119 72.734 540.202 72.8096 540.249 72.9084C540.296 73.0071 540.303 73.121 540.268 73.2248C540.233 73.3287 540.16 73.4141 540.064 73.4622C540.033 73.4792 539.981 73.5141 539.915 73.5608C537.912 74.9224 535.559 75.6378 533.159 75.6155Z" fill="#0C0C0C"/>
<path opacity="0.52" d="M533.024 79.5412C532.558 79.5387 532.093 79.4952 531.634 79.4111C531.582 79.4017 531.532 79.3819 531.487 79.3527C531.443 79.3236 531.404 79.2856 531.374 79.2411C531.343 79.1966 531.322 79.1464 531.31 79.0933C531.299 79.0402 531.298 78.9853 531.307 78.9317C531.316 78.8781 531.335 78.8269 531.364 78.781C531.392 78.735 531.429 78.6953 531.472 78.6641C531.515 78.6328 531.564 78.6106 531.616 78.5988C531.667 78.5869 531.721 78.5857 531.773 78.595C534.533 79.0915 535.945 77.8716 536.004 77.8189C536.085 77.7465 536.189 77.71 536.296 77.7172C536.402 77.7245 536.502 77.775 536.572 77.8576C536.642 77.9402 536.678 78.0482 536.671 78.1578C536.664 78.2674 536.615 78.3697 536.534 78.442C535.523 79.2151 534.282 79.6035 533.024 79.5412Z" fill="#0C0C0C"/>
<path d="M520.587 57.8411C521.672 57.8411 522.551 56.9361 522.551 55.8196C522.551 54.7032 521.672 53.7982 520.587 53.7982C519.503 53.7982 518.624 54.7032 518.624 55.8196C518.624 56.9361 519.503 57.8411 520.587 57.8411Z" fill="#0C0C0C"/>
<path d="M540.439 57.9687C541.523 57.9687 542.402 57.0636 542.402 55.9472C542.402 54.8308 541.523 53.9257 540.439 53.9257C539.354 53.9257 538.475 54.8308 538.475 55.9472C538.475 57.0636 539.354 57.9687 540.439 57.9687Z" fill="#0C0C0C"/>
<path d="M565.793 72.3886C570.623 72.7856 574.951 67.7888 575.336 62.8167C575.721 57.8446 572.019 54.7818 567.189 54.3848L564.441 57.5122L561.64 72.0486L565.793 72.3886Z" fill="#E98862"/>
<path d="M482.673 165.399C483.61 176.732 488.169 247.44 489.07 261.4H613.257C613.959 248.81 617.109 193.754 619.769 169.134C622.308 145.639 627.291 133.877 623.639 126.931C617.671 115.579 601.363 109.018 590.244 107.469C583.455 106.524 573.242 105.845 573.242 105.845C573.242 105.845 572.377 123.85 551.759 124.852C523.692 126.212 525.566 105.845 525.427 105.845C520.88 105.845 494.905 108.808 488.55 112.685C471.233 123.24 480.683 141.382 482.673 165.399Z" fill="#C1D8ED"/>
<path d="M561.505 64.0612C561.505 64.0612 561.474 39.3417 554.324 37.3219C549.562 35.9771 537.393 42.2184 526.689 39.3417C522.005 38.0827 517.422 38.9813 516.815 41.2561C516.573 42.1572 514.472 28.8279 522.55 19.3793C528.982 11.8569 548.482 10.9524 557.122 14.1606C581.039 23.0431 568.115 55.5374 568.115 55.5374L566.475 63.9464L561.505 64.0612Z" fill="#0C0C0C"/>
<g opacity="0.52">
<path opacity="0.52" d="M530.617 69.6071H530.586C529.03 69.4839 526.432 69.0971 526.52 67.8985C526.595 66.9056 530.04 56.3935 530.433 55.1983C530.467 55.0955 530.539 55.0107 530.633 54.9625C530.728 54.9144 530.837 54.9068 530.937 54.9416C531.037 54.9763 531.119 55.0504 531.166 55.1477C531.213 55.2449 531.22 55.3573 531.186 55.4601C529.657 60.116 527.364 67.2864 527.313 67.9614C527.445 68.2572 529.035 68.6627 530.647 68.7911C530.749 68.8005 530.843 68.8497 530.91 68.9284C530.978 69.0072 531.013 69.1096 531.009 69.2145C531.005 69.3193 530.963 69.4187 530.89 69.4921C530.817 69.5655 530.719 69.6073 530.617 69.6088V69.6071Z" fill="#0C0C0C"/>
</g>
<path d="M526.106 47.0638C524.85 46.5293 523.479 46.3458 522.132 46.5317C521.446 46.6203 520.778 46.8155 520.15 47.1106C519.507 47.4081 518.903 47.7874 518.352 48.2395L518.308 48.2735C518.166 48.3868 517.987 48.4384 517.808 48.4172C517.63 48.396 517.466 48.3037 517.353 48.1601C517.24 48.0165 517.186 47.833 517.203 47.6489C517.219 47.4648 517.305 47.2948 517.442 47.1752C518.053 46.591 518.732 46.0886 519.465 45.6799C520.208 45.2618 521.008 44.9606 521.838 44.7865C522.669 44.6032 523.521 44.538 524.369 44.5926C525.242 44.6397 526.104 44.8148 526.929 45.1129C527.186 45.2082 527.395 45.404 527.512 45.6577C527.629 45.9114 527.644 46.2023 527.553 46.4672C527.463 46.7321 527.274 46.9494 527.029 47.0718C526.783 47.1942 526.501 47.2118 526.243 47.1208C526.218 47.1114 526.193 47.1021 526.17 47.091L526.106 47.0638Z" fill="#0C0C0C"/>
<path d="M537.637 45.2821C539.275 44.7019 541.034 44.5894 542.729 44.9565C543.559 45.1305 544.358 45.4317 545.101 45.8499C545.834 46.2587 546.514 46.7614 547.124 47.3461C547.259 47.4661 547.343 47.6355 547.359 47.8183C547.375 48.0012 547.321 48.1833 547.209 48.326C547.097 48.4687 546.935 48.561 546.758 48.5832C546.581 48.6055 546.402 48.556 546.26 48.4452L546.215 48.4095C545.664 47.9571 545.06 47.5778 544.417 47.2806C543.788 46.9852 543.12 46.7897 542.435 46.7008C541.088 46.5149 539.717 46.6985 538.461 47.233L538.403 47.2594C538.152 47.3751 537.866 47.3834 537.609 47.2824C537.352 47.1814 537.144 46.9794 537.032 46.7208C536.919 46.4622 536.911 46.1682 537.009 45.9035C537.107 45.6388 537.304 45.425 537.555 45.3093C537.582 45.3016 537.609 45.2906 537.637 45.2821Z" fill="#0C0C0C"/>
<path d="M539.313 20.6492C540.766 15.3039 539.085 10.1468 535.557 9.13047C532.029 8.11418 527.991 11.6236 526.537 16.9689C525.084 22.3143 526.766 27.4714 530.294 28.4877C533.822 29.504 537.86 25.9946 539.313 20.6492Z" fill="#0C0C0C"/>
<path d="M201.787 41.9846H10.1358C4.53796 41.9846 0 46.6556 0 52.4177V148.508C0 154.27 4.53796 158.941 10.1358 158.941H201.787C207.385 158.941 211.923 154.27 211.923 148.508V52.4177C211.923 46.6556 207.385 41.9846 201.787 41.9846Z" fill="#F4F4F4"/>
<path d="M129.024 108.396H115.496C114.673 108.396 114.005 109.083 114.005 109.931V140.793C114.005 141.64 114.673 142.327 115.496 142.327H129.024C129.847 142.327 130.514 141.64 130.514 140.793V109.931C130.514 109.083 129.847 108.396 129.024 108.396Z" fill="white"/>
<path d="M161.622 76.0074H148.095C147.271 76.0074 146.604 76.6944 146.604 77.5418V140.793C146.604 141.64 147.271 142.327 148.095 142.327H161.622C162.446 142.327 163.113 141.64 163.113 140.793V77.5418C163.113 76.6944 162.446 76.0074 161.622 76.0074Z" fill="white"/>
<path d="M194.22 100.791H180.692C179.869 100.791 179.202 101.478 179.202 102.325V140.793C179.202 141.64 179.869 142.327 180.692 142.327H194.22C195.043 142.327 195.711 141.64 195.711 140.793V102.325C195.711 101.478 195.043 100.791 194.22 100.791Z" fill="white"/>
<path d="M31.2307 108.396H17.7031C16.8798 108.396 16.2124 109.083 16.2124 109.931V140.793C16.2124 141.64 16.8798 142.327 17.7031 142.327H31.2307C32.054 142.327 32.7214 141.64 32.7214 140.793V109.931C32.7214 109.083 32.054 108.396 31.2307 108.396Z" fill="white"/>
<path d="M63.8284 76.0074H50.3007C49.4775 76.0074 48.8101 76.6944 48.8101 77.5418V140.793C48.8101 141.64 49.4775 142.327 50.3007 142.327H63.8284C64.6517 142.327 65.3191 141.64 65.3191 140.793V77.5418C65.3191 76.6944 64.6517 76.0074 63.8284 76.0074Z" fill="white"/>
<path d="M96.426 100.791H82.8984C82.0751 100.791 81.4077 101.478 81.4077 102.325V140.793C81.4077 141.64 82.0751 142.327 82.8984 142.327H96.426C97.2493 142.327 97.9167 141.64 97.9167 140.793V102.325C97.9167 101.478 97.2493 100.791 96.426 100.791Z" fill="white"/>
<path d="M455.923 0.850098H108.523C101.107 0.850098 95.0947 7.03855 95.0947 14.6724V435.692C95.0947 443.326 101.107 449.515 108.523 449.515H455.923C463.339 449.515 469.351 443.326 469.351 435.692V14.6724C469.351 7.03855 463.339 0.850098 455.923 0.850098Z" fill="white"/>
<path d="M455.923 450.365H108.523C104.744 450.36 101.121 448.813 98.4489 446.062C95.7766 443.312 94.2734 439.582 94.269 435.692V14.6724C94.2734 10.7824 95.7766 7.05304 98.4489 4.30241C101.121 1.55178 104.744 0.00449969 108.523 0L455.923 0C459.702 0.00449969 463.325 1.55178 465.997 4.30241C468.67 7.05304 470.173 10.7824 470.177 14.6724V435.692C470.173 439.582 468.67 443.312 465.997 446.062C463.325 448.813 459.702 450.36 455.923 450.365ZM108.523 1.70016C105.182 1.70421 101.979 3.07222 99.6163 5.50411C97.2537 7.936 95.9247 11.2332 95.9208 14.6724V435.692C95.9247 439.132 97.2537 442.429 99.6163 444.861C101.979 447.293 105.182 448.661 108.523 448.665H455.923C459.264 448.661 462.467 447.293 464.83 444.861C467.193 442.429 468.522 439.132 468.526 435.692V14.6724C468.522 11.2332 467.193 7.936 464.83 5.50411C462.467 3.07222 459.264 1.70421 455.923 1.70016H108.523Z" fill="#292A2E"/>
<path d="M321.557 68.7307C326.002 68.7307 329.606 65.0211 329.606 60.445C329.606 55.8689 326.002 52.1592 321.557 52.1592C317.111 52.1592 313.507 55.8689 313.507 60.445C313.507 65.0211 317.111 68.7307 321.557 68.7307Z" fill="#9EBCEA"/>
<path d="M321.557 68.7307C326.002 68.7307 329.606 65.0211 329.606 60.445C329.606 55.8689 326.002 52.1592 321.557 52.1592C317.111 52.1592 313.507 55.8689 313.507 60.445C313.507 65.0211 317.111 68.7307 321.557 68.7307Z" fill="#9EBCEA"/>
<path d="M321.557 110.966C326.002 110.966 329.606 107.256 329.606 102.68C329.606 98.1042 326.002 94.3946 321.557 94.3946C317.111 94.3946 313.507 98.1042 313.507 102.68C313.507 107.256 317.111 110.966 321.557 110.966Z" fill="#292A2E"/>
<path opacity="0.5" d="M321.557 153.201C326.002 153.201 329.606 149.492 329.606 144.916C329.606 140.34 326.002 136.63 321.557 136.63C317.111 136.63 313.507 140.34 313.507 144.916C313.507 149.492 317.111 153.201 321.557 153.201Z" fill="#9EBCEA"/>
<path opacity="0.2" d="M321.557 195.437C326.002 195.437 329.606 191.727 329.606 187.151C329.606 182.575 326.002 178.865 321.557 178.865C317.111 178.865 313.507 182.575 313.507 187.151C313.507 191.727 317.111 195.437 321.557 195.437Z" fill="#9EBCEA"/>
<path d="M161.773 123.798C161.775 133.897 164.82 143.748 170.487 151.992C176.154 160.236 184.165 166.469 193.417 169.832L180.405 202.489C162.51 195.547 147.548 182.362 138.126 165.232C128.704 148.102 125.42 128.112 128.846 108.746C132.271 89.3794 142.19 71.8639 156.872 59.2511C171.555 46.6383 190.071 39.7277 209.195 39.7234V74.9856C196.618 74.9856 184.556 80.1283 175.663 89.2823C166.769 98.4364 161.773 110.852 161.773 123.798Z" fill="#292A2E"/>
<path d="M290.876 123.798H256.618C256.618 110.852 251.621 98.4364 242.728 89.2823C233.834 80.1283 221.772 74.9856 209.195 74.9856V39.7234C230.858 39.7247 251.633 48.583 266.95 64.3497C282.268 80.1165 290.874 101.5 290.876 123.798Z" fill="#9EBCEA"/>
<path opacity="0.5" d="M290.876 123.798C290.874 142.848 284.589 161.333 273.05 176.228C261.512 191.122 245.403 201.544 227.36 205.787L221.556 170.933C231.62 168.134 240.508 162.001 246.846 153.482C253.184 144.963 256.619 134.532 256.621 123.801L290.876 123.798Z" fill="#9EBCEA"/>
<path opacity="0.2" d="M227.36 205.787C211.733 209.43 195.411 208.285 180.408 202.492L193.42 169.832C202.478 173.104 212.284 173.487 221.556 170.93L227.36 205.787Z" fill="#9EBCEA"/>
<path d="M433.535 61.0459H340.295C340.14 61.0459 339.992 60.9826 339.882 60.8699C339.773 60.7572 339.711 60.6043 339.711 60.4449C339.711 60.2855 339.773 60.1327 339.882 60.02C339.992 59.9072 340.14 59.8439 340.295 59.8439H433.535C433.69 59.8439 433.839 59.9072 433.948 60.02C434.058 60.1327 434.119 60.2855 434.119 60.4449C434.119 60.6043 434.058 60.7572 433.948 60.8699C433.839 60.9826 433.69 61.0459 433.535 61.0459Z" fill="#9EBCEA"/>
<path d="M433.535 103.285H340.295C340.14 103.285 339.992 103.221 339.882 103.109C339.773 102.996 339.711 102.843 339.711 102.684C339.711 102.524 339.773 102.371 339.882 102.259C339.992 102.146 340.14 102.083 340.295 102.083H433.535C433.69 102.083 433.839 102.146 433.948 102.259C434.058 102.371 434.119 102.524 434.119 102.684C434.119 102.843 434.058 102.996 433.948 103.109C433.839 103.221 433.69 103.285 433.535 103.285Z" fill="#292A2E"/>
<g opacity="0.5">
<path opacity="0.5" d="M433.535 145.517H340.295C340.144 145.511 340.002 145.445 339.897 145.333C339.792 145.221 339.733 145.072 339.733 144.916C339.733 144.761 339.792 144.611 339.897 144.499C340.002 144.387 340.144 144.321 340.295 144.316H433.535C433.614 144.313 433.692 144.326 433.765 144.355C433.839 144.383 433.906 144.427 433.962 144.483C434.019 144.539 434.064 144.607 434.095 144.681C434.125 144.755 434.141 144.835 434.141 144.916C434.141 144.997 434.125 145.077 434.095 145.151C434.064 145.226 434.019 145.293 433.962 145.349C433.906 145.405 433.839 145.449 433.765 145.478C433.692 145.506 433.614 145.52 433.535 145.517Z" fill="#9EBCEA"/>
</g>
<g opacity="0.2">
<path opacity="0.2" d="M433.535 187.752H340.295C340.144 187.746 340.002 187.68 339.897 187.568C339.792 187.456 339.733 187.307 339.733 187.152C339.733 186.996 339.792 186.847 339.897 186.735C340.002 186.623 340.144 186.557 340.295 186.551H433.535C433.614 186.548 433.692 186.561 433.765 186.59C433.839 186.619 433.906 186.663 433.962 186.719C434.019 186.775 434.064 186.842 434.095 186.916C434.125 186.991 434.141 187.071 434.141 187.152C434.141 187.232 434.125 187.312 434.095 187.387C434.064 187.461 434.019 187.528 433.962 187.584C433.906 187.64 433.839 187.684 433.765 187.713C433.692 187.742 433.614 187.755 433.535 187.752Z" fill="#9EBCEA"/>
</g>
<g opacity="0.1">
<path opacity="0.1" d="M433.937 417.297H130.51C127.871 417.294 125.342 416.213 123.477 414.293C121.612 412.373 120.562 409.77 120.56 407.054V248.818C120.563 246.103 121.612 243.5 123.477 241.58C125.343 239.66 127.872 238.58 130.51 238.577H433.937C436.575 238.58 439.104 239.66 440.969 241.58C442.835 243.5 443.884 246.103 443.887 248.818V407.054C443.884 409.77 442.835 412.373 440.969 414.293C439.104 416.213 436.575 417.294 433.937 417.297Z" fill="#9EBCEA"/>
</g>
<path opacity="0.5" d="M161.921 274.471H156.014C155.125 274.471 154.404 275.213 154.404 276.128V392.284C154.404 393.199 155.125 393.941 156.014 393.941H161.921C162.81 393.941 163.531 393.199 163.531 392.284V276.128C163.531 275.213 162.81 274.471 161.921 274.471Z" fill="#9EBCEA"/>
<path d="M152.794 311.995H146.886C145.998 311.995 145.277 312.737 145.277 313.652V392.285C145.277 393.2 145.998 393.942 146.886 393.942H152.794C153.683 393.942 154.403 393.2 154.403 392.285V313.652C154.403 312.737 153.683 311.995 152.794 311.995Z" fill="#FB9300" fill-opacity="0.8"/>
<path opacity="0.5" d="M234.96 378.825H229.053C228.164 378.825 227.443 379.566 227.443 380.481V392.285C227.443 393.2 228.164 393.942 229.053 393.942H234.96C235.849 393.942 236.57 393.2 236.57 392.285V380.481C236.57 379.566 235.849 378.825 234.96 378.825Z" fill="#9EBCEA"/>
<path d="M225.834 305.248H219.927C219.038 305.248 218.317 305.989 218.317 306.904V392.284C218.317 393.199 219.038 393.941 219.927 393.941H225.834C226.723 393.941 227.444 393.199 227.444 392.284V306.904C227.444 305.989 226.723 305.248 225.834 305.248Z" fill="#0CBC52" fill-opacity="0.8"/>
<path opacity="0.5" d="M198.441 322.43H192.533C191.644 322.43 190.924 323.172 190.924 324.087V392.284C190.924 393.199 191.644 393.941 192.533 393.941H198.441C199.33 393.941 200.05 393.199 200.05 392.284V324.087C200.05 323.172 199.33 322.43 198.441 322.43Z" fill="#9EBCEA"/>
<path d="M189.313 347.139H183.406C182.517 347.139 181.796 347.88 181.796 348.796V392.284C181.796 393.199 182.517 393.941 183.406 393.941H189.313C190.202 393.941 190.923 393.199 190.923 392.284V348.796C190.923 347.88 190.202 347.139 189.313 347.139Z" fill="#9EBCEA"/>
<path opacity="0.5" d="M344.519 297.577H338.612C337.723 297.577 337.002 298.319 337.002 299.234V392.285C337.002 393.2 337.723 393.942 338.612 393.942H344.519C345.408 393.942 346.129 393.2 346.129 392.285V299.234C346.129 298.319 345.408 297.577 344.519 297.577Z" fill="#9EBCEA"/>
<path d="M335.393 333.055H329.486C328.597 333.055 327.876 333.797 327.876 334.712V392.285C327.876 393.2 328.597 393.942 329.486 393.942H335.393C336.282 393.942 337.003 393.2 337.003 392.285V334.712C337.003 333.797 336.282 333.055 335.393 333.055Z" fill="#9EBCEA"/>
<path opacity="0.5" d="M271.48 312.609H265.573C264.684 312.609 263.963 313.35 263.963 314.265V392.284C263.963 393.199 264.684 393.941 265.573 393.941H271.48C272.369 393.941 273.09 393.199 273.09 392.284V314.265C273.09 313.35 272.369 312.609 271.48 312.609Z" fill="#9EBCEA"/>
<path d="M262.354 321.817H256.447C255.558 321.817 254.837 322.558 254.837 323.473V392.284C254.837 393.199 255.558 393.941 256.447 393.941H262.354C263.243 393.941 263.964 393.199 263.964 392.284V323.473C263.964 322.558 263.243 321.817 262.354 321.817Z" fill="#9EBCEA"/>
<path opacity="0.5" d="M308 274.471H302.093C301.204 274.471 300.483 275.213 300.483 276.128V392.284C300.483 393.199 301.204 393.941 302.093 393.941H308C308.889 393.941 309.609 393.199 309.609 392.284V276.128C309.609 275.213 308.889 274.471 308 274.471Z" fill="#9EBCEA"/>
<path d="M298.873 280.226H292.966C292.077 280.226 291.356 280.968 291.356 281.883V392.284C291.356 393.199 292.077 393.941 292.966 393.941H298.873C299.762 393.941 300.483 393.199 300.483 392.284V281.883C300.483 280.968 299.762 280.226 298.873 280.226Z" fill="#F54748" fill-opacity="0.8"/>
<path opacity="0.5" d="M381.039 274.471H375.132C374.243 274.471 373.522 275.213 373.522 276.128V392.284C373.522 393.199 374.243 393.941 375.132 393.941H381.039C381.928 393.941 382.649 393.199 382.649 392.284V276.128C382.649 275.213 381.928 274.471 381.039 274.471Z" fill="#9EBCEA"/>
<path d="M371.912 311.995H366.005C365.116 311.995 364.396 312.737 364.396 313.652V392.285C364.396 393.2 365.116 393.942 366.005 393.942H371.912C372.801 393.942 373.522 393.2 373.522 392.285V313.652C373.522 312.737 372.801 311.995 371.912 311.995Z" fill="#367CFF" fill-opacity="0.8"/>
<path opacity="0.5" d="M417.559 322.43H411.652C410.763 322.43 410.042 323.172 410.042 324.087V392.284C410.042 393.199 410.763 393.941 411.652 393.941H417.559C418.448 393.941 419.169 393.199 419.169 392.284V324.087C419.169 323.172 418.448 322.43 417.559 322.43Z" fill="#9EBCEA"/>
<path d="M408.433 347.139H402.525C401.636 347.139 400.916 347.88 400.916 348.796V392.284C400.916 393.199 401.636 393.941 402.525 393.941H408.433C409.321 393.941 410.042 393.199 410.042 392.284V348.796C410.042 347.88 409.321 347.139 408.433 347.139Z" fill="#9EBCEA"/>
<path d="M455.412 251.753C451.738 251.747 448.129 250.753 444.944 248.868C441.759 246.983 439.108 244.273 437.255 241.008C435.402 237.742 434.41 234.035 434.379 230.253C434.348 226.471 435.279 222.747 437.078 219.45L487.275 127.548C488.623 125.053 490.437 122.857 492.612 121.085C494.788 119.314 497.281 118.003 499.95 117.226C502.619 116.45 505.411 116.223 508.165 116.561C510.919 116.898 513.582 117.791 515.999 119.191C518.417 120.59 520.542 122.467 522.253 124.714C523.964 126.961 525.227 129.533 525.969 132.284C526.712 135.035 526.919 137.909 526.579 140.743C526.239 143.576 525.359 146.312 523.989 148.795L473.792 240.697C471.959 244.055 469.29 246.849 466.06 248.792C462.829 250.736 459.154 251.757 455.412 251.753Z" fill="#C1D8ED"/>
<path d="M486.244 217.892L485.494 202.22" stroke="#0C0C0C" stroke-width="0.75" stroke-linecap="round" stroke-linejoin="round"/>
<path d="M547.108 176.36L534.12 160.711C533.84 160.375 533.497 160.1 533.112 159.905C532.726 159.71 532.306 159.597 531.876 159.574C531.447 159.552 531.018 159.619 530.615 159.773C530.212 159.926 529.843 160.163 529.532 160.468C528.949 161.08 528.614 161.897 528.594 162.753C528.574 163.61 528.871 164.442 529.425 165.082L532.2 168.426L546.086 179.282L547.108 176.36Z" fill="#E98862"/>
<path d="M526.736 180.486L485.724 183.116C484.078 183.221 482.452 182.695 481.161 181.639C479.869 180.583 479.004 179.072 478.732 177.397L468.599 115.101C468.445 114.153 468.486 113.182 468.72 112.251C468.953 111.32 469.374 110.45 469.955 109.697C470.536 108.944 471.265 108.325 472.093 107.881C472.921 107.436 473.83 107.175 474.763 107.115L515.774 104.485C517.42 104.38 519.046 104.906 520.338 105.962C521.629 107.018 522.495 108.53 522.767 110.204L532.897 172.5C533.051 173.448 533.01 174.419 532.776 175.35C532.543 176.28 532.122 177.15 531.541 177.903C530.961 178.656 530.233 179.275 529.405 179.719C528.577 180.164 527.668 180.425 526.736 180.486Z" fill="#292A2E"/>
<path d="M532.199 168.426L518.738 162.012C517.251 161.272 514.97 161.342 514.274 163.111C513.963 163.773 513.88 164.525 514.037 165.242C514.195 165.96 514.584 166.601 515.141 167.062C515.13 167.075 515.121 167.09 515.112 167.105C515.109 167.118 515.106 167.13 515.104 167.143L512.814 166.001C512.392 165.791 511.93 165.68 511.461 165.676C510.993 165.672 510.529 165.775 510.104 165.978C509.679 166.181 509.302 166.478 509.003 166.849C508.703 167.22 508.486 167.654 508.369 168.121C508.197 168.87 508.282 169.656 508.608 170.348C508.935 171.039 509.484 171.593 510.162 171.916L511.137 172.402C511.136 172.439 511.142 172.475 511.154 172.509C510.429 172.34 509.669 172.438 509.008 172.788C508.346 173.137 507.826 173.716 507.538 174.421C507.242 175.222 507.254 176.109 507.57 176.902C507.885 177.695 508.482 178.334 509.238 178.692L511.633 179.882C511.587 179.89 511.544 179.909 511.507 179.938C511.469 179.966 511.439 180.003 511.418 180.046C511.395 180.101 511.389 180.162 511.4 180.221C510.726 180.253 510.08 180.505 509.556 180.942C509.031 181.379 508.657 181.977 508.487 182.649C508.315 183.398 508.4 184.184 508.726 184.876C509.053 185.568 509.602 186.122 510.28 186.445L530.7 196.624C533.556 198.047 536.761 198.56 539.903 198.097C543.045 197.634 545.981 196.215 548.334 194.023L555.912 186.968L532.199 168.426Z" fill="#E98862"/>
<g opacity="0.2">
<path opacity="0.2" d="M528.434 173.482C528.4 173.552 528.341 173.606 528.269 173.632C528.197 173.658 528.118 173.654 528.049 173.621L515.248 167.501C515.214 167.484 515.182 167.46 515.157 167.431C515.131 167.402 515.111 167.368 515.098 167.331C515.084 167.294 515.079 167.254 515.08 167.215C515.082 167.175 515.091 167.136 515.108 167.101C515.124 167.065 515.147 167.033 515.175 167.006C515.204 166.979 515.237 166.959 515.273 166.945C515.309 166.932 515.347 166.926 515.385 166.928C515.424 166.929 515.461 166.939 515.496 166.956L528.297 173.072C528.367 173.106 528.422 173.167 528.449 173.242C528.475 173.316 528.472 173.399 528.439 173.472L528.434 173.482Z" fill="#0C0C0C"/>
</g>
<g opacity="0.2">
<path opacity="0.2" d="M525.969 179.367C525.936 179.437 525.877 179.491 525.805 179.518C525.733 179.544 525.654 179.54 525.584 179.507L511.304 172.681C511.234 172.647 511.179 172.586 511.153 172.511C511.126 172.437 511.129 172.354 511.162 172.281C511.196 172.211 511.256 172.157 511.328 172.13C511.4 172.103 511.479 172.105 511.55 172.135L525.831 178.961C525.901 178.995 525.955 179.056 525.982 179.131C526.008 179.206 526.005 179.289 525.973 179.361L525.969 179.367Z" fill="#0C0C0C"/>
</g>
<g opacity="0.2">
<path opacity="0.2" d="M523.335 185.754C523.302 185.824 523.243 185.878 523.171 185.904C523.099 185.931 523.02 185.927 522.95 185.894L511.558 180.448C511.524 180.431 511.493 180.408 511.467 180.379C511.441 180.35 511.421 180.315 511.408 180.278C511.395 180.241 511.389 180.202 511.39 180.162C511.392 180.123 511.401 180.084 511.418 180.048C511.434 180.012 511.457 179.98 511.485 179.954C511.514 179.927 511.547 179.906 511.583 179.893C511.619 179.88 511.657 179.873 511.696 179.875C511.734 179.877 511.772 179.887 511.806 179.903L523.198 185.348C523.268 185.382 523.322 185.443 523.349 185.518C523.375 185.593 523.372 185.675 523.339 185.748L523.335 185.754Z" fill="#0C0C0C"/>
</g>
<path d="M531.373 202.659L619.953 247.384C623.703 249.161 627.865 249.811 631.959 249.258C636.053 248.705 639.911 246.972 643.089 244.258C646.266 241.544 648.634 237.961 649.918 233.922C651.201 229.882 651.349 225.552 650.344 221.43L626.692 133.898C625.279 128.101 621.687 123.119 616.705 120.048C611.724 116.977 605.761 116.069 600.129 117.523C588.402 120.552 582.105 132.792 585.048 144.864L603.605 192.192L546.845 167.696L531.373 202.659Z" fill="#C1D8ED"/>
<path d="M614.124 244.928C614.097 244.923 614.071 244.915 614.047 244.902L531.246 202.929C531.177 202.895 531.124 202.835 531.099 202.761C531.073 202.688 531.076 202.606 531.107 202.535L546.577 167.572C546.608 167.5 546.665 167.444 546.736 167.415C546.807 167.387 546.886 167.388 546.956 167.419L602.33 190.822L591.371 156.847C591.361 156.809 591.357 156.769 591.362 156.73C591.366 156.691 591.378 156.653 591.397 156.618C591.416 156.584 591.441 156.553 591.471 156.529C591.501 156.504 591.535 156.486 591.572 156.476C591.609 156.465 591.648 156.462 591.686 156.466C591.724 156.471 591.761 156.483 591.794 156.502C591.827 156.521 591.857 156.547 591.881 156.578C591.905 156.609 591.922 156.645 591.933 156.683L603.057 191.26C603.072 191.314 603.072 191.372 603.056 191.426C603.041 191.481 603.011 191.53 602.97 191.567C602.928 191.605 602.878 191.63 602.823 191.639C602.769 191.648 602.713 191.641 602.662 191.619L546.991 168.086L531.757 202.515L614.301 244.359C614.364 244.391 614.414 244.445 614.441 244.511C614.469 244.578 614.472 244.652 614.451 244.721C614.429 244.79 614.384 244.848 614.325 244.886C614.265 244.924 614.194 244.938 614.124 244.926V244.928Z" fill="#0C0C0C"/>
<path d="M612.708 196.229C612.684 196.225 612.661 196.218 612.639 196.208L602.659 191.617C602.624 191.601 602.593 191.578 602.566 191.55C602.54 191.521 602.519 191.487 602.506 191.451C602.492 191.414 602.485 191.374 602.486 191.335C602.487 191.296 602.496 191.257 602.512 191.221C602.527 191.185 602.55 191.152 602.577 191.125C602.605 191.098 602.638 191.077 602.674 191.063C602.71 191.049 602.748 191.042 602.786 191.043C602.824 191.044 602.862 191.053 602.897 191.069L612.877 195.66C612.941 195.69 612.993 195.743 613.022 195.808C613.051 195.874 613.056 195.949 613.036 196.018C613.015 196.088 612.972 196.147 612.912 196.186C612.853 196.225 612.782 196.24 612.712 196.229H612.708Z" fill="#0C0C0C"/>
<path d="M499.882 134.901C499.457 134.352 498.87 133.96 498.211 133.783C497.551 133.606 496.853 133.653 496.222 133.918C496.217 133.878 496.203 133.839 496.181 133.806C496.159 133.772 496.129 133.745 496.094 133.726C496.059 133.707 496.02 133.697 495.981 133.697C495.941 133.697 495.902 133.707 495.867 133.726L497.589 131.584C498.119 130.951 498.401 130.138 498.382 129.303C498.362 128.468 498.042 127.67 497.484 127.064C496.941 126.512 496.223 126.18 495.462 126.13C494.7 126.079 493.947 126.314 493.34 126.791C493.34 126.759 493.311 126.735 493.298 126.706L494.003 125.83C494.486 125.25 494.762 124.517 494.783 123.753C494.805 122.99 494.571 122.241 494.121 121.634C493.827 121.254 493.455 120.947 493.032 120.734C492.608 120.522 492.144 120.409 491.673 120.404C491.202 120.399 490.736 120.503 490.308 120.707C489.881 120.911 489.503 121.211 489.203 121.584L487.576 123.608C487.567 123.597 487.568 123.581 487.558 123.572C487.547 123.563 487.524 123.564 487.51 123.555C487.834 122.897 487.931 122.145 487.785 121.422C487.639 120.7 487.259 120.05 486.708 119.579C485.359 118.268 483.256 119.181 482.204 120.49L472.263 132.634L472.548 132.085L473.727 127.841C473.965 127.042 473.907 126.181 473.563 125.425C473.22 124.668 472.616 124.069 471.868 123.744C471.458 123.582 471.019 123.509 470.58 123.531C470.142 123.552 469.712 123.667 469.319 123.869C468.925 124.071 468.577 124.355 468.296 124.702C468.016 125.05 467.808 125.454 467.687 125.889L462.193 145.679L460.859 150.485C460.219 152.79 460.478 155.26 461.579 157.372C462.681 159.484 464.54 161.071 466.76 161.795L468.212 162.268C471.237 163.255 474.48 163.289 477.525 162.366C480.57 161.444 483.277 159.606 485.3 157.089L499.764 139.096C500.247 138.517 500.523 137.784 500.545 137.02C500.566 136.256 500.332 135.508 499.882 134.901Z" fill="#E98862"/>
<g opacity="0.2">
<path opacity="0.2" d="M478.015 135.071C478.074 135.12 478.15 135.144 478.225 135.137C478.301 135.13 478.372 135.093 478.421 135.034L487.588 123.995C487.616 123.966 487.637 123.931 487.651 123.892C487.664 123.854 487.67 123.813 487.668 123.773C487.666 123.732 487.656 123.692 487.639 123.655C487.621 123.619 487.597 123.586 487.566 123.56C487.536 123.533 487.501 123.513 487.463 123.501C487.426 123.489 487.386 123.485 487.346 123.489C487.307 123.493 487.269 123.505 487.234 123.525C487.199 123.545 487.169 123.572 487.145 123.604L477.978 134.642C477.953 134.673 477.934 134.707 477.922 134.745C477.91 134.783 477.905 134.822 477.908 134.862C477.911 134.901 477.922 134.94 477.939 134.975C477.957 135.01 477.981 135.042 478.01 135.068L478.015 135.071Z" fill="#0C0C0C"/>
</g>
<g opacity="0.2">
<path opacity="0.2" d="M482.634 139.367C482.693 139.417 482.769 139.441 482.845 139.434C482.921 139.427 482.991 139.389 483.041 139.33L493.273 127.011C493.298 126.981 493.317 126.946 493.329 126.909C493.341 126.871 493.346 126.831 493.343 126.792C493.34 126.752 493.329 126.714 493.312 126.679C493.294 126.643 493.27 126.612 493.241 126.586C493.181 126.537 493.105 126.513 493.028 126.519C492.951 126.525 492.88 126.561 492.828 126.619L482.596 138.938C482.571 138.968 482.552 139.003 482.54 139.041C482.528 139.078 482.524 139.118 482.527 139.157C482.53 139.197 482.54 139.235 482.558 139.271C482.575 139.306 482.599 139.337 482.629 139.363L482.634 139.367Z" fill="#0C0C0C"/>
</g>
<g opacity="0.2">
<path opacity="0.2" d="M487.609 144.05C487.668 144.1 487.744 144.124 487.82 144.117C487.895 144.11 487.966 144.072 488.015 144.013L496.177 134.187C496.205 134.157 496.226 134.122 496.24 134.084C496.253 134.046 496.259 134.005 496.257 133.964C496.255 133.923 496.245 133.884 496.228 133.847C496.21 133.81 496.186 133.778 496.155 133.751C496.125 133.725 496.09 133.705 496.052 133.692C496.015 133.68 495.975 133.676 495.935 133.68C495.896 133.685 495.858 133.697 495.823 133.717C495.788 133.737 495.758 133.764 495.734 133.796L487.571 143.623C487.546 143.653 487.527 143.688 487.515 143.725C487.503 143.763 487.498 143.803 487.501 143.842C487.504 143.882 487.515 143.92 487.533 143.956C487.55 143.991 487.575 144.022 487.604 144.048L487.609 144.05Z" fill="#0C0C0C"/>
</g>
<path d="M493.342 156.464L477.044 231.902C476.118 237.802 472.953 243.082 468.244 246.58C463.536 250.078 457.671 251.507 451.939 250.553C446.207 249.6 441.077 246.342 437.679 241.496C434.281 236.649 432.892 230.612 433.819 224.712L456.195 144.117" fill="#C1D8ED"/>
<path d="M478.312 217.892L487.501 183.144" stroke="#0C0C0C" stroke-width="0.75" stroke-linecap="round" stroke-linejoin="round"/>
<path d="M633.583 659H58.676C58.4569 659 58.2469 658.91 58.092 658.751C57.9371 658.592 57.8501 658.375 57.8501 658.15C57.8501 657.924 57.9371 657.708 58.092 657.549C58.2469 657.389 58.4569 657.3 58.676 657.3H633.583C633.802 657.3 634.012 657.389 634.167 657.549C634.322 657.708 634.409 657.924 634.409 658.15C634.409 658.375 634.322 658.592 634.167 658.751C634.012 658.91 633.802 659 633.583 659Z" fill="#292A2E"/>
</g>
<defs>
<clipPath id="clip0_5_769">
<rect width="651" height="659" fill="white"/>
</clipPath>
</defs>
</svg>
