<svg width="116" height="120" viewBox="0 0 116 120" fill="none" xmlns="http://www.w3.org/2000/svg">
<path d="M112.535 46.7774H104.067C103.394 46.7785 102.737 46.564 102.188 46.1637C101.638 45.7635 101.223 45.1972 101.001 44.5433C100.352 42.6278 99.5853 40.7569 98.7047 38.9422C98.4009 38.3142 98.297 37.6037 98.4077 36.9115C98.5185 36.2194 98.8382 35.5807 99.3216 35.0862L105.34 28.8917C105.952 28.2615 106.295 27.4075 106.295 26.517C106.295 25.6266 105.952 24.7725 105.34 24.1423L92.3381 10.768C91.7261 10.1384 90.8963 9.78484 90.0311 9.78484C89.1658 9.78484 88.336 10.1384 87.724 10.768L81.5978 17.0747C81.1208 17.5673 80.5063 17.8943 79.84 18.0101C79.1738 18.1259 78.4891 18.0248 77.8814 17.7208C76.1517 16.8515 74.3703 16.0957 72.5479 15.4579C71.9058 15.2327 71.3484 14.806 70.9541 14.2379C70.5597 13.6698 70.3483 12.9887 70.3495 12.2905V3.35611C70.3496 2.91535 70.2654 2.47889 70.1015 2.07166C69.9377 1.66442 69.6975 1.29442 69.3948 0.982749C69.092 0.671083 68.7325 0.423894 68.3369 0.255273C67.9412 0.0866521 67.5172 -0.000111577 67.089 1.07685e-07H48.7069C48.2787 -0.000111577 47.8547 0.0866521 47.4591 0.255273C47.0634 0.423894 46.7039 0.671083 46.4012 0.982749C46.0984 1.29442 45.8582 1.66442 45.6944 2.07166C45.5306 2.47889 45.4463 2.91535 45.4464 3.35611V12.2905C45.4478 12.9886 45.2365 13.6697 44.8423 14.2379C44.4481 14.806 43.8908 15.2327 43.2488 15.4579C41.4263 16.0954 39.6449 16.8512 37.9154 17.7208C37.3077 18.0249 36.6229 18.1261 35.9567 18.0103C35.2904 17.8945 34.6759 17.5674 34.199 17.0747L28.0719 10.768C27.4599 10.1384 26.6301 9.78484 25.7649 9.78484C24.8996 9.78484 24.0698 10.1384 23.4578 10.768L10.4563 24.1448C9.84467 24.7748 9.50112 25.629 9.50112 26.5195C9.50112 27.4101 9.84467 28.2642 10.4563 28.8942L16.4743 35.0888C16.9579 35.5831 17.2778 36.2218 17.3886 36.914C17.4993 37.6063 17.3953 38.3168 17.0912 38.9447C16.2104 40.7586 15.4455 42.6296 14.8011 44.5459C14.5765 45.1995 14.1605 45.7654 13.6104 46.1655C13.0603 46.5656 12.4033 46.7802 11.7297 46.7799H3.26051C2.8323 46.7798 2.40827 46.8665 2.01264 47.0351C1.61701 47.2038 1.25752 47.451 0.954728 47.7626C0.65194 48.0743 0.411781 48.4444 0.247963 48.8516C0.0841458 49.2588 -0.000108398 49.6953 1.04664e-07 50.136V69.0614C-0.000108398 69.5021 0.0841458 69.9386 0.247963 70.3458C0.411781 70.7531 0.65194 71.1231 0.954728 71.4347C1.25752 71.7464 1.61701 71.9936 2.01264 72.1622C2.40827 72.3308 2.8323 72.4176 3.26051 72.4175H11.5084C12.1943 72.4167 12.8629 72.639 13.4186 73.0527C13.9744 73.4665 14.3889 74.0504 14.6029 74.7212C15.2395 76.6884 16.0006 78.6106 16.8815 80.4754C17.1806 81.1034 17.2819 81.8119 17.1713 82.502C17.0607 83.1921 16.7438 83.8295 16.2646 84.3254L10.4579 90.3032C10.1551 90.6144 9.91485 90.984 9.75094 91.3909C9.58702 91.7978 9.50264 92.234 9.50264 92.6744C9.50264 93.1149 9.58702 93.5511 9.75094 93.958C9.91485 94.3649 10.1551 94.7346 10.4579 95.0458L23.4595 108.429C24.0715 109.059 24.9013 109.413 25.7665 109.413C26.6317 109.413 27.4615 109.059 28.0736 108.429L33.7662 102.569C34.2514 102.071 34.8765 101.743 35.5528 101.632C36.2292 101.52 36.9226 101.63 37.5346 101.947C39.3764 102.894 41.2786 103.711 43.2281 104.392C43.8745 104.616 44.4362 105.044 44.8344 105.614C45.2327 106.184 45.4476 106.869 45.4489 107.571V115.835C45.4484 116.276 45.5323 116.713 45.6959 117.121C45.8595 117.529 46.0996 117.899 46.4024 118.212C46.7052 118.524 47.0648 118.771 47.4606 118.94C47.8565 119.109 48.2808 119.196 48.7094 119.197H67.089C67.5176 119.197 67.942 119.11 68.3379 118.941C68.7338 118.772 69.0934 118.524 69.3963 118.212C69.6991 117.9 69.9392 117.529 70.1027 117.121C70.2663 116.713 70.3502 116.276 70.3495 115.835V107.571C70.3508 106.869 70.5657 106.184 70.964 105.614C71.3622 105.044 71.9239 104.616 72.5703 104.392C74.5198 103.711 76.422 102.894 78.2638 101.947C78.8759 101.63 79.5692 101.52 80.2456 101.632C80.9219 101.743 81.547 102.071 82.0322 102.569L87.7248 108.429C88.3369 109.059 89.1667 109.413 90.0319 109.413C90.8971 109.413 91.7269 109.059 92.339 108.429L105.341 95.0458C105.644 94.7344 105.884 94.3647 106.048 93.9579C106.212 93.551 106.296 93.1149 106.296 92.6744C106.296 92.234 106.212 91.798 106.048 91.3911C105.884 90.9842 105.644 90.6145 105.341 90.3032L99.5339 84.3254C99.0547 83.8294 98.7378 83.192 98.6273 82.5019C98.5167 81.8118 98.618 81.1035 98.9169 80.4754C99.7981 78.6108 100.559 76.6886 101.196 74.7212C101.41 74.0505 101.824 73.4666 102.38 73.0529C102.936 72.6391 103.604 72.4168 104.29 72.4175H112.535C112.964 72.4176 113.388 72.3308 113.783 72.1622C114.179 71.9936 114.538 71.7464 114.841 71.4347C115.144 71.1231 115.384 70.7531 115.548 70.3458C115.712 69.9386 115.796 69.5021 115.796 69.0614V50.136C115.796 49.695 115.712 49.2582 115.549 48.8506C115.385 48.443 115.145 48.0727 114.842 47.7607C114.539 47.4488 114.179 47.2013 113.783 47.0326C113.387 46.8639 112.963 46.7772 112.535 46.7774ZM57.9004 87.5642C52.5265 87.5642 47.2733 85.9239 42.8051 82.8508C38.3369 79.7777 34.8543 75.4098 32.7978 70.2993C30.7413 65.1889 30.2032 59.5655 31.2516 54.1404C32.3 48.7152 34.8878 43.7318 38.6877 39.8205C42.4876 35.9091 47.329 33.2455 52.5997 32.1663C57.8703 31.0872 63.3335 31.641 68.2983 33.7578C73.2631 35.8746 77.5066 39.4593 80.4922 44.0586C83.4778 48.6578 85.0713 54.0651 85.0713 59.5966C85.0713 67.014 82.2087 74.1277 77.1132 79.3727C72.0176 84.6176 65.1066 87.5642 57.9004 87.5642Z" fill="#FB9300" fill-opacity="0.8"/>
</svg>
