<svg width="466" height="409" viewBox="0 0 466 409" fill="none" xmlns="http://www.w3.org/2000/svg">
<path d="M456.341 274.802C456.417 322.866 440.152 369.586 410.113 407.587H58.976C28.937 369.586 12.6721 322.866 12.7488 274.802C12.7488 154.797 112.054 57.5203 234.55 57.5203C357.045 57.5203 456.341 154.8 456.341 274.802Z" fill="white"/>
<path opacity="0.1" d="M456.341 274.802C456.417 322.866 440.152 369.586 410.113 407.587H58.976C28.937 369.586 12.6721 322.866 12.7488 274.802C12.7488 154.797 112.054 57.5203 234.55 57.5203C357.045 57.5203 456.341 154.8 456.341 274.802Z" fill="#367CFF"/>
<path d="M344.123 408.288H250.832L245.234 335.344L340.781 338.641C340.781 338.641 341.937 330.136 341.995 346.258C342.033 357.441 344.418 379.612 344.123 408.288Z" fill="#262626"/>
<path d="M284.755 331.154C284.669 332.89 284.572 334.637 284.456 336.373C282.97 360.569 279.554 384.614 274.241 408.288H180.999C182.213 371.25 183.225 341.914 183.225 341.914L245.233 335.344L248.952 334.946L284.755 331.154Z" fill="#262626"/>
<path d="M307.243 83.9747C307.243 83.9747 308.301 107.833 313.562 116.6C328.72 141.84 332.617 169.934 316.499 184.197C300.38 198.46 199.782 196.369 192.96 162.562C187.218 134.099 201.058 131.368 204.963 108.085C206.73 97.5506 211.427 75.482 211.427 75.482" fill="#0A0A0A"/>
<path d="M221.167 158.846C221.341 158.824 223.268 190.155 260.421 187.424C286.142 185.536 295.313 158.802 295.902 158.802C293.129 158.225 288.459 157.385 287.227 156.741C283.178 154.609 278.166 152.391 276.861 144.685C276.108 140.244 277.385 117.524 276.992 113.031L237.51 121.664C238.062 131.154 241.924 153.153 228.391 157.05C226.139 157.691 223.714 158.282 221.167 158.846Z" fill="#E98862"/>
<path opacity="0.52" d="M236.957 148.057C237.576 146.104 237.974 144.091 238.145 142.054C238.579 137.404 238.492 132.722 237.887 128.091C245.912 127.03 253.471 123.785 259.707 118.725C260.44 121.377 264.472 132.967 263.356 135.488C261.246 140.253 251.33 148.057 236.957 148.057Z" fill="#0C0C0C"/>
<path d="M240.493 138.155C256.02 139.988 276.3 134.346 280.953 114.138L285.152 95.9058C289.805 75.6989 282.744 56.9234 263.323 52.6292C243.903 48.3367 225.614 61.5101 220.96 81.7193L219.101 89.7913C217.317 97.5436 212.791 134.89 240.493 138.155Z" fill="#E98862"/>
<path d="M237.354 119.079C234.374 119.024 231.448 118.284 228.812 116.918C228.706 116.861 228.626 116.766 228.59 116.653C228.553 116.54 228.564 116.417 228.618 116.312C228.673 116.206 228.767 116.125 228.882 116.086C228.996 116.047 229.122 116.054 229.231 116.104C234.916 118.913 240.247 118.889 244.645 116.035C244.734 115.974 244.826 115.919 244.921 115.867C245.031 115.822 245.154 115.82 245.265 115.861C245.377 115.902 245.468 115.983 245.52 116.088C245.572 116.193 245.581 116.313 245.545 116.424C245.51 116.536 245.432 116.629 245.328 116.686C245.293 116.705 245.235 116.743 245.155 116.795C242.845 118.3 240.129 119.095 237.354 119.079Z" fill="#0C0C0C"/>
<path d="M236.022 109.646H235.983C235.185 109.527 234.394 109.365 233.614 109.16C232.448 108.847 230.917 108.312 231.068 107.287C231.24 106.118 236.368 93.977 236.952 92.5966C236.976 92.5351 237.012 92.479 237.059 92.4316C237.106 92.3842 237.161 92.3464 237.223 92.3204C237.285 92.2945 237.351 92.2809 237.418 92.2805C237.486 92.2801 237.552 92.293 237.614 92.3182C237.676 92.3434 237.732 92.3806 237.78 92.4275C237.827 92.4744 237.864 92.5301 237.889 92.5913C237.913 92.6524 237.925 92.7179 237.924 92.7836C237.923 92.8494 237.908 92.9143 237.88 92.9744C235.693 98.1444 232.178 106.641 232.063 107.428C232.208 107.783 234.146 108.39 236.13 108.671C236.258 108.69 236.374 108.756 236.453 108.857C236.532 108.957 236.569 109.083 236.555 109.21C236.542 109.336 236.479 109.452 236.38 109.534C236.282 109.616 236.155 109.657 236.025 109.65L236.022 109.646Z" fill="#0C0C0C"/>
<path d="M300.564 102.836L283.155 99.0905C270.07 93.3753 266.857 70.7288 266.857 70.7288C266.857 70.7288 250.188 85.5719 211.431 75.4821C211.431 75.4821 221.164 22.3731 278.33 39.8646C296.763 45.5049 309.466 64.3322 306.928 88.834C305.145 106 300.564 102.836 300.564 102.836Z" fill="#0A0A0A"/>
<path d="M278.329 120.027C284.231 121.331 290.44 116.201 291.772 110.421C293.104 104.641 289.053 100.393 283.148 99.0889L279.215 102.29L273.255 118.911L278.329 120.027Z" fill="#E98862"/>
<path d="M233.778 81.803C232.084 80.6475 230.104 79.9593 228.045 79.8105C227.032 79.7315 226.012 79.8022 225.02 80.0201C224.038 80.2318 223.087 80.5638 222.19 81.0084C222.067 81.0657 221.971 81.168 221.923 81.2935C221.875 81.4189 221.88 81.5576 221.935 81.6801C221.99 81.8026 222.091 81.8992 222.218 81.9493C222.345 81.9995 222.486 81.9993 222.613 81.9488L222.65 81.9337C223.478 81.5698 224.35 81.309 225.244 81.1574C226.128 81.0032 227.031 80.9809 227.921 81.0912C229.688 81.2972 231.369 81.957 232.792 83.004L232.837 83.0399C233.002 83.1658 233.212 83.2223 233.419 83.197C233.627 83.1718 233.815 83.0668 233.944 82.9052C234.072 82.7436 234.13 82.5386 234.104 82.3353C234.078 82.1321 233.971 81.9472 233.806 81.8213L233.778 81.803Z" fill="#0C0C0C"/>
<path d="M248.988 85.2571C250.731 84.9014 252.538 85.0037 254.227 85.5536C255.081 85.8252 255.888 86.2215 256.621 86.7292C257.365 87.2386 258.041 87.8376 258.632 88.512L258.659 88.5407C258.751 88.6387 258.879 88.6975 259.015 88.7047C259.151 88.7119 259.285 88.6669 259.388 88.5793C259.491 88.4917 259.555 88.3683 259.566 88.2353C259.578 88.1022 259.536 87.97 259.45 87.8665C258.831 87.0907 258.114 86.3945 257.317 85.7943C256.515 85.1837 255.623 84.695 254.671 84.3446C252.744 83.6208 250.653 83.4182 248.618 83.758C248.514 83.7733 248.414 83.809 248.324 83.8628C248.234 83.9167 248.156 83.9876 248.095 84.0715C248.033 84.1554 247.99 84.2505 247.966 84.3511C247.943 84.4518 247.941 84.556 247.959 84.6577C247.978 84.7593 248.017 84.8562 248.074 84.9428C248.132 85.0293 248.206 85.1037 248.294 85.1615C248.381 85.2193 248.479 85.2594 248.582 85.2794C248.686 85.2994 248.792 85.2989 248.895 85.2779L248.928 85.2715L248.988 85.2571Z" fill="#0C0C0C"/>
<path d="M283.121 98.8713L283.311 98.4018C261.386 89.835 267.575 68.6741 267.639 68.4605L267.146 68.3155C267.082 68.5323 260.75 90.1307 283.121 98.8713Z" fill="#0C0C0C"/>
<path d="M224.341 90.3953C225.695 90.3953 226.793 89.3198 226.793 87.9932C226.793 86.6665 225.695 85.5911 224.341 85.5911C222.986 85.5911 221.889 86.6665 221.889 87.9932C221.889 89.3198 222.986 90.3953 224.341 90.3953Z" fill="#0C0C0C"/>
<path d="M248.578 94.4824C249.932 94.4824 251.03 93.4069 251.03 92.0802C251.03 90.7536 249.932 89.6781 248.578 89.6781C247.224 89.6781 246.126 90.7536 246.126 92.0802C246.126 93.4069 247.224 94.4824 248.578 94.4824Z" fill="#0C0C0C"/>
<path opacity="0.1" d="M256.125 109.1C256.393 107.265 254.54 105.487 251.986 105.129C249.432 104.772 247.145 105.969 246.877 107.805C246.609 109.64 248.462 111.418 251.016 111.776C253.57 112.133 255.858 110.936 256.125 109.1Z" fill="#0C0C0C"/>
<path opacity="0.1" d="M224.132 103.801C223.859 105.635 221.572 106.83 219.018 106.476C218.577 106.414 218.143 106.307 217.724 106.157C217.657 103.963 217.7 101.854 217.812 99.9058C218.528 99.7481 219.267 99.7224 219.992 99.8301C222.545 100.182 224.398 101.962 224.132 103.801Z" fill="#0C0C0C"/>
<path d="M41.9205 157.007C42.2623 156.344 42.806 155.801 43.4763 155.453C44.1467 155.106 44.9107 154.971 45.6627 155.067C45.6561 155.023 45.6607 154.977 45.676 154.935C45.6913 154.893 45.7169 154.855 45.7505 154.824C45.7842 154.794 45.8249 154.772 45.8692 154.761C45.9134 154.749 45.9598 154.748 46.0044 154.759L43.467 152.976C42.708 152.468 42.1626 151.707 41.9317 150.834C41.7008 149.962 41.8 149.037 42.2109 148.231C42.6432 147.448 43.3568 146.85 44.2136 146.553C45.0704 146.256 46.0092 146.281 46.848 146.624C46.8415 146.589 46.8659 146.555 46.8716 146.519L45.8287 145.787C45.1155 145.304 44.5944 144.595 44.3535 143.779C44.1126 142.964 44.1667 142.091 44.5067 141.31C44.7303 140.825 45.0611 140.394 45.4752 140.049C45.8893 139.704 46.3765 139.453 46.9015 139.315C47.4265 139.176 47.9762 139.154 48.5112 139.249C49.0461 139.344 49.5528 139.554 49.9948 139.864L52.4004 141.554C52.4077 141.54 52.4004 141.524 52.4101 141.51C52.4199 141.497 52.4459 141.493 52.4598 141.478C51.9067 140.87 51.5813 140.095 51.5369 139.282C51.4926 138.468 51.7319 137.664 52.2157 137.002C53.3547 135.212 55.9726 135.577 57.5289 136.669L71.6892 146.252L69.1583 142.078C68.6498 141.274 68.4712 140.312 68.6586 139.385C68.846 138.458 69.3853 137.635 70.1679 137.082C70.5822 136.81 71.0488 136.624 71.5389 136.535C72.0291 136.446 72.5327 136.456 73.019 136.563C73.5053 136.671 73.9641 136.875 74.3674 137.162C74.7707 137.449 75.11 137.814 75.3647 138.234L89.1858 161.028C90.8071 163.702 91.3002 166.89 90.5604 169.914C89.8206 172.939 87.9062 175.562 85.2239 177.226C82.1131 179.155 78.4851 180.131 74.8047 180.027C71.1243 179.924 67.5593 178.746 64.5667 176.645L43.1815 161.629C42.4701 161.111 41.9584 160.372 41.7295 159.533C41.5006 158.694 41.5679 157.804 41.9205 157.007Z" fill="#E98862"/>
<g opacity="0.25">
<path opacity="0.25" d="M66.4167 151.029C66.3649 151.1 66.287 151.148 66.1998 151.162C66.1125 151.177 66.0228 151.158 65.9497 151.109L52.4948 141.974C52.4566 141.95 52.4238 141.918 52.3983 141.882C52.3728 141.845 52.3551 141.803 52.3463 141.759C52.3375 141.716 52.3377 141.671 52.347 141.627C52.3563 141.584 52.3744 141.542 52.4003 141.506C52.4262 141.469 52.4594 141.438 52.4978 141.414C52.5362 141.39 52.5791 141.374 52.624 141.367C52.6688 141.36 52.7147 141.362 52.7589 141.372C52.8031 141.383 52.8447 141.402 52.8812 141.428L66.3361 150.558C66.4098 150.609 66.4601 150.685 66.4761 150.772C66.4921 150.858 66.4725 150.948 66.4216 151.02L66.4167 151.029Z" fill="#0C0C0C"/>
</g>
<g opacity="0.25">
<path opacity="0.25" d="M62.47 156.951C62.4182 157.021 62.3404 157.069 62.2531 157.084C62.1659 157.099 62.0761 157.08 62.0031 157.031L46.9878 146.839C46.914 146.789 46.8635 146.712 46.8473 146.626C46.8312 146.539 46.8507 146.45 46.9015 146.377C46.9546 146.307 47.0329 146.26 47.1206 146.244C47.2082 146.229 47.2986 146.246 47.3734 146.294L62.3895 156.483C62.4631 156.533 62.5135 156.61 62.5295 156.697C62.5455 156.783 62.5259 156.872 62.4749 156.945L62.47 156.951Z" fill="#0C0C0C"/>
</g>
<g opacity="0.25">
<path opacity="0.25" d="M58.2333 163.392C58.1817 163.462 58.104 163.51 58.0168 163.525C57.9297 163.54 57.84 163.52 57.7671 163.471L45.7887 155.342C45.7196 155.29 45.6735 155.214 45.66 155.13C45.6465 155.045 45.6666 154.959 45.7162 154.889C45.7657 154.819 45.8409 154.77 45.9262 154.753C46.0115 154.735 46.1004 154.751 46.1743 154.796L58.1527 162.925C58.2266 162.976 58.2771 163.052 58.2931 163.139C58.3091 163.226 58.2894 163.315 58.2382 163.388L58.2333 163.392Z" fill="#0C0C0C"/>
</g>
<path d="M95.2791 152.804L129.677 230.626L177.138 166.988L218.27 203.312L148.032 292.428L147.571 293.066C144.76 296.838 141.014 299.847 136.688 301.809C132.361 303.771 127.596 304.621 122.841 304.281C118.086 303.94 113.498 302.418 109.509 299.86C105.521 297.302 102.262 293.791 100.041 289.658L50.5789 177.162L95.2791 152.804Z" fill="#ABCBFF"/>
<path d="M133.658 238.768C133.747 238.769 133.834 238.746 133.911 238.704C133.988 238.662 134.052 238.601 134.098 238.527C134.144 238.453 134.17 238.369 134.174 238.283C134.177 238.196 134.158 238.111 134.117 238.034L130.138 230.396C130.074 230.281 129.966 230.195 129.838 230.156C129.71 230.117 129.571 230.129 129.452 230.189C129.332 230.249 129.241 230.352 129.198 230.476C129.154 230.6 129.162 230.736 129.22 230.855L133.199 238.493C133.242 238.576 133.308 238.646 133.389 238.694C133.47 238.743 133.563 238.769 133.658 238.768Z" fill="#0C0C0C"/>
<path d="M175.006 227.823C176.176 241.292 181.869 325.322 182.994 341.912H341.914C342.791 326.949 342.87 261.521 346.192 232.261C349.365 204.34 355.583 190.361 351.024 182.106C343.572 168.616 332.87 156.449 312.353 154.77C303.827 154.071 288.095 157.051 288.095 157.051C288.095 157.051 287.013 178.446 261.271 179.636C226.225 181.256 228.554 157.106 228.391 157.048C221.167 154.46 196.022 153.142 184.949 160.307C163.821 173.974 172.522 199.281 175.006 227.823Z" fill="#ABCBFF"/>
<path d="M176.189 236.566L175.16 236.623L176.399 258.012L177.428 257.954L176.189 236.566Z" fill="#0C0C0C"/>
<path d="M465.516 166.45C465.114 165.821 464.522 165.33 463.823 165.045C463.123 164.759 462.351 164.694 461.611 164.856C461.614 164.812 461.605 164.767 461.586 164.726C461.566 164.686 461.537 164.65 461.501 164.623C461.464 164.596 461.422 164.578 461.377 164.571C461.332 164.563 461.285 164.567 461.242 164.581L463.601 162.577C464.309 162.002 464.781 161.195 464.929 160.305C465.077 159.416 464.891 158.504 464.406 157.739C463.902 156.998 463.135 156.467 462.254 156.249C461.372 156.03 460.44 156.14 459.637 156.557C459.637 156.521 459.613 156.49 459.604 156.455L460.573 155.631C461.238 155.086 461.69 154.333 461.853 153.499C462.017 152.665 461.88 151.801 461.468 151.054C461.2 150.591 460.83 150.192 460.385 149.886C459.94 149.58 459.432 149.374 458.896 149.283C458.36 149.193 457.811 149.22 457.287 149.363C456.764 149.506 456.279 149.761 455.868 150.11L453.631 152.009C453.622 151.995 453.631 151.979 453.618 151.967C453.605 151.955 453.58 151.952 453.566 151.94C454.058 151.283 454.309 150.483 454.276 149.669C454.243 148.855 453.929 148.076 453.385 147.46C452.083 145.78 449.509 146.381 448.064 147.608L434.863 158.428L436.992 154.044C437.424 153.199 437.512 152.223 437.238 151.316C436.965 150.409 436.35 149.637 435.517 149.157C435.079 148.924 434.597 148.781 434.101 148.736C433.604 148.691 433.104 148.746 432.629 148.898C432.155 149.049 431.718 149.293 431.343 149.615C430.968 149.938 430.665 150.332 430.451 150.773L418.832 174.717C417.469 177.526 417.277 180.745 418.298 183.69C419.319 186.635 421.472 189.074 424.299 190.489C427.578 192.13 431.282 192.774 434.938 192.339C438.593 191.903 442.032 190.409 444.814 188.046L464.697 171.164C465.356 170.584 465.795 169.802 465.944 168.947C466.093 168.091 465.942 167.211 465.516 166.45Z" fill="#E98862"/>
<g opacity="0.25">
<path opacity="0.25" d="M440.562 162.704C440.621 162.769 440.703 162.809 440.791 162.815C440.879 162.822 440.966 162.794 441.034 162.739L453.574 152.434C453.608 152.406 453.636 152.372 453.657 152.333C453.677 152.294 453.69 152.252 453.694 152.209C453.697 152.165 453.693 152.121 453.679 152.08C453.666 152.038 453.644 152 453.616 151.966C453.587 151.933 453.552 151.905 453.513 151.885C453.473 151.865 453.43 151.853 453.386 151.849C453.341 151.845 453.297 151.85 453.254 151.863C453.212 151.876 453.173 151.897 453.139 151.925L440.599 162.23C440.53 162.287 440.487 162.368 440.479 162.456C440.472 162.543 440.5 162.63 440.557 162.697L440.562 162.704Z" fill="#0C0C0C"/>
</g>
<g opacity="0.25">
<path opacity="0.25" d="M445.049 168.244C445.107 168.31 445.189 168.35 445.278 168.356C445.366 168.363 445.453 168.335 445.521 168.28L459.514 156.779C459.582 156.722 459.625 156.641 459.633 156.554C459.641 156.466 459.613 156.379 459.556 156.311C459.496 156.246 459.414 156.206 459.325 156.199C459.237 156.191 459.148 156.217 459.078 156.27L445.086 167.771C445.017 167.828 444.974 167.909 444.966 167.997C444.958 168.084 444.986 168.171 445.044 168.239L445.049 168.244Z" fill="#0C0C0C"/>
</g>
<g opacity="0.25">
<path opacity="0.25" d="M449.873 174.278C449.931 174.343 450.013 174.383 450.102 174.39C450.19 174.396 450.277 174.369 450.345 174.314L461.508 165.136C461.577 165.08 461.62 164.999 461.628 164.911C461.636 164.823 461.608 164.736 461.55 164.669C461.492 164.601 461.41 164.559 461.32 164.551C461.231 164.544 461.142 164.571 461.073 164.628L449.91 173.802C449.841 173.858 449.798 173.939 449.79 174.027C449.782 174.115 449.81 174.202 449.868 174.269L449.873 174.278Z" fill="#0C0C0C"/>
</g>
<path d="M413.377 165.446L387.226 231.144L349.045 178.623L307.921 214.948L366.815 303.052L367.275 303.69C370.087 307.462 373.832 310.471 378.159 312.433C382.486 314.395 387.251 315.245 392.006 314.904C396.761 314.563 401.349 313.042 405.338 310.484C409.327 307.926 412.585 304.415 414.806 300.282L457.053 188.796L413.377 165.446Z" fill="#ABCBFF"/>
<path d="M383.248 239.288C383.159 239.288 383.072 239.266 382.995 239.223C382.918 239.181 382.854 239.12 382.808 239.046C382.762 238.972 382.736 238.888 382.732 238.802C382.729 238.715 382.748 238.629 382.788 238.552L386.767 230.915C386.83 230.797 386.938 230.709 387.067 230.669C387.197 230.629 387.337 230.64 387.458 230.701C387.579 230.761 387.67 230.866 387.713 230.992C387.755 231.118 387.746 231.256 387.685 231.375L383.706 239.012C383.663 239.095 383.598 239.165 383.517 239.214C383.436 239.262 383.343 239.288 383.248 239.288Z" fill="#0C0C0C"/>
<path d="M432.687 408.283H41.3933C41.1426 408.276 40.9046 408.173 40.7298 407.997C40.555 407.821 40.4573 407.585 40.4573 407.339C40.4573 407.093 40.555 406.857 40.7298 406.681C40.9046 406.505 41.1426 406.402 41.3933 406.395H432.687C432.938 406.402 433.176 406.505 433.351 406.681C433.526 406.857 433.623 407.093 433.623 407.339C433.623 407.585 433.526 407.821 433.351 407.997C433.176 408.173 432.938 408.276 432.687 408.283Z" fill="#292A2E"/>
<path d="M132.476 104.622V8.16515C132.476 6.00017 131.598 3.92382 130.036 2.39265C128.474 0.861473 126.355 0.000845283 124.145 0L8.33461 0C6.12414 0 4.00419 0.860255 2.44115 2.39152C0.878108 3.92278 0 5.99962 0 8.16515L0 80.0871C0 82.2526 0.878108 84.3294 2.44115 85.8607C4.00419 87.392 6.12414 88.2522 8.33461 88.2522H102.437L128.683 106.539C129.042 106.79 129.465 106.938 129.905 106.969C130.344 107 130.784 106.911 131.176 106.713C131.568 106.515 131.896 106.215 132.126 105.846C132.355 105.478 132.476 105.054 132.476 104.622Z" fill="#7B5CFA"/>
<path d="M62.6735 76.5509C65.4906 76.5509 67.7743 74.3136 67.7743 71.5538C67.7743 68.7939 65.4906 66.5566 62.6735 66.5566C59.8564 66.5566 57.5726 68.7939 57.5726 71.5538C57.5726 74.3136 59.8564 76.5509 62.6735 76.5509Z" fill="white"/>
<path d="M62.436 60.7083C61.5554 60.7081 60.711 60.3652 60.0884 59.7551C59.4658 59.145 59.116 58.3177 59.116 57.455V45.3726C59.116 44.6427 59.3667 43.934 59.8277 43.3605C60.2887 42.787 60.9331 42.3821 61.6575 42.211C61.8015 42.1759 76.6557 38.493 76.6557 28.7004C76.6557 22.5556 71.5134 18.2598 64.1509 18.2598C56.1783 18.2598 52.0798 26.0703 51.9097 26.4003C51.5114 27.1602 50.8238 27.7362 49.9957 28.0037C49.1675 28.2712 48.2651 28.2089 47.4835 27.8302C46.7018 27.4514 46.1036 26.7867 45.818 25.9795C45.5324 25.1723 45.5824 24.2874 45.9572 23.516C46.2012 23.0378 52.0049 11.7548 64.1509 11.7548C75.2442 11.7548 83.2957 18.8791 83.2957 28.6964C83.2957 40.5277 71.1741 45.9473 65.7568 47.7787V57.455C65.7566 58.3177 65.4067 59.1451 64.784 59.7552C64.1612 60.3653 63.3167 60.7081 62.436 60.7083Z" fill="white"/>
</svg>
