<svg width="158" height="163" viewBox="0 0 158 163" fill="none" xmlns="http://www.w3.org/2000/svg">
<path d="M153.208 63.6871H141.679C140.763 63.6886 139.869 63.3967 139.121 62.8519C138.373 62.3071 137.808 61.5363 137.505 60.6464C136.622 58.0384 135.578 55.4912 134.38 53.0204C133.965 52.1657 133.824 51.1984 133.974 50.256C134.125 49.3137 134.56 48.4442 135.219 47.7711L143.413 39.3375C144.245 38.4797 144.713 37.317 144.713 36.1046C144.713 34.8922 144.245 33.7294 143.413 32.8717L125.711 14.6596C124.878 13.8028 123.748 13.3215 122.571 13.3215C121.393 13.3215 120.263 13.8028 119.43 14.6596L111.089 23.2454C110.439 23.9166 109.602 24.3621 108.695 24.5199C107.788 24.6776 106.855 24.5397 106.028 24.1253C103.673 22.9415 101.248 21.9126 98.7675 21.0446C97.8933 20.738 97.1344 20.1571 96.5975 19.3836C96.0607 18.61 95.7729 17.6828 95.7746 16.7321V4.56918C95.7747 3.96912 95.6599 3.37489 95.4369 2.82048C95.2138 2.26607 94.8869 1.76234 94.4746 1.33803C94.0624 0.913721 93.573 0.57716 93.0344 0.347576C92.4958 0.117993 91.9185 -0.000111592 91.3355 7.9117e-08H66.3119C65.7289 -0.000111592 65.1516 0.117993 64.613 0.347576C64.0744 0.57716 63.585 0.913721 63.1728 1.33803C62.7606 1.76234 62.4336 2.26607 62.2105 2.82048C61.9875 3.37489 61.8727 3.96912 61.8729 4.56918V16.7321C61.8745 17.6828 61.5867 18.61 61.0499 19.3836C60.513 20.1571 59.7541 20.738 58.8799 21.0446C56.3989 21.9127 53.9737 22.9417 51.6189 24.1253C50.7914 24.5399 49.8586 24.6779 48.9511 24.5202C48.0436 24.3624 47.2066 23.9168 46.5572 23.2454L38.216 14.6596C37.3827 13.8028 36.2531 13.3215 35.0752 13.3215C33.8974 13.3215 32.7678 13.8028 31.9345 14.6596L14.2338 32.8717C13.4013 33.7294 12.9338 34.8922 12.9338 36.1046C12.9338 37.317 13.4013 38.4797 14.2338 39.3375L22.4271 47.7711C23.0855 48.4441 23.5211 49.3135 23.6719 50.2559C23.8227 51.1983 23.681 52.1656 23.267 53.0204C22.0678 55.4899 21.0264 58.0373 20.1494 60.6464C19.8434 61.5362 19.2768 62.3064 18.5278 62.8509C17.7788 63.3955 16.8842 63.6876 15.9672 63.6871H4.43902C3.85605 63.6868 3.27874 63.8047 2.74008 64.0342C2.20143 64.2636 1.71198 64.6001 1.29972 65.0244C0.88747 65.4487 0.560489 65.9524 0.337475 66.5068C0.11446 67.0612 -0.000216436 67.6554 6.92257e-07 68.2555V94.0214C-0.000324993 94.6216 0.114271 95.2158 0.337237 95.7704C0.560203 96.3249 0.887167 96.8287 1.29943 97.2531C1.7117 97.6774 2.20118 98.014 2.73989 98.2435C3.27861 98.473 3.85598 98.5909 4.43902 98.5906H15.6642C16.5977 98.5902 17.5076 98.8932 18.2639 99.4565C19.0203 100.02 19.5845 100.815 19.8761 101.727C20.742 104.406 21.7782 107.023 22.978 109.562C23.3849 110.417 23.5227 111.381 23.3722 112.32C23.2216 113.26 22.7903 114.127 22.1381 114.802L14.2321 122.94C13.8196 123.364 13.4923 123.868 13.269 124.422C13.0457 124.976 12.9308 125.571 12.9308 126.171C12.9308 126.771 13.0457 127.365 13.269 127.919C13.4923 128.473 13.8196 128.977 14.2321 129.401L31.9328 147.621C32.7661 148.478 33.8958 148.959 35.0736 148.959C36.2514 148.959 37.3811 148.478 38.2143 147.621L45.9651 139.643C46.6254 138.965 47.4763 138.517 48.3973 138.365C49.3182 138.212 50.2625 138.362 51.0962 138.793C53.6033 140.082 56.1928 141.194 58.8469 142.121C59.7268 142.427 60.4914 143.01 61.0336 143.786C61.5758 144.562 61.8684 145.494 61.8704 146.45V157.701C61.8695 158.302 61.9837 158.897 62.2064 159.452C62.429 160.007 62.7559 160.511 63.1682 160.937C63.5804 161.362 64.0701 161.699 64.6091 161.929C65.1481 162.159 65.7259 162.278 66.3094 162.278H91.3331C91.9166 162.278 92.4944 162.159 93.0334 161.929C93.5724 161.699 94.062 161.362 94.4743 160.937C94.8866 160.511 95.2134 160.007 95.4361 159.452C95.6588 158.897 95.7729 158.302 95.7721 157.701V146.45C95.7738 145.494 96.0663 144.562 96.6085 143.786C97.1508 143.009 97.9155 142.427 98.7956 142.121C101.45 141.194 104.039 140.082 106.546 138.793C107.38 138.362 108.324 138.212 109.245 138.365C110.166 138.517 111.017 138.965 111.677 139.643L119.427 147.621C120.261 148.478 121.39 148.959 122.568 148.959C123.746 148.959 124.876 148.478 125.709 147.621L143.41 129.401C143.823 128.977 144.15 128.473 144.373 127.919C144.597 127.365 144.712 126.771 144.712 126.171C144.712 125.571 144.597 124.976 144.373 124.422C144.15 123.868 143.823 123.364 143.41 122.94L135.504 114.802C134.852 114.127 134.421 113.26 134.27 112.32C134.12 111.381 134.258 110.417 134.664 109.562C135.864 107.023 136.9 104.406 137.766 101.727C138.058 100.815 138.622 100.02 139.379 99.4565C140.135 98.8932 141.045 98.5902 141.978 98.5906H153.203C153.786 98.5909 154.364 98.473 154.903 98.2435C155.441 98.014 155.931 97.6774 156.343 97.2531C156.755 96.8287 157.082 96.3249 157.305 95.7704C157.528 95.2158 157.643 94.6216 157.642 94.0214V68.2555C157.643 67.6558 157.528 67.0619 157.305 66.5078C157.083 65.9536 156.756 65.4501 156.344 65.0259C155.932 64.6017 155.443 64.2651 154.905 64.0354C154.367 63.8057 153.79 63.6874 153.208 63.6871ZM78.8237 119.212C71.5073 119.212 64.3551 116.979 58.2717 112.795C52.1883 108.611 47.4468 102.664 44.6468 95.7068C41.8469 88.7491 41.1142 81.0931 42.5416 73.7068C43.9689 66.3206 47.492 59.5359 52.6655 54.2107C57.839 48.8855 64.4304 45.259 71.6063 43.7898C78.7821 42.3207 86.2201 43.0748 92.9795 45.9568C99.739 48.8389 105.516 53.7194 109.581 59.9812C113.646 66.2431 115.815 73.6049 115.815 81.1359C115.815 91.2341 111.917 100.919 104.98 108.059C98.0429 115.2 88.6343 119.211 78.8237 119.212Z" fill="#FFD702" fill-opacity="0.8"/>
</svg>
